<svg xmlns="http://www.w3.org/2000/svg" width="66" height="80" viewBox="0 0 66 80">
    <g fill="#535353" fill-rule="nonzero" style="mix-blend-mode:luminosity">
        <circle cx="32.5" cy="29.167" r="5.833"/>
        <path d="M32.778 51.284c4.7 4.575 9.337 7.28 13.072 7.28 1.224 0 2.383-.257 3.349-.837 3.348-1.933 4.572-6.765 3.413-13.658a42.931 42.931 0 0 0-.773-3.737c1.288-.387 2.447-.773 3.606-1.16 6.504-2.513 10.11-5.992 10.11-9.793 0-3.866-3.606-7.345-10.11-9.793a29.53 29.53 0 0 0-3.606-1.16c.322-1.288.58-2.512.773-3.736 1.095-7.023-.129-11.92-3.478-13.852C48.17.258 47.01 0 45.786 0c-3.67 0-8.372 2.706-13.073 7.28C28.077 2.706 23.44 0 19.705 0c-1.223 0-2.382.258-3.348.838-3.349 1.932-4.572 6.764-3.413 13.658.193 1.224.45 2.448.772 3.737-1.287.387-2.447.773-3.606 1.16C3.606 21.905 0 25.384 0 29.186c0 3.865 3.606 7.344 10.11 9.793a29.53 29.53 0 0 0 3.606 1.16 42.931 42.931 0 0 0-.772 3.736c-1.095 6.894.128 11.79 3.413 13.659.966.58 2.125.837 3.348.837 3.735.13 8.372-2.577 13.073-7.087zm-3.606-8.697c1.159.064 2.382.064 3.606.064 1.223 0 2.447 0 3.606-.064-1.16 1.546-2.383 2.963-3.606 4.316-1.224-1.353-2.447-2.77-3.606-4.316zm-7.986-6.636c.644 1.095 1.224 2.126 1.932 3.157a69.062 69.062 0 0 1-5.667-.967c.58-1.74 1.224-3.543 1.997-5.347.515 1.03 1.094 2.126 1.738 3.157zm-3.735-15.527a69.062 69.062 0 0 1 5.667-.967c-.644 1.031-1.288 2.062-1.932 3.157-.644 1.095-1.223 2.126-1.738 3.221a43.084 43.084 0 0 1-1.997-5.411zm3.542 8.826a68.196 68.196 0 0 1 2.77-5.218c.965-1.676 2.06-3.35 3.155-5.026a87.556 87.556 0 0 1 5.86-.193c2.06 0 3.992.064 5.86.193a71.756 71.756 0 0 1 3.155 5.026 68.196 68.196 0 0 1 2.77 5.218 68.196 68.196 0 0 1-2.77 5.219c-.966 1.675-2.06 3.35-3.155 5.025a87.556 87.556 0 0 1-5.86.193c-2.06 0-3.993-.064-5.86-.193a71.756 71.756 0 0 1-3.156-5.025 68.196 68.196 0 0 1-2.769-5.219zm25.18-3.479l-1.74-3.221c-.643-1.096-1.223-2.126-1.931-3.157 1.996.257 3.863.58 5.667.966a61.223 61.223 0 0 1-1.997 5.412zm0 6.958c.772 1.804 1.416 3.608 1.996 5.348-1.804.386-3.671.708-5.667.966.644-1.03 1.288-2.062 1.932-3.157.58-.966 1.159-2.061 1.738-3.157zm1.48 22.357c-.515.322-1.159.45-1.867.45-3.156 0-7.084-2.576-10.948-6.442 1.868-1.997 3.671-4.252 5.474-6.765 3.027-.258 5.925-.709 8.63-1.353.321 1.16.514 2.32.708 3.48.901 5.475.193 9.406-1.997 10.63zm3.349-33.954c7.212 2.062 11.527 5.219 11.527 8.118 0 2.513-2.962 5.026-8.178 7.023-1.03.386-2.19.773-3.349 1.095a67.735 67.735 0 0 0-3.155-8.118c1.287-2.77 2.382-5.476 3.155-8.118zM45.85 2.964c.709 0 1.288.129 1.868.45 2.125 1.225 2.898 5.09 1.996 10.631-.193 1.096-.45 2.255-.708 3.48-2.705-.58-5.603-1.032-8.63-1.354a59.52 59.52 0 0 0-5.473-6.765c3.864-3.8 7.792-6.442 10.947-6.442zm-9.466 12.95c-1.16-.065-2.383-.065-3.606-.065-1.224 0-2.447 0-3.606.065 1.159-1.547 2.382-2.964 3.606-4.317a79.895 79.895 0 0 1 3.606 4.317zm-18.482-12.5c.515-.321 1.16-.45 1.868-.45 3.155 0 7.083 2.577 10.947 6.442-1.867 1.998-3.67 4.253-5.474 6.765-3.026.258-5.924.709-8.629 1.353-.322-1.16-.515-2.32-.708-3.479-.902-5.476-.193-9.342 1.996-10.63zm-3.348 33.954C7.34 35.306 3.027 32.149 3.027 29.25c0-2.513 2.962-5.025 8.178-7.022 1.03-.387 2.19-.774 3.349-1.096a67.735 67.735 0 0 0 3.155 8.118c-1.288 2.77-2.383 5.54-3.155 8.118zm1.352 7.087c.193-1.095.45-2.255.708-3.479 2.705.58 5.603 1.03 8.63 1.353a59.52 59.52 0 0 0 5.473 6.765c-3.864 3.801-7.792 6.443-10.947 6.443-.709 0-1.288-.13-1.868-.451-2.19-1.224-2.898-5.155-1.996-10.63zM13.2 71c1.417-1.74 1.481-3.672.709-5.605-.773-1.933-2.383-2.835-4.38-2.9-2.382-.064-4.83 0-7.212 0h-.45v16.688h1.931v-6.314h3.027c.386 0 .708.129.902.45l3.863 5.992c.065.13.258.323.387.323h2.511a653.096 653.096 0 0 0-4.572-6.959c1.352-.193 2.512-.644 3.284-1.675zM3.8 70.87v-6.378h.709c1.48 0 3.026-.064 4.507.065 1.74.064 2.963 1.417 2.963 3.156 0 1.74-1.417 3.093-3.156 3.157-1.545.065-3.09 0-5.023 0zm24.922.838c-1.03-4.51-5.152-5.67-8.307-4.252-2.447 1.095-3.542 3.221-3.607 5.863-.064 1.997.516 3.8 2.061 5.154 1.739 1.546 3.864 1.74 6.053 1.353 1.224-.258 2.319-.838 3.156-1.74-.322-.45-.644-.902-.966-1.288-1.803 1.546-3.8 2.061-5.989 1.03-1.417-.708-2.125-2.448-2.254-3.736h9.982v-.838c.064-.58 0-1.095-.13-1.546zm-9.724 1.03c-.193-1.932 1.739-3.994 3.864-3.994 2.447-.064 3.992 1.418 4.057 3.995h-7.921zm19.77-5.604c-.966-.194-1.997-.258-2.963-.194-1.545.13-2.897.838-3.992 1.998.322.45.58.902.966 1.417.129-.129.257-.258.386-.322 1.03-.967 2.254-1.482 3.735-1.353 1.16.064 2.254.45 2.576 1.61.258.903.193 1.869.258 2.835-.194 0-.258-.064-.322-.128-1.546-1.289-3.285-1.547-5.152-1.096-1.739.451-2.834 1.804-2.962 3.544-.13 1.997.772 3.479 2.511 4.188 1.095.45 2.318.45 3.478.193.901-.193 1.287-.709 2.575-1.418v.838h1.803c0-2.577.065-5.734 0-8.698 0-1.868-1.094-3.028-2.897-3.414zm.901 8.118c-.064.193 0 .386 0 .58 0 1.352-.322 1.803-1.61 2.319-.901.322-1.867.45-2.833.129-1.095-.323-1.868-1.289-1.868-2.384-.064-1.095.644-2.19 1.739-2.513 1.481-.515 2.833-.193 4.057.709.386.322.644.644.515 1.16zm10.046-6.379c1.674-.515 3.22-.193 4.379 1.224l.193.13c.451-.387.837-.774 1.353-1.225-.194-.193-.258-.322-.387-.515-1.867-1.998-5.538-2.255-7.792-.645-3.155 2.32-3.09 6.83-1.545 9.213 1.48 2.255 3.606 3.029 6.117 2.706 1.481-.193 2.705-.902 3.67-2.126-.45-.386-.9-.773-1.351-1.224-.13.13-.194.193-.258.322-1.739 1.933-4.637 1.74-6.182-.322-.902-1.224-1.095-2.641-.837-4.059.129-1.61.966-2.899 2.64-3.479zm13.394 8.762c-.128.065-.193.13-.193.13-.515.386-1.03.45-1.61.257-.58-.258-.644-.773-.708-1.289V69.39c0-.13 0 .128.064-.516h2.447V66.94h-2.575V63.72H58.6v3.48h-1.675c-.128 0-.322.128-.322.257-.064.45 0 .773 0 1.417h2.061v8.247c0 1.03.258 1.933 1.16 2.448.965.58 2.833.451 3.67-.258.129-.064.193-.322.193-.386-.193-.387-.386-.838-.58-1.289z"/>
    </g>
</svg>
