<svg preserveAspectRatio="none" xmlns="http://www.w3.org/2000/svg" width="610" height="79" viewBox="0 0 610 79">
    <path fill="#FEE9A0" fill-rule="nonzero" d="M435.47.14c0-.077.192-.14.426-.14.235 0 .35.063.258.14a.78.78 0 0 1-.427.138c-.142 0-.257-.062-.257-.139zm-1.913.973c0-.077.123-.14.273-.14.15 0 .273.063.273.14 0 .076-.122.139-.273.139-.15 0-.273-.063-.273-.14zm34.17.417c0-.076.055-.14.121-.14.067 0 .197.064.29.14.094.077.039.14-.121.14s-.29-.064-.29-.14zm-30.685.047c.188-.039.496-.039.684 0 .188.039.034.07-.342.07s-.53-.031-.342-.07zm52.008.092c0-.076.191-.139.426-.139.234 0 .35.063.257.14a.78.78 0 0 1-.426.138c-.142 0-.257-.062-.257-.139zm-1.23 0c-.094-.076-.047-.139.105-.139.15 0 .349.063.442.14.092.076.045.138-.105.138a.81.81 0 0 1-.442-.139zm-30.754.444c0-.075.195-.174.433-.22.266-.052.391-.021.325.08-.136.208-.758.323-.758.14zm-22.802-.26c-.637-.279-.719-.373-.41-.473.213-.068.57-.124.796-.124.365 0 .365.016 0 .146-.305.108-.182.122.479.056.7-.07.888-.043.888.13 0 .121.185.22.41.22.226 0 .41.067.41.149 0 .086-.234.11-.56.058-.308-.05-.707-.028-.888.048-.23.097-.568.034-1.125-.21zm60.939.374c-.096-.079.016-.102.257-.054.473.092.56.192.167.192a.773.773 0 0 1-.424-.138zm-95.543-.001c0-.077.123-.14.273-.14.15 0 .273.063.273.14 0 .076-.123.139-.273.139-.15 0-.273-.063-.273-.14zm105.792.139c0-.077.122-.14.273-.14.15 0 .273.063.273.14 0 .076-.122.139-.273.139-.15 0-.273-.063-.273-.14zm-7.718-.024c.158-.08.45-.12.647-.086.205.035.081.098-.288.147-.455.06-.562.043-.359-.06zm-64.724.101c0-.033.123-.1.273-.147.15-.047.274-.02.274.062 0 .08-.123.147-.274.147-.15 0-.273-.028-.273-.062zm-29.66-.078c-.098-.08.156-.138.599-.136.596.001.676.032.358.136-.525.173-.747.173-.957 0zm54.992.186c-.278-.141-.217-.325.106-.325.16 0 .22.058.136.128-.086.07 0 .159.189.197.19.04.211.076.047.082a1.185 1.185 0 0 1-.479-.082zm27.974.093c-.33-.109-.286-.136.221-.137.352-.002.557.059.463.137-.204.167-.175.167-.684 0zm13.005.174c.135-.058.323-.157.417-.22.094-.065.245-.018.336.104.12.158 0 .22-.417.22-.321 0-.472-.047-.336-.104zm-223.433-.061c.165-.253.666-.288.666-.048 0 .117-.174.213-.387.213-.213 0-.339-.074-.279-.165zm-46.535.034c0-.081.123-.147.274-.147.15 0 .273.027.273.061s-.123.1-.273.147c-.15.048-.274.02-.274-.061zm218.14.204c.394-.242.552-.267.552-.088 0 .068-.202.164-.449.212-.375.073-.392.053-.103-.124zm8.89.205a.776.776 0 0 1 .426-.14c.142 0 .257.063.257.14 0 .076-.192.14-.426.14-.234 0-.35-.064-.257-.14zm-6.424 0c0-.077.055-.14.12-.14.067 0 .197.063.29.14.094.076.039.14-.12.14-.16 0-.29-.064-.29-.14zm-14.9-.002c-.094-.077.022-.177.257-.223.235-.046.428-.17.428-.277 0-.107.122-.194.273-.194.357 0 .354.376 0 .488-.153.048-.207.146-.121.217.086.071-.028.13-.253.13s-.486-.064-.58-.14h-.004zm-2.322.002c0-.077.123-.14.273-.14.15 0 .273.063.273.14 0 .076-.123.14-.273.14-.15 0-.273-.064-.273-.14zm-.82 0c0-.077.123-.14.273-.14.15 0 .273.063.273.14 0 .076-.123.14-.273.14-.15 0-.273-.064-.273-.14zm50.299.217c0-.034.122-.1.273-.147.15-.048.273-.02.273.06 0 .082-.122.148-.273.148-.15 0-.273-.027-.273-.061zm-39.638.139c0-.034.123-.1.273-.147.15-.048.273-.02.273.061s-.122.147-.273.147c-.15 0-.273-.027-.273-.061zm-19.82-.078c.094-.076.401-.139.684-.139.283 0 .59.063.684.14.098.08-.185.138-.684.138-.498 0-.782-.058-.683-.139zm14.808.186c-.332-.17-.189-.317.228-.236.225.044.41.136.41.204 0 .146-.377.165-.638.032zm-17.814-.047c-.093-.076-.039-.139.12-.139.16 0 .29.063.29.14 0 .076-.054.138-.12.138-.067 0-.197-.062-.29-.139zm88.627 0c.08-.153.176-.278.216-.278.04 0 .138.125.216.278.089.174 0 .278-.216.278-.224 0-.305-.104-.216-.278zm-95.398.158c.636-.209 1.054-.258 1.493-.175.544.102.5.125-.425.213a29.97 29.97 0 0 0-1.492.175c-.253.042-.062-.054.424-.213zm32.057.26c-.353-.117-.346-.136.052-.137.254-.002.538.06.63.137.215.176-.148.176-.682 0zm2.187.223c0-.03.184-.09.41-.135.226-.044.41-.02.41.055 0 .074-.184.135-.41.135-.226 0-.41-.025-.41-.055zm-29.69-.109c-.077-.064.05-.154.284-.2.235-.045.358-.139.275-.207-.083-.069.054-.125.304-.125.303 0 .4.074.29.22-.092.121-.166.267-.166.325 0 .143-.81.133-.986-.013zm37.418.219c.09-.046.327-.051.524-.011.218.044.154.077-.165.084-.288.006-.45-.027-.359-.073zm-24.403-.051c0-.189.486-.306.663-.16.084.07-.03.162-.255.206-.224.044-.408.023-.408-.046zm-9.394-.074c.087-.115.344-.208.572-.208.337 0 .351.038.074.208-.187.115-.444.209-.572.209-.127 0-.16-.094-.074-.209zm44.111.426c0-.034.123-.1.273-.148.15-.047.274-.02.274.062 0 .08-.123.147-.274.147-.15 0-.273-.028-.273-.061zm-30.869-.136c-.016-.147.054-.229.144-.183.09.047.1.167.021.267-.087.111-.152.078-.165-.084zm24.855.058c0-.153.111-.278.248-.278.135 0 .183.125.105.278-.08.153-.19.278-.248.278-.058 0-.105-.125-.105-.278zm-17.594.07c.087-.115.308-.21.492-.21.185 0 .336.095.336.21 0 .114-.222.208-.493.208-.326 0-.44-.07-.335-.208zm66.012-.126c-.623-.265-1.023-.516-.887-.559.283-.09 2.396.85 2.17.965-.082.042-.66-.14-1.283-.406zm-7.823.334c-.094-.076-.047-.139.105-.139.15 0 .349.063.442.14.094.076.047.138-.105.138a.81.81 0 0 1-.442-.139zm-48.075-.07c.088-.114.206-.208.265-.208.06 0 .108.094.108.209 0 .114-.12.208-.264.208-.146 0-.194-.094-.109-.208zm-19.31.058c0-.08-.123-.105-.273-.057-.15.047-.273.02-.273-.062 0-.176.54-.189 1.048-.025.293.094.28.134-.069.202-.238.046-.433.02-.433-.058zm-2.187.012c0-.076.116-.139.258-.139.141 0 .333.063.426.14.093.076-.023.138-.257.138-.235 0-.427-.062-.427-.139zm80.114.082c-.26-.16-.227-.189.172-.15.272.026.716.052.988.058.64.014.315.289-.34.289-.274 0-.642-.089-.82-.198zm-3.39.104c-.314-.16-.198-.324.229-.324.225 0 .41.094.41.208 0 .218-.324.276-.638.116zm-58.75 0c.188-.038.496-.038.684 0 .187.039.034.07-.342.07s-.53-.031-.342-.07zm2.529.1c0-.08.123-.147.273-.147.15 0 .273.028.273.062 0 .033-.122.1-.273.147-.15.047-.273.02-.273-.061zm-17.496 0c0-.08.123-.147.274-.147.15 0 .273.028.273.062 0 .033-.123.1-.273.147-.15.047-.274.02-.274-.061zm74.556.254c.185-.095.406-.138.49-.095.084.043-.068.12-.337.173-.39.075-.42.06-.153-.078zm-2.934-.185c0-.322.079-.35.752-.268.413.05.805.116.87.144.188.083-.337.286-1.007.39-.527.08-.615.043-.615-.266zm-.911.249c-.1-.051-.183-.158-.183-.237 0-.087.128-.079.324.02.178.091.26.198.182.237-.077.04-.223.03-.323-.02zm-2.301 0c-.45-.093-.442-.465.016-.465.194 0 .37.125.393.278.022.153.018.274-.016.268l-.393-.081zm-71.038.17c-.087-.115-.334-.164-.583-.115-.286.055-.365.029-.234-.079.292-.24.655-.198.985.116.161.153.223.278.138.278-.085 0-.223-.09-.306-.2zm25.865.2c-.473-.149-.216-.322.38-.256.253.028.342.115.22.214-.13.106-.348.121-.6.042zm46.964.323c.267-.055.232-.121-.137-.263-.44-.17-.36-.19.737-.186.968.003 1.105.03.643.125-.323.066-.668.187-.768.27-.1.081-.327.143-.506.137-.22-.007-.21-.034.03-.083h.001zm-41.09-1.855c-.094-.078-.286-.106-.426-.062-.38.12-.309.203.171.203.235 0 .35-.064.255-.142zm.139 1.733c0-.182-.33-.263-.889-.218-.113.01-.223-.061-.246-.157-.118-.49-.09-.6.169-.693.155-.057 0-.104-.366-.105-.563-.002-.6-.031-.286-.224.305-.187.289-.243-.104-.355-.256-.072-.465-.195-.465-.272 0-.078.142-.096.316-.041.174.054.728.091 1.23.082.503-.01.914.043.914.117 0 .074.184.135.41.135.226 0 .41.062.41.139 0 .076-.123.139-.273.139-.15 0-.274.063-.274.14 0 .076.198.138.44.138.274 0 .381.077.285.204-.206.273.323.421 1.326.37 1.087-.054.649.137-1.162.508-1.167.239-1.435.256-1.435.093zm77.909.216c0-.076.055-.139.12-.139.067 0 .197.063.29.14.092.076.039.138-.12.138-.16 0-.29-.062-.29-.139zm-33.487-.204c-.87-.363-.644-.486.257-.14.607.235 1.086.272.836.066-.092-.077-.039-.14.121-.14.335 0 .35.038.123.337-.221.293-.373.28-1.338-.123zm-72.374.251c.188-.038.496-.038.684 0 .188.039.034.07-.342.07s-.53-.031-.342-.07zm-2.768-.162c-.121-.178-.153-.357-.071-.399.273-.139 1.569.1 1.381.255-.12.099.039.12.467.065l.65-.086-.647.169c-.546.142-.701.13-1.003-.08-.333-.232-.363-.227-.457.076l-.1.324-.22-.324zm80.162.328c-.071-.036-.519-.08-.995-.099-.477-.018-.928-.113-1-.21-.073-.098-.323-.14-.555-.095-.308.06-.414-.006-.399-.246.017-.18.084-.25.16-.154s.302.174.503.174c.2 0 .412.074.472.164.07.107.293.124.638.049.905-.198 1.213-.196 1.213.008 0 .108.123.196.274.196.15 0 .273.063.273.14 0 .143-.358.188-.584.073zm-82.11-.074c-.445-.097-.46-.121-.084-.13.255-.005.539.054.631.13.195.16.185.16-.546 0zm76.008.288c-.086-.071-.032-.169.12-.217.154-.048.279.01.279.13 0 .244-.164.28-.399.087zm-47.086.056c-.254-.138-.194-.194.276-.258 1.336-.183 1.811.025.665.29-.452.106-.704.097-.941-.032zm45.651.119c-.255-.338.226-.486.696-.213.25.145.638.3.864.346.225.045 0 .073-.51.06-.507-.012-.979-.1-1.05-.193zm-50.486-.073c-.225-.176-.397-.54-.38-.807.016-.268.08-.409.143-.313.184.278 1.272.2 1.664-.119.198-.16.234-.253.08-.205-.154.049-.408-.032-.563-.18-.24-.229-.203-.258.25-.198.671.09.975.547.54.813-.18.111-.252.21-.159.22l.375.036c.38.036.889.24.889.355 0 .143-1.03.492-1.83.621-.452.073-.702.017-1.01-.223h.001zm70.088.504c0-.133.763-.477 1.058-.477.476 0 .67.304.275.431-.423.137-1.333.168-1.333.046zm-13.395-.051c0-.081.123-.147.273-.147.15 0 .274.027.274.061s-.123.1-.274.147c-.15.048-.273.02-.273-.061zm9.294.127c0-.075.185-.135.41-.135.226 0 .41.024.41.054s-.184.091-.41.135c-.225.044-.41.02-.41-.054zm15.309.143c0-.077.116-.14.257-.14.142 0 .333.063.426.14.092.076-.022.14-.257.14-.234 0-.426-.064-.426-.14zm-23.236 0c-.226-.074-.287-.137-.137-.14.15-.002.088-.064-.138-.138-.35-.115-.34-.135.068-.137.263-.002.478-.069.478-.15 0-.08.123-.108.274-.061.315.1.375.766.068.763-.113-.002-.39-.063-.615-.137h.002zm-32.135-.104c-.114-.134-.19-.29-.166-.348.025-.057-.132-.104-.348-.104-.215 0-.47-.126-.565-.279-.095-.153-.277-.278-.403-.278s-.17-.117-.095-.26c.124-.242 1.632-.574 2.607-.574.427 0 1.493.522 1.377.675-.037.05.058.111.214.138.155.026.263-.005.24-.07-.154-.444.614-.608 1.779-.38.482.093.585.546.155.681-.153.048-.215.14-.139.202.076.063-.167.154-.542.202-.78.1-.917.352-.203.376.85.03-1.122.229-2.431.246-.968.012-1.32-.042-1.479-.227zm-152.039.159c.09-.046.327-.051.524-.011.218.044.153.077-.165.084-.288.006-.45-.027-.359-.073zm192.648.223c0-.076.055-.139.121-.139.067 0 .197.063.29.14.092.076.038.138-.121.138-.16 0-.29-.062-.29-.139zm-1.093 0c0-.076.116-.139.257-.139.142 0 .333.063.426.14.094.076-.022.138-.257.138-.234 0-.426-.062-.426-.139zm-1.367-.695c0-.077-.215-.138-.478-.137-.41.002-.42.022-.068.137.516.17.546.17.546 0zm-1.354.912a1.161 1.161 0 0 0-.716-.124c-.215.042-.39.002-.39-.087 0-.296.558-.701.966-.701.47 0 .493-.07.136-.41-.221-.21-.157-.251.388-.251.442 0 .606.062.509.191-.155.205.15.243.847.107.237-.046.363-.14.28-.208-.085-.069-.035-.125.108-.125.433 0 .635.456.26.585-1.039.355-1.353.404-1.69.262-.248-.105-.496-.088-.87.06-.415.163-.429.19-.064.125.254-.045.665-.024.913.047.406.116.409.15.029.343-.232.118-.345.253-.252.3.093.048.101.086.02.086-.082 0-.295-.09-.475-.2h.001zm-37.806.108c.188-.038.496-.038.684 0 .188.039.034.07-.342.07s-.53-.031-.342-.07zm13.673.179c-.642-.248-.727-.777-.155-.966.664-.22 1.99.042 2.014.396.046.68-.856.957-1.86.57zm-6.975.1c-.188-.039-.342-.187-.342-.329a.388.388 0 0 0-.261-.34c-.298-.094-.062-.51.378-.663.563-.196 2.429-.11 2.977.137.396.178.572.197.66.07.166-.244 1.302-.218 1.721.04.282.172.28.277-.016.555-.199.19-.494.348-.657.353-.162.006-.05.064.252.13.48.105.454.12-.221.129-.52.006-.704-.043-.57-.153.132-.11.048-.134-.258-.074-.25.049-.455.039-.455-.023 0-.155-.838-.104-1.554.094-.621.172-1.078.193-1.658.074h.004zM361.189 8.4c.09-.046.326-.051.524-.011.218.044.153.077-.166.084-.288.005-.45-.027-.358-.073zm148.885-.096c-.223-.25-.227-.418-.016-.605.163-.142.3-.18.304-.085 0 .096.216.174.47.174.403 0 .395.026-.067.205-.518.199-.516.204.083.208.339.003.616.067.616.144 0 .076-.052.139-.115.139s-.306.037-.54.083c-.283.055-.531-.034-.737-.263h.002zm-150.053.188c0-.081.123-.147.273-.147.15 0 .274.027.274.061s-.123.1-.274.147c-.15.048-.273.02-.273-.061zm127.79.125c-.088-.073.093-.133.402-.133.66 0 .727.077.162.187-.221.044-.474.019-.563-.054zm-38.6.06c.091-.045.328-.05.525-.01.218.044.153.077-.165.084-.288.006-.45-.027-.36-.073zm-9.094-.046c0-.08.123-.147.273-.147.15 0 .274.027.274.061s-.123.1-.274.147c-.15.048-.273.02-.273-.06zm72.715.131c0-.077.103-.14.23-.14.125 0 .37-.156.54-.347.234-.26.233-.348 0-.348-.172 0-.248-.032-.17-.072.27-.138.988.092 1.126.36.076.148.365.27.642.27.366 0 .29.057-.28.208-.891.237-2.086.276-2.086.069h-.002zm-70.454.055c.09-.046.327-.051.524-.011.218.044.153.077-.165.084-.288.006-.45-.027-.36-.073zm41.005.14c.09-.047.326-.052.523-.012.219.044.154.077-.165.084-.288.006-.45-.027-.358-.073zm35.463-.06c0-.357.692-.501 1.258-.262.39.165.385.199-.055.363-.708.264-1.202.222-1.202-.101h-.001zm-22.114.032c-.461-.439-.362-.836.25-1.003 1.124-.306 1.584.313.668.898-.603.385-.62.387-.918.105zm-31.465.196c0-.03.19-.092.424-.138.243-.047.353-.024.257.055-.16.132-.681.195-.681.083zm-12.575-.072c0-.07.246-.093.546-.053.301.04.547.097.547.126 0 .03-.246.053-.547.053-.3 0-.546-.057-.546-.126zm6.287.126c.977-.159 1.367-.159 1.367 0 0 .077-.461.133-1.025.125-.915-.012-.952-.025-.342-.125zm69.295.137c-.25-.206-.016-.311.571-.253.427.042.432.065.045.227-.307.13-.481.137-.616.026zm-18.856.005c-.096-.078.019-.142.254-.142.48 0 .55.084.172.203-.14.044-.332.016-.426-.061zm9.502.47c.09-.046.327-.051.524-.011.218.044.153.077-.165.084-.288.006-.45-.027-.359-.073zm47.286 1.857c.092-.233.51-.377 1.103-.38.404-.003.438.046.196.276-.317.301-1.41.39-1.299.104zm-1.634.647c.09-.047.326-.052.524-.012.218.045.153.078-.165.085-.289.005-.45-.027-.36-.074zm-535.248 3.06c.09-.047.327-.052.524-.011.218.044.153.077-.165.084-.288.005-.45-.027-.359-.074zm578.792 1.861c-.366-.265-.371-.335-.039-.504.463-.236 1.667-.12 1.894.182.176.233-.49.631-1.056.631-.206 0-.566-.139-.8-.309zm-581.463.309c-.36-.079-.407-.122-.137-.127.226-.004.595.053.82.127.5.164.068.164-.683 0zm553.358.603c.188-.038.496-.038.684 0 .188.039.034.07-.342.07s-.53-.031-.342-.07zm4.397.12c-.4-.024-.796-.134-.88-.244-.116-.154.102-.2.934-.2.612 0 1.085.066 1.085.153 0 .1.27.12.752.058 1.48-.19 2.856-.23 2.673-.08-.097.08-.055.146.097.146.15 0 .349-.062.44-.137.093-.076.623-.13 1.179-.119.556.011 1.302-.027 1.66-.085.459-.075.592-.059.455.054-.137.112.036.134.58.073.548-.061.663-.046.394.05-.311.111-.286.149.138.204.885.115-7.743.23-9.505.126h-.002zm-14.99 1.78c0-.174.29-.174.82 0 .332.11.293.136-.204.138-.339.001-.615-.06-.615-.137zm-537.024 0a.81.81 0 0 1 .442-.138c.15 0 .197.062.104.139a.81.81 0 0 1-.442.139c-.15 0-.197-.063-.104-.14zm-6.35 1.725c.09-.046.326-.051.524-.011.218.044.153.077-.166.084-.288.006-.45-.027-.358-.073zm2.386.092c0-.081.123-.147.273-.147.15 0 .274.027.274.061s-.123.1-.274.147c-.15.048-.273.02-.273-.061zm.502 1.706c-.25-.033-.53-.16-.622-.281-.144-.192.039-.208 1.398-.127 1.746.105 2.037.179 1.448.368-.411.132-1.408.15-2.224.04zm3.325.098c0-.078.378-.1.888-.05 1.246.12 1.286.185.114.185-.551 0-1.002-.06-1.002-.135zm553.9.387c.06-.09.254-.19.432-.22.2-.034.261.03.159.165-.191.253-.756.306-.592.055zm-7.37 2.168c.09-.046.326-.051.524-.011.218.044.153.077-.165.084-.289.006-.45-.027-.36-.073zm-545.437.077c-.293-.102-.1-.116.684-.05 1.356.116 1.574.197.524.194-.439-.002-.982-.066-1.208-.145zm-1.913.146c-.656-.107-.659-.112-.068-.125.338-.008.697-.03.797-.049.1-.02.233.043.296.14.126.192-.024.197-1.025.034zm554.11 1.252c-.334-.11-.298-.136.189-.137.33-.002.675.06.768.137.215.177-.419.177-.957 0zm-543.102.055c.091-.046.327-.051.524-.011.219.044.154.077-.165.084-.288.006-.45-.027-.359-.073zm542.214.409c.187-.039.495-.039.683 0 .188.039.034.07-.342.07s-.53-.031-.341-.07zM62.674 30.099c.091-.046.327-.05.524-.01.218.044.154.077-.165.083-.288.006-.45-.027-.359-.073zm518.772.363c0-.077.055-.14.122-.14.066 0 .196.063.29.14.093.076.038.139-.122.139s-.29-.063-.29-.14zm-5.94.194c.09-.046.327-.051.524-.011.218.044.154.077-.165.084-.288.006-.45-.027-.359-.073zm-1.514-.008c.185-.038.554-.04.82-.005.266.036.115.067-.336.07-.451.002-.669-.026-.484-.064zm7.865.23c-.093-.076.083-.138.393-.138s.563.062.563.139c0 .076-.177.139-.394.139-.216 0-.47-.063-.562-.14zm-532.105.704c0-.072.112-.166.249-.209.353-.111 1.145.066.964.215-.201.166-1.213.16-1.213-.006zm-6.213 1.02c.09-.046.327-.05.524-.01.218.044.153.077-.165.084-.288.005-.45-.027-.359-.073zm15.434 2.358c.185-.038.554-.04.82-.005.266.035.115.066-.336.07-.451.002-.669-.027-.484-.065zm-19.061.96c0-.157 3.232-.186 3.421-.03.1.082-.538.135-1.629.135-.986 0-1.793-.047-1.792-.105zm-30.544.994c.091-.046.327-.05.524-.01.218.044.154.077-.165.083-.288.006-.45-.026-.359-.073zm-2.14-.042c.084-.069.4-.093.7-.053.752.1.684.18-.153.18-.385 0-.63-.057-.547-.127zm-3.264-.013c-.677-.087-.557-.107.683-.113 1.072-.004 1.347.028.957.113-.633.139-.572.139-1.64 0zm564.435 1.168c.09-.046.327-.051.524-.01.218.044.153.076-.165.083-.288.006-.45-.027-.359-.073zm-553.503.082c-.215-.176 2.21-.27 3.242-.125.549.077.998.172.998.21 0 .11-4.103.028-4.24-.085zm13.124.559c.3-.066.731-.12.957-.12.258 0 .208.044-.137.12-.3.065-.731.12-.957.12-.258 0-.208-.045.137-.12zm5.662 1.64c-1.342-.18-.789-.421.72-.312.7.05 1.665.086 2.145.078.758-.012 1.595.227.988.283-.87.08-3.11.051-3.853-.049zm-18.246.049c-.263-.126-.4-.157-.303-.069.118.108-.136.156-.782.146-1.078-.015-1.333-.236-.273-.236.376 0 .684-.06.684-.133 0-.128 1.097-.275 2.392-.322.338-.012.615-.062.615-.11 0-.05 1.1-.086 2.443-.083 1.393.004 2.377.061 2.29.134-.09.073.117.08.495.016.701-.118.683-.118 3.11.008.901.047 2.224.081 2.938.076.714-.005 1.298.053 1.298.128 0 .076.185.102.411.057.505-.098 1.776.052 1.776.21 0 .063-2.017.112-4.483.108-3.205-.005-4.6.042-4.895.167-.288.121-1.442.167-3.825.152-2.75-.017-3.505-.065-3.89-.25zm549.062.675c0-.076.116-.139.257-.139.142 0 .333.063.426.14.092.076-.022.138-.257.138-.234 0-.426-.062-.426-.139zm-526.364.696c-.093-.077-.038-.14.121-.14.16 0 .29.063.29.14 0 .076-.055.139-.121.139s-.197-.063-.29-.14zm-1.366 0c-.528-.116-.526-.12.052-.13.33-.005.675.053.768.13.2.164-.068.164-.82 0zm-1.504.147c0-.081.123-.147.273-.147.15 0 .274.027.274.061s-.123.1-.274.147c-.15.048-.273.02-.273-.061zm-7.758-.035c.064-.053-.336-.059-.89-.013-.682.056-.946.035-.823-.066.238-.197 6.464-.23 6.464-.035 0 .078-.4.15-.888.161-2.481.057-3.968.04-3.863-.047zm15.959.16c0-.091-.36-.112-.957-.055-.627.06-.957.038-.957-.063 0-.087.468-.154 1.072-.154.589 0 1.296-.037 1.571-.081.472-.076.474-.07.027.118-.26.11-.394.24-.296.29.098.05.034.09-.141.09-.176 0-.32-.065-.32-.145h.001zm-18.042.23c0-.029.246-.085.547-.125.3-.04.478-.017.394.053-.147.121-.941.182-.941.073zm-6.014.696c0-.03.246-.086.547-.126.3-.04.478-.016.394.053-.147.121-.941.183-.941.073zm-4.92.881c0-.068.184-.087.41-.043.225.044.41.026.41-.04 0-.065.307-.128.683-.139.376-.01.683.044.683.122 0 .084.16.073.396-.026.284-.12.535-.126.888-.021.463.137.46.147-.054.165-2.697.092-3.417.089-3.417-.018zm-7.357.018a2.1 2.1 0 0 0-.82-.055c-.344.056-.358.042-.063-.065.418-.152 1.405-.064 1.405.125 0 .15-.038.15-.522-.006zm.796.128c0-.076.215-.143.478-.149.406-.008.396-.026-.068-.122-.508-.104-.499-.116.136-.167.376-.03 1.174-.012 1.774.04.599.052 1.298.038 1.553-.032.256-.07.688-.122.961-.116.292.007.103.092-.46.21l-.957.197.897-.046c.592-.03.805 0 .626.092-.364.185-2.848.157-2.973-.034-.055-.083-.22-.151-.366-.151-.147 0-.199.056-.115.124.083.069-.043.163-.28.209-.649.127-1.206.101-1.206-.055zm38.47.187c.186-.038.555-.04.82-.005.266.035.115.066-.336.07-.451.002-.669-.027-.484-.065zm-2.647 3.158c-.218-.07-.772-.099-1.23-.064-.802.062-.808.059-.157-.085.72-.16 2.635-.058 2.893.154.2.165-.99.161-1.506-.005zm-5.608-.002c-.405-.075-.238-.12.673-.182.665-.046 1.399-.021 1.63.054.325.105.283.117-.183.052-.332-.046-.824-.025-1.093.046-.269.07-.73.084-1.027.03zM24.13 49.154c.09-.046.327-.051.524-.01.218.044.153.076-.165.083-.288.006-.45-.027-.359-.073zm1.84.362c-.637-.103-.642-.112-.085-.125.33-.007.675.049.768.125.093.077.131.133.085.126l-.768-.126zM8.002 51.241c.09-.047.326-.052.524-.011.218.044.153.077-.166.084-.288.005-.45-.027-.358-.073zm.677.965c.188-.038.496-.038.684 0 .188.039.034.07-.342.07s-.53-.031-.342-.07zm-4.168 1.9c-.417-.09-.253-.121.683-.127.676-.004 1.415.053 1.64.127.53.174-1.528.174-2.323 0zm-.784 2.256c-.073-.06.104-.11.394-.11.29 0 .526.05.526.11s-.177.109-.394.109c-.216 0-.453-.05-.526-.11zm15.272.526c-.472-.104-.444-.118.205-.1.413.012.752.07.752.13 0 .134-.245.126-.957-.03zm-12.302-.139c-.48-.27-.477-.278.11-.278.334 0 .53.062.439.137-.096.08.015.103.257.055.234-.045.424-.018.424.062s.339.17.752.203c.55.042.452.063-.367.078-.809.016-1.257-.056-1.615-.257zm-3.955.273c.347-.112.348-.13.005-.132-.315-.001-.327-.037-.057-.174.27-.138.385-.136.562.01.14.115.567.16 1.15.122.51-.033.713-.033.45 0-.263.033-.479.103-.48.155 0 .052-.458.107-1.016.121-.716.02-.897-.01-.614-.102zm16.831.32c-.292-.148-2.371-.444-2.214-.314.186.153-.399.237-1.367.196-.451-.02-1.25-.044-1.777-.055-.875-.018-.902-.031-.323-.15.348-.07 1.172-.147 1.83-.168.658-.022 1.285-.085 1.394-.14.325-.166 1.131-.114 1.278.081.144.19 1.935.515 2.823.511.433-.002.45-.023.105-.137-.31-.102-.195-.135.479-.137.61-.001.888.064.888.207 0 .115-.191.209-.426.209-.261 0-.352-.068-.233-.174.154-.14.119-.14-.175 0-.4.188-1.957.237-2.282.072zm-1.457.019c.09-.047.327-.052.524-.011.218.044.153.077-.165.084-.288.005-.45-.027-.359-.073zm10.661.417c.091-.046.327-.051.524-.011.218.044.154.077-.165.084-.288.006-.45-.027-.359-.073zm-18.116.084c-.331-.11-.292-.135.205-.137.339-.002.615.06.615.137 0 .174-.29.174-.82 0zm-1.293.055c.091-.046.327-.051.524-.011.218.044.154.077-.165.084-.288.006-.45-.027-.359-.073zm9.973.131c.187-.039.495-.039.683 0 .188.039.034.07-.342.07s-.53-.031-.341-.07zm-3.959.008c.091-.046.327-.051.524-.01.218.044.154.077-.165.083-.288.006-.45-.027-.359-.073zm-13.877.086c-.095-.08.015-.102.258-.055.473.093.56.192.167.192a.775.775 0 0 1-.425-.137zm13.53.541c0-.11 4.121-.022 4.35.094.079.04-.867.058-2.103.04-1.236-.019-2.247-.079-2.247-.134zm-3.622.06c.188-.038.495-.038.683 0 .188.04.035.07-.341.07s-.53-.03-.342-.07zM0 64.764c0-.03.246-.086.547-.126.301-.04.478-.016.394.053-.147.122-.941.183-.941.073zm1.093 2.28c-.563-.093-.587-.114-.136-.124.3-.007.73.049.956.123.48.158.147.158-.82 0zm3.828 2.78c0-.076.276-.137.615-.136.497.002.536.028.205.137-.53.174-.82.174-.82 0zm8.001 1.586c.09-.046.327-.051.524-.011.218.044.153.077-.165.084-.288.006-.45-.027-.359-.073zm514.945 3.84c0-.077.123-.14.273-.14.15 0 .274.063.274.14 0 .076-.123.139-.274.139-.15 0-.273-.063-.273-.14zm23.92.973a.807.807 0 0 1 .442-.139c.15 0 .197.063.105.14a.811.811 0 0 1-.443.138c-.15 0-.197-.062-.105-.139zm-246.849.696c-.344-.076-.395-.12-.137-.12.226 0 .656.054.957.12.345.075.395.12.137.12-.226 0-.656-.055-.957-.12zM215.19 4.078c-.197-.041-.433-.036-.524.01-.09.046.07.08.36.073.317-.006.382-.04.164-.084zm.979.79c-.394-.321-1.03-.371-1.03-.081 0 .197.384.327 1.027.348.276.009.276-.044.005-.267h-.002zm.747.695a.778.778 0 0 0-.426-.139c-.142 0-.258.063-.258.14 0 .076.192.138.427.138.234 0 .35-.062.257-.139zm-1.23-.086c0-.194-.07-.2-.479-.04-.263.103-.53.204-.592.226-.063.022.153.04.478.04.364 0 .593-.088.593-.226zm67.384.503c.093-.076.046-.139-.104-.139a.81.81 0 0 0-.443.14c-.092.076-.046.139.105.139.15 0 .35-.063.442-.14zm-30.617 0c.093-.076-.091-.139-.41-.139-.318 0-.503.063-.41.14.093.076.278.139.41.139a.748.748 0 0 0 .41-.14zm-8.064 0c0-.076-.123-.139-.273-.139-.15 0-.274.063-.274.14 0 .076.123.139.274.139.15 0 .273-.063.273-.14zm-20.092 0a.81.81 0 0 0-.443-.139c-.15 0-.197.063-.104.14.093.076.292.139.442.139.15 0 .198-.063.105-.14zm-7.518.07c-.187-.115-.479-.207-.648-.204-.17.002-.07.096.222.208.682.263.858.261.426-.004zm31.984.209c0-.077-.123-.14-.274-.14-.15 0-.273.063-.273.14 0 .076.123.139.273.139.15 0 .274-.063.274-.14zM234 6.245c.314-.113.227-.127-.368-.061-.468.052-.958.015-1.23-.093-.404-.16-.412-.154-.077.063.424.275 1.069.31 1.675.091zm3.332.197c-.198-.04-.433-.035-.524.01-.091.047.07.08.359.074.318-.007.383-.04.165-.084zm13.89.234c0-.076-.123-.14-.273-.14-.15 0-.274.064-.274.14 0 .077.123.14.274.14.15 0 .273-.064.273-.14zm-7.927-.078c0-.033-.123-.061-.274-.061-.15 0-.273.066-.273.147 0 .081.123.109.273.062.15-.048.274-.114.274-.148zm-11.345.078c.093-.076.11-.14.039-.14-.072 0-.327-.037-.566-.084-.32-.062-.39-.025-.267.139a.545.545 0 0 0 .794.085zm-11.726-.101c-.091-.047-.156.036-.144.182.013.162.078.195.165.084.08-.1.07-.22-.022-.266zm-7.41.518a.81.81 0 0 0-.442-.139c-.15 0-.197.063-.104.14a.81.81 0 0 0 .442.138c.15 0 .197-.062.104-.139zm-1.777 0c0-.076-.13-.139-.289-.139-.16 0-.213.063-.12.14.092.076.223.138.289.138.066 0 .12-.062.12-.139zm63.323.07c-.225-.115-.495-.209-.6-.209-.104 0-.036.094.151.209.188.115.457.209.6.209.143 0 .075-.094-.15-.21zm-1.542.031c0-.072-.177-.096-.393-.054-.215.042-.433.014-.483-.062-.052-.08-.323-.094-.633-.034-.503.099-.492.112.142.191.974.121 1.367.11 1.367-.04zm-12.198-.176c.08-.107.029-.23-.116-.276-.403-.127-.309-.344.149-.344.226 0 .41-.052.41-.116 0-.248-.342-.269-.843-.05-.637.277-.752 1.175-.135 1.055.214-.042.455-.163.535-.27zm-6.155-.03c-.043-.21.016-.46.132-.555.116-.096.14-.232.054-.303-.086-.071.122-.16.463-.195.34-.037.127-.057-.475-.045-.946.018-1.09.063-1.072.334.013.172-.11.315-.273.318-.162.002-.018.122.32.265.338.144.615.33.615.413 0 .083.07.152.157.152s.122-.173.079-.383zm-3.38.244c.093-.076.046-.139-.104-.139a.81.81 0 0 0-.442.14c-.093.076-.046.138.104.138a.81.81 0 0 0 .442-.139zm37.394-.139c-.079-.153-.252-.278-.385-.278-.33 0-.305.242.037.35.153.047.195.155.094.238-.103.085-.057.11.107.06.16-.05.226-.217.147-.37zm-37.206.6c-.197-.04-.433-.034-.524.012-.09.046.07.079.36.073.318-.007.382-.04.164-.084zm-4.973-.67c-.147-.09-.186-.205-.087-.255.099-.05.036-.092-.14-.092-.175 0-.318.087-.318.193 0 .118-.376.216-.957.25-.679.041-.957.003-.957-.131 0-.104-.111-.154-.247-.111-.143.044-.114.223.068.419.24.26.463.323.93.263.36-.046.616-.015.616.075 0 .084.306.018.679-.147.47-.208.597-.351.412-.464zm12.166.766c.093-.077.048-.14-.1-.14a.435.435 0 0 1-.372-.243c-.07-.168-.15-.125-.255.14-.154.382.353.551.727.243zm-1.503-.014c0-.069-.154-.126-.342-.127-.22-.002-.241-.039-.06-.105.345-.124.363-.867.022-.867-.134 0-.393-.104-.576-.231-.208-.145-.511-.196-.812-.138-.392.077-.418.133-.143.301.185.114.264.207.174.207-.09 0-.05.15.087.335.215.289.158.346-.417.42-1.141.146-.733.342.7.337.752-.003 1.367-.062 1.367-.132zm-16.332.061c-.222-.046-.258-.15-.104-.302.13-.127.202-.342.16-.475-.043-.134.05-.244.205-.244.169 0 .146-.084-.058-.208-.277-.17-.262-.21.08-.21.232 0 .473.08.536.175.09.135.216.131.57-.018.285-.12.763-.16 1.275-.107.965.098 1.007.042.273-.36-.3-.164-.547-.224-.547-.133s-.192.166-.426.166c-.234 0-.36-.055-.279-.121.305-.252-2.16-.097-2.578.16-.525.326-1.36.19-1.165-.187.165-.321-.102-.336-1.33-.072l-.92.198.77.15c.424.082.892.15 1.042.15.149 0 .213.048.143.106-.229.188.519.568 1.067.544.64-.029.92.575.351.758-.245.079-.094.115.455.109.45-.005.667-.04.48-.079zm-29.047-.047c0-.077-.13-.14-.29-.14-.159 0-.213.063-.12.14.093.076.223.139.29.139.066 0 .12-.063.12-.14zm36.596.15c.283-.009.3-.057.07-.198-.37-.227-.134-.37.612-.37.432 0 .483-.036.228-.166-.18-.092-.328-.273-.328-.401 0-.13-.259-.269-.575-.311-.49-.065-.556-.026-.448.262.07.186.006.338-.14.338-.147 0-.201.13-.12.287.09.176-.006.316-.242.363-.554.108-.483.309.09.253.263-.026.647-.052.853-.057zm-1.605-.089c0-.034-.123-.061-.274-.061-.15 0-.273.066-.273.147 0 .081.123.109.273.061.15-.047.274-.113.274-.147zm-12.245.09c.697-.082 1.057-.07 1.154.039.078.087.114.001.08-.19-.044-.248.153-.417.69-.59.945-.302.987-.558.073-.441-.375.047-1.233.097-1.907.11-1.428.027-2.046.246-1.552.55.177.108.245.298.15.423-.193.257-.09.265 1.312.1zm-9.624-.077c0-.125.16-.173.41-.124.572.111 1.835-.068 1.635-.232-.09-.075-.005-.14.194-.146.275-.009.279-.028.016-.082-.688-.14-.352-.445.478-.433.744.01 1.235.247.514.247-.212 0-.202.065.033.21.187.114.495.208.684.208.188 0 .496-.094.683-.209.279-.17.26-.209-.103-.209-.244 0-.444-.093-.444-.208 0-.115.093-.209.205-.209.37 0 1.741.974 1.57 1.115-.182.15-.131.16 1.134.214.751.032.853-.004.82-.297-.029-.25-.157-.314-.517-.256-.35.057-.478 0-.478-.21 0-.158-.114-.288-.254-.288s-.45-.1-.689-.221a2.911 2.911 0 0 0-.908-.26c-.289-.022-.443-.139-.397-.3.065-.229.04-.233-.199-.037-.177.146-.513.201-.959.158-.377-.037-.903-.018-1.168.041-.61.137-.796.163-1.303.185-.226.01-.41.083-.41.164s.102.115.227.076c.126-.04.228.017.228.125s-.158.227-.35.265c-.22.043-.294-.008-.199-.133.1-.132-.024-.201-.355-.2-.791.004-1.296.218-1.026.435.25.2.293.274.347.606.044.27.58.274.58.005zm54.55.077c-.314-.259-.654-.166-.499.136.097.188.241.24.416.151.147-.074.185-.204.084-.287zm-38.422.266c0-.076-.123-.139-.273-.139-.15 0-.274.063-.274.14 0 .076.124.138.274.138.15 0 .273-.062.273-.139zm-27.336.008c0-.072-.103-.163-.228-.202-.125-.04-.228.02-.228.13 0 .112.103.203.228.203s.228-.059.228-.13zm46.745.131c0-.076-.123-.139-.273-.139-.15 0-.274.063-.274.14 0 .076.123.138.274.138.15 0 .273-.062.273-.139zm-16.053-.13c.161-.315.005-.427-.6-.424-.346.002-.359.026-.061.122.258.083.279.148.068.214-.424.134-.377.357.076.357.208 0 .44-.121.517-.27zm29.758.109c.57-.335.614-.396.278-.396-.385 0-1.411.509-1.22.605.273.14.392.113.942-.209zm-21.031-.225c.484-.507.248-1.33-.328-1.143-.226.073-.287.135-.137.137.156.003.142.049-.031.107-.417.14-.757.728-.421.728.147 0 .234.155.193.344-.09.418.233.34.724-.173zm86.38.569c-.198-.04-.433-.036-.524.01-.091.047.07.08.359.074.318-.007.383-.04.165-.084zm-93.342-.002a3.043 3.043 0 0 0-.82.005c-.186.038.032.067.483.064.451-.003.603-.034.337-.07v.001zm5.031.111c-.314-.101-.314-.13 0-.187.205-.037.298-.109.207-.16-.091-.05-.371-.051-.622-.002-.354.069-.386.132-.142.281.172.106.452.192.622.19.18-.001.154-.051-.065-.122zm-18.558-.05a.54.54 0 0 1-.068-.251c0-.081-.125-.108-.278-.06-.153.048-.207.146-.12.217.086.071.026.13-.133.13-.16 0-.29-.063-.29-.14 0-.076-.303-.139-.674-.139-.456 0-.629.062-.533.189.148.196 2.224.25 2.096.055zm8.953.097c0-.034-.123-.062-.273-.062-.15 0-.274.067-.274.148 0 .08.123.108.274.061.15-.047.273-.114.273-.147zm-2.005-.141c0-.11-.102-.199-.228-.199-.125 0-.227-.118-.227-.263 0-.145-.185-.3-.41-.343-.473-.093-.56.125-.108.268.216.068.208.125-.03.2-.516.161-.076.679.511.6.27-.035.492-.154.492-.263zm211.453.402c-.197-.04-.433-.036-.524.01-.09.047.072.08.36.074.318-.007.383-.04.164-.084zM268.825 8.96c.299-.396.157-.55-.253-.275-.22.149-.401.32-.401.383 0 .199.482.12.654-.108zm-48.317-.616c-.118-.38-.074-.408.534-.33.562.072.634.045.472-.174-.166-.225-.133-.235.254-.075.503.208.346.58-.245.58-.267 0-.358.121-.29.383.073.284.27.393.76.421.577.034.6.02.184-.111-.512-.16-.658-.553-.205-.553.15 0 .273.067.273.148 0 .088.254.112.616.06.364-.052.481-.04.287.03-.54.194-.006.416.738.307.375-.055.54-.106.366-.114-.343-.015-.343-.256 0-.535.136-.112.06-.174-.213-.174-.235 0-.426.062-.426.139 0 .235-.387.146-.888-.204-.433-.303-.438-.354-.048-.552.248-.126.298-.218.119-.218-.17 0-.233-.062-.14-.139.111-.092-.073-.092-.549 0-.926.18-.955.178-.955-.07 0-.114-.123-.208-.273-.208-.15 0-.273.081-.273.18 0 .127-.45.18-1.504.176-1.066-.002-1.503-.058-1.503-.19 0-.122.186-.155.546-.097.314.051.547.025.547-.06 0-.081-.239-.148-.53-.148-.704 0-.974-.24-.362-.321.294-.04.183-.07-.286-.08-.484-.01-.7.039-.586.133.201.165-.55.575-1.334.727-.724.14-.396.448.459.43.399-.008.726.001.726.02 0 .02-.43.166-.957.324-1.063.32-1.246.575-.41.575.375 0 .547-.093.547-.295 0-.25.064-.268.422-.117.232.098.365.255.294.349-.085.112.057.146.413.098.326-.043.483-.15.394-.267-.08-.108.042-.233.274-.278.231-.045.354-.17.273-.278-.204-.271.37-.35 1.347-.186.8.135.802.137.068.089-.952-.063-.969.095-.033.311.395.092.64.208.542.257-.097.05-.308.023-.468-.059-.333-.169-1.34-.076-1.34.123 0 .073.23.096.509.05.293-.047.654.008.853.13.281.172.275.213-.03.216-.25.003-.197.074.16.21.472.182.56.182.767-.006.128-.117.175-.399.105-.627zm41.375.767c0-.115-.13-.209-.29-.209-.158 0-.218.058-.133.129.086.07-.06.157-.325.192-.367.049-.335.068.133.08.379.01.615-.064.615-.192zm-23.108.118c-.542-.201-.993-.19-1.135.03-.047.071.306.137.783.146.802.015.828.002.352-.176zm-18.375.137a2.034 2.034 0 0 0-.683 0c-.188.039-.034.07.342.07.375 0 .53-.031.341-.07zm-1.435-.038c0-.072-.103-.164-.228-.203-.125-.04-.228.02-.228.13 0 .112.103.203.228.203s.228-.058.228-.13zm266.12.13c-.092-.076-.223-.139-.289-.139-.066 0-.121.063-.121.14 0 .076.13.139.29.139.16 0 .213-.063.12-.14zM180 9.467c.088-.072-.09-.121-.394-.11-.303.012-.552.07-.552.131 0 .154.754.137.946-.021zm303.633.175c-.197-.04-.433-.036-.524.01-.09.047.071.08.36.074.318-.007.382-.04.164-.084zm-7.705-.044c0-.077-.216-.139-.479-.137-.408.002-.418.021-.067.137.515.17.546.17.546 0zm-4.1.085c0-.029-.247-.086-.548-.126-.3-.04-.478-.016-.394.054.147.12.941.182.941.072zm-4.814-.166c.228-.303.213-.337-.153-.337-.176 0-.238.041-.14.092.1.05.043.175-.124.278-.19.117-.2.187-.027.187a.63.63 0 0 0 .444-.22zm-22.796.08c0-.076-.131-.139-.29-.139-.16 0-.214.063-.121.14.094.076.223.139.29.139.066 0 .12-.063.12-.14zm-194.363-.054c0-.107-.184-.23-.41-.274-.279-.054-.41.007-.41.194 0 .15.185.274.41.274.226 0 .41-.088.41-.194zm8.611.194c-.093-.077-.223-.14-.29-.14-.065 0-.12.063-.12.14 0 .076.13.139.29.139.159 0 .213-.063.12-.14zm-7.096-.13c-.099-.082-.388-.147-.642-.144-.406.003-.398.03.064.207.562.216.876.182.578-.063zm-2.74-.14c-.1-.16-.287-.258-.416-.217a.48.48 0 0 1-.401-.063c-.092-.076.17-.18.58-.233.724-.092.728-.1.148-.208-.33-.062-.6-.209-.6-.326 0-.236-.15-.248-.956-.08-.502.106-.508.123-.068.214.55.115.643.57.136.673-.204.042-.149.075.137.081.263.006.479.074.479.15 0 .077.184.14.41.14.225 0 .41.073.41.162 0 .09.072.125.161.08.09-.045.08-.213-.02-.373zm240.259.464c.588-.115.266-.336-.47-.322-.33.006-.445.042-.256.081.188.039.273.128.188.198-.18.148-.055.158.538.043zm-254.846-.138c.504-.159-.346-.613-1.146-.613-.85 0-1.102.23-.402.367.225.044.335.14.246.214-.09.073-.331.1-.537.06-.205-.04-.458-.003-.56.082-.133.11.157.126.99.058.647-.052 1.282-.128 1.41-.168zm-4.28-.613c-.093-.076-.039-.139.12-.139.16 0 .29.063.29.14 0 .076-.054.138-.12.138-.067 0-.197-.062-.29-.139zm.465.728c-.278-.047-.257-.137.095-.41.38-.294.392-.38.08-.538-.422-.215-1.688-.107-1.412.12.11.092.008.114-.27.06a1.08 1.08 0 0 0-.82.184c-.544.396-.783.168-.31-.297.356-.35.355-.386-.01-.315-.227.044-.35.132-.273.195.077.063-.097.152-.386.2-.29.046-.6.182-.69.303-.114.15-.045.195.224.142.214-.041.817.035 1.338.17a8.984 8.984 0 0 0 1.869.247c.506 0 .76-.028.565-.06zm-3.199-.032c.214-.176-.148-.176-.683 0-.353.116-.346.135.052.137.254.001.539-.06.631-.137zm-1.32-.377c0-.221-.513-.234-.928-.023-.227.115-.226.2.005.325.351.191.924.004.924-.302h-.002zm27.982.418c.361.048.489-.006.46-.196-.02-.144-.166-.264-.322-.265-.156-.001-.099-.062.127-.137.364-.12.364-.135 0-.139-.352-.003-.355-.022-.018-.13.325-.105.331-.164.035-.346a1.783 1.783 0 0 0-.789-.22c-.335 0-.358.038-.103.168.412.21.43.438.025.31-.203-.064-.242.002-.118.2.124.2.067.297-.176.299-.267.001-.254.04.05.15.32.115.246.134-.342.086-.83-.067-.818-.072-.587.234.129.171.28.186.711.069.301-.082.772-.12 1.047-.083zm-15.044.098c0-.077-.191-.14-.426-.14-.234 0-.35.063-.257.14.093.076.285.139.426.139.142 0 .257-.063.257-.14zm12.848.139c0-.077-.184-.14-.41-.14-.225 0-.41.063-.41.14 0 .076.185.139.41.139.226 0 .41-.063.41-.14zm-2.126.061c-.336-.12-.76-.169-.947-.11-.23.072-.12.137.343.203 1.11.157 1.246.136.604-.093zm-68.128.03c0-.102.307-.257.683-.344.674-.156.982-.72.394-.72-.16 0-.202.071-.094.16.117.097.075.123-.108.065-.167-.052-.617-.055-1-.006-.694.088-.871.36-.53.812.203.268.655.291.655.034zm243.619.231c-.197-.04-.433-.035-.524.011-.091.046.07.08.359.073.318-.006.383-.04.165-.084zm-167.414-.183a1.412 1.412 0 0 0-.754-.28c-.366-.003-.367-.02-.005-.152.33-.12.29-.135-.2-.08-.519.057-.57.03-.347-.183.217-.207.174-.24-.246-.183-.334.044-.465.155-.38.321.071.14-.035.282-.237.318-.202.035-.025.042.392.015.505-.032.914.043 1.223.227.602.358.992.356.552-.003h.002zm-7.522.325a2.034 2.034 0 0 0-.684 0c-.188.039-.034.07.342.07s.53-.031.342-.07zm-4.526-.414c-.096-.049-.108-.144-.027-.21.175-.145.657-.02.657.168 0 .15-.37.174-.63.042zm-.289.298c-.176-.234-.13-.245.485-.125.237.046.364.14.282.207-.082.068.04.086.273.04.233-.045.362-.132.287-.193-.074-.062.103-.08.393-.042.883.118.368-.473-.555-.636-1.005-.179-1.031-.324-.04-.224.739.074.74.073.087-.072a3.631 3.631 0 0 0-1.405-.016c-.5.089-.839.082-1.04-.02-.354-.18-.496-.127-.624.237-.067.191.103.293.59.354.592.074.617.098.187.182-.518.101-.393.379.17.375.196-.002.162-.056-.084-.137-.35-.115-.34-.135.068-.137.263-.001.479.092.479.207 0 .114.136.208.302.208.167 0 .232-.094.145-.208zm-4.181-.008c-.128-.17-.023-.198.487-.133.478.06.745.003 1.011-.217.224-.184.243-.26.05-.2a.38.38 0 0 1-.462-.194c-.083-.16-.228-.29-.323-.29-.345.004-.804.21-.762.342.023.074-.266.214-.642.31-.525.136-.568.177-.188.179.272.001.425.059.34.129-.129.106.014.173.592.279.033.006-.015-.086-.103-.205zm-59.363.12c-.197-.04-.433-.034-.524.012-.09.046.071.08.36.073.318-.007.382-.04.164-.084zm73.482.1c.263-.085.312-.175.137-.256-.165-.075-.46-.022-.75.134-.515.277-.117.356.613.122zm-7.105-.146c0-.06-.246-.077-.547-.037-.3.04-.547.122-.547.182s.246.077.547.037c.3-.04.547-.122.547-.182zm-65.186.152c-.269-.222-.701-.041-.51.212.105.14.254.167.429.078.147-.075.184-.206.081-.29zm-4.796.272c0-.074-.184-.098-.41-.054-.225.044-.41.104-.41.135 0 .03.185.054.41.054.226 0 .41-.06.41-.135zm-1.64-.004c-.332-.109-.295-.135.197-.137.404-.001.558-.066.46-.195-.089-.118-.368-.164-.72-.117-.453.06-.539.028-.402-.154.231-.306.038-.292-.628.047-.301.153-.415.278-.254.278.16 0 .477.094.703.209.225.115.555.207.732.206.189-.001.153-.058-.088-.137zm78.182.225c0-.03-.362-.081-.805-.114-.443-.033-.744-.009-.668.054.136.111 1.473.166 1.473.06zm-74.628-.094c0-.08-.123-.108-.273-.061-.15.047-.274.113-.274.147 0 .034.123.062.274.062.15 0 .273-.067.273-.148zm-13.316-.13c-.078-.154-.24-.279-.359-.279-.118 0-.151.125-.072.278.078.153.24.279.358.279.12 0 .152-.126.073-.279zm7.849.905c0-.037-.21-.192-.466-.345-.312-.185-.529-.225-.655-.121-.104.085-.57.162-1.037.17-.838.016-1.022.09-.667.271.208.106 2.825.129 2.825.025zm388.229.39c-.198-.04-.433-.035-.524.011-.09.047.07.08.359.073.318-.006.383-.04.165-.084zm-4.084 2.368a2.035 2.035 0 0 0-.683 0c-.188.038-.034.07.342.07.375 0 .53-.032.341-.07zm17.205 3.335c-.197-.04-.433-.035-.524.011-.09.046.071.08.359.073.318-.006.383-.04.165-.084zm4.374 5.564c-.197-.04-.433-.036-.524.01-.09.047.071.08.359.074.318-.007.383-.04.165-.084zm-1.093 0c-.198-.04-.434-.036-.524.01-.09.047.07.08.358.074.319-.007.384-.04.166-.084zm-4.648 0c-.197-.04-.433-.036-.524.01-.09.047.071.08.36.074.318-.007.382-.04.164-.084zm5.741.278c-.197-.04-.433-.035-.524.01-.09.047.071.08.359.074.318-.007.383-.04.165-.084zM46.199 28.792c0-.076-.123-.139-.274-.139-.15 0-.273.063-.273.14 0 .076.123.138.273.138.15 0 .274-.062.274-.139zm531.694 7.648c.225-.014-.07-.083-.656-.153-1.097-.131-1.426-.096-1.16.123.137.113.41.117 1.816.03zm1.816.21c.364-.185.347-.208-.157-.208-.321 0-.566.09-.566.209 0 .115.07.209.157.209.085 0 .34-.094.566-.21zm-8.872.393c-.198-.04-.434-.036-.524.01-.09.047.07.08.358.074.319-.007.384-.04.166-.084zm-536.891.187c-.41-.093-.704-.093-.887 0-.182.093.022.14.613.14.818 0 .84-.011.274-.14zm-4.817-.027c-.291-.112-.653-.204-.804-.204-.15 0-.034.092.258.204.292.112.653.204.804.204.15 0 .034-.092-.258-.204zm-4.731.112c-.489-.03-1.288-.03-1.777 0-.489.031-.089.056.888.056.978 0 1.377-.025.889-.056zm2.392.016c0-.03-.254-.054-.563-.054-.31 0-.49.06-.401.133.145.12.964.053.964-.079zm22.069.962a3.043 3.043 0 0 0-.82.005c-.185.038.032.067.483.064.451-.002.603-.034.337-.069zm510.223 1.531c-.197-.04-.433-.035-.524.011-.09.047.071.08.359.074.318-.007.383-.04.165-.085zm-507.416.663c.574-.017.611-.041.232-.154-.502-.149-3.026-.02-2.826.145.07.058.528.087 1.019.067.49-.021 1.199-.047 1.575-.058zm517.48.769c0-.132-.82-.199-.965-.079-.089.074.092.133.401.133.31 0 .563-.024.563-.054zm-1.368.193c0-.076-.184-.139-.41-.139-.225 0-.41.063-.41.14 0 .076.185.139.41.139.226 0 .41-.063.41-.14zm-518.846.549c0-.081-.123-.109-.273-.062-.15.048-.273.114-.273.148 0 .033.122.06.273.06.15 0 .273-.065.273-.146zm-2.021-.233c-.091-.046-.156.036-.144.183.013.162.078.195.165.084.08-.1.07-.22-.022-.267zm517.655.566a2.034 2.034 0 0 0-.683 0c-.188.039-.034.07.342.07.375 0 .53-.031.341-.07zm-526.842.231c0-.076-.215-.138-.478-.137-.409.003-.419.022-.068.137.516.17.546.17.546 0zm-5.125.047a2.034 2.034 0 0 0-.684 0c-.188.039-.034.07.342.07s.53-.031.342-.07zm16.385.276c-.198-.04-.434-.036-.524.01-.091.047.07.08.358.074.319-.007.384-.04.166-.084zm-3.81.002a2.034 2.034 0 0 0-.684 0c-.188.039-.034.07.342.07s.53-.031.342-.07zm-2.94-.047c-.092-.077-.359-.14-.591-.14-.249 0-.363-.079-.278-.192.101-.134-.011-.172-.37-.124-.422.056-.452.102-.166.247.193.099.588.21.878.247.29.038.566.076.612.085.047.009.008-.047-.084-.123zm549.122.186a2.035 2.035 0 0 0-.683 0c-.188.039-.035.07.341.07s.53-.031.342-.07zm-564.566.092c-.977-.16-1.367-.16-1.367 0 0 .077.461.133 1.025.125.915-.012.952-.026.342-.125zm8.74.066c-.25-.154-2.18-.107-2.179.054 0 .049.546.09 1.213.092.836.003 1.136-.043.967-.146zm14.171.082c.068-.104-.034-.157-.24-.122-.196.034-.412.143-.477.244-.069.104.034.156.239.121.197-.033.412-.143.478-.243zm-1.162.117c.07-.059-.02-.153-.201-.21-.182-.057-.379-.03-.437.06-.06.09-.359.163-.665.163-.465 0-.5-.035-.217-.208.291-.18.208-.207-.582-.198-.507.007-.768.043-.58.081.539.11.4.3-.273.37-.339.036.159.061 1.105.057.946-.004 1.778-.057 1.85-.115zm-16.38-.056c-.455-.232-1.126-.254-1.952-.063-.396.091-.273.104.447.047.588-.047 1.069-.017 1.178.073a.842.842 0 0 0 .46.151c.153 0 .093-.094-.133-.208zm12.062.155c-.26-.1-.394-.224-.296-.273.098-.05.034-.09-.141-.09-.344 0-.435.31-.137.463.1.05.377.09.615.088.375-.003.37-.029-.041-.188zm-2.242-.317c-.516-.09-1.53-.134-2.254-.095-1.522.08-2.703.145-3.094.17-.15.01-.273.067-.273.128s.48.108 1.066.105c.586-.004.998-.064.914-.133-.087-.072.275-.091.842-.044.547.045 1.067.022 1.155-.05.089-.073.277-.096.42-.051.142.045.188.14.101.21-.086.072-.034.13.117.13a.81.81 0 0 0 .442-.139c.275-.226.68-.158.498.084-.146.194-.094.199.418.036.571-.181.563-.19-.352-.35zm-2.341.37c-.535-.176-.897-.176-.684 0 .093.077.377.138.632.137.398-.002.405-.02.052-.137zm-8.423.044c-.198-.04-.433-.035-.524.011-.09.047.07.08.359.073.318-.006.383-.04.165-.084zm-9.568 0c-.197-.04-.433-.035-.524.011-.09.047.07.08.359.073.318-.006.383-.04.165-.084zm3.827.14c-.197-.04-.433-.036-.524.01-.09.047.07.08.359.074.318-.007.383-.04.165-.084zm.496 2.103c0-.034-.123-.061-.274-.061-.15 0-.273.066-.273.147 0 .081.123.109.273.061.15-.047.274-.113.274-.147zm557.663 1.052c0-.077-.122-.14-.273-.14-.15 0-.273.063-.273.14 0 .076.122.139.273.139.15 0 .273-.063.273-.14zM43.516 50.117c-.197-.04-.433-.035-.524.01-.09.047.07.08.36.074.318-.007.382-.04.164-.084zm532.463.234c0-.077-.215-.138-.478-.137-.409.002-.419.022-.068.137.516.17.547.17.547 0zm-.82.25c0-.142-1.125-.14-1.568.003-.2.064.05.109.615.109.524 0 .953-.05.953-.112zm-549.138.211c-.197-.04-.433-.035-.524.011-.09.046.07.08.359.073.318-.006.383-.04.165-.084zm547.225.18c0-.03-.185-.091-.41-.135-.226-.044-.41-.02-.41.055 0 .074.184.134.41.134.225 0 .41-.024.41-.054zm-553.154-.085c.095-.077-.11-.138-.462-.137-.508.002-.551.029-.221.137.509.168.48.168.683 0zm554.147.235c.26.051.327.004.21-.15-.235-.312-.581-.28-.954.09-.251.248-.247.279.025.15.187-.09.51-.13.72-.09h-.001zM18.198 53.277c-.481-.087-1.796-.035-1.796.072 0 .024.523.04 1.162.035.774-.007.985-.043.634-.107zm-3.71.412c.226-.074.287-.135.137-.135-.15 0-.458.06-.683.135-.226.074-.287.135-.137.135.15 0 .458-.06.683-.135zm18.042 2.643c0-.077-.123-.14-.273-.14-.15 0-.273.063-.273.14 0 .076.123.139.273.139.15 0 .273-.063.273-.14zm-6.834 3.956c0-.034-.191-.062-.426-.062-.234 0-.349.064-.254.142.156.128.68.067.68-.08zm10.617.982c-.075-.038-.465-.083-.866-.1-.401-.017-.73-.08-.73-.14 0-.06-.102-.108-.227-.108-.126 0-.228.094-.228.209 0 .15.303.208 1.093.208.602 0 1.032-.031.958-.069zm-3.92.208c-.092-.076-.338-.139-.546-.139-.208 0-.454.063-.547.14-.096.078.14.138.547.138.407 0 .643-.06.547-.139zm-7.107.696c.101-.083-.196-.134-.735-.125-.85.013-.864.02-.222.125.376.061.707.117.736.125.029.007.128-.049.221-.125zm-3.554.695c-.092-.076-.223-.139-.289-.139-.066 0-.12.063-.12.14 0 .076.13.138.289.138.16 0 .213-.062.12-.139zm1.64.14c-.092-.077-.223-.14-.289-.14-.066 0-.12.063-.12.14 0 .076.13.138.289.138.16 0 .214-.062.12-.139zm-14.796 3.17c-.187-.155-.922-.139-.922.02 0 .072.238.121.528.11.29-.011.468-.07.394-.13zm.223.35c-.197-.04-.433-.034-.524.012-.09.046.07.079.359.073.318-.007.383-.04.165-.084zm-1.965.366c0-.081-.123-.109-.273-.062-.15.048-.274.114-.274.148 0 .033.123.061.274.061.15 0 .273-.066.273-.147zm6.339.747c-.198-.04-.433-.035-.524.011-.091.047.07.08.359.073.318-.006.383-.04.165-.084zm-1.145-.044c0-.076-.253-.139-.563-.139-.31 0-.487.063-.394.14.093.076.346.138.563.138.217 0 .394-.062.394-.139zm-2.87.696c-.093-.077-.346-.14-.563-.14-.217 0-.394.063-.394.14 0 .076.253.139.563.139.31 0 .487-.063.394-.14zm1.64.695c-.093-.076-.339-.139-.547-.139-.208 0-.454.063-.547.14-.096.079.14.138.547.138.408 0 .643-.06.547-.139zm368.227 9.872c.112-.092-.367-.134-1.357-.118-1.234.021-1.65-.032-2.157-.274-.604-.289-1.168-.41-.907-.195.07.057-.407.092-1.058.078-.69-.015-1.308.05-1.478.153-.223.137-.628.148-1.727.044a60.94 60.94 0 0 0-3.297-.23c-.121-.006-.145-.073-.052-.15.093-.076-.136-.198-.51-.27-.893-.173-1.822-.584-1.647-.728.077-.063-.06-.114-.303-.114-.244 0-.367.062-.274.139.093.076-.016.139-.241.139-.226 0-.63.188-.896.417-.505.435-1.46.571-1.46.208 0-.215-.07-.207-1.571.189-.345.09-.616.104-.616.03 0-.144-1.964-.027-2.186.13-.184.13-1.094.12-1.094-.012 0-.057.154-.136.342-.175.204-.042.149-.074-.137-.08-.263-.006-.478.047-.478.118 0 .283-1.507.216-2.131-.095-.383-.19-.97-.314-1.504-.316-.482-.002-1.397-.123-2.033-.27-1.01-.233-1.209-.242-1.553-.067-.217.11-.534.201-.704.201-.17 0-.233.063-.14.14.098.08-.155.137-.599.136-.596-.002-.676-.032-.357-.137.424-.14.214-.19-.615-.146-.264.013-.479-.067-.479-.178 0-.208-.557-.371-1.268-.371-.223 0-.347.047-.277.104.07.057-.913.082-2.183.055-1.998-.043-2.372-.014-2.776.215-.487.276-1.697.4-1.697.173 0-.22-.528-.144-1.02.148-.257.153-.656.277-.886.276-.363-.002-.365-.019-.014-.131.344-.111.334-.143-.069-.222-.259-.05-.47-.173-.47-.272 0-.099-.462-.302-1.025-.45-.985-.26-1.051-.261-1.709-.025-.376.136-1.36.286-2.187.335-1.081.063-1.388.047-1.094-.057.351-.124.339-.145-.086-.147-.56-.003-1.604.25-1.861.45-.094.074-.442.09-.773.037-.33-.054-.538-.13-.46-.17.375-.19-.848-.574-1.74-.546-.527.017-1.312-.057-1.746-.163-.642-.157-.908-.16-1.43-.019a2.42 2.42 0 0 1-1.243.039c-.468-.107-.715-.078-1.124.13-.331.169-.767.243-1.181.203-.361-.035-.657-.01-.657.056 0 .19-.398.14-.984-.124-.639-.287-1.203-.369-1.203-.173 0 .076-.18.139-.401.139-.221 0-.343.078-.27.174.08.107-.126.18-.538.193-.368.01-.728-.06-.8-.155-.084-.11-.538-.16-1.228-.135-.746.027-1.142-.023-1.243-.156-.113-.151-.312-.165-.864-.058-.393.076-.86.092-1.034.034-.176-.057-.934-.106-1.686-.108-.752-.003-1.647-.055-1.989-.116-.433-.078-.599-.06-.547.055.176.39-.64.266-.918-.14-.216-.315-.517-.458-1.083-.516-.432-.044-.718-.135-.636-.202.081-.067-.044-.122-.278-.122-.235 0-.426-.05-.426-.109 0-.06-.596-.122-1.324-.138-1.17-.026-1.36.01-1.631.314-.341.38-1.514.598-2.038.378-.49-.206-1.839-.047-1.656.195.103.137-.07.194-.582.194-.401 0-.658-.058-.57-.13.354-.292-2.925-.79-3.92-.595-.323.063-.298.1.123.184.49.097.486.105-.066.114-.86.015-1.483-.135-1.275-.306.115-.095.007-.115-.297-.055-.264.051-.733.002-1.051-.112-.405-.144-.675-.162-.916-.06-.188.079-.75.148-1.249.153-.499.005-1.03.057-1.18.114-.663.254-2.091.3-2.562.084-.505-.233-2.185-.268-3.249-.069-.637.12-1.98-.098-1.98-.32 0-.066-.3-.081-.668-.034a2.164 2.164 0 0 1-1.281-.206c-.338-.16-.722-.292-.853-.292-.13 0-.15-.072-.042-.16.224-.185-.312-.05-1.014.255-.286.125-1.337.208-3.007.237-1.411.025-3.17.12-3.91.21-1.066.131-1.388.13-1.557-.01-.117-.097-.298-.133-.4-.08-.26.131-1.21-.145-1.21-.352 0-.093-.307-.17-.683-.17-.376 0-.684.041-.684.09 0 .193-1.454.273-1.682.093-.189-.149-.276-.147-.474.01a.666.666 0 0 1-.547.096 1.247 1.247 0 0 0-.645.016c-.671.218-2.224.444-2.487.361-.148-.046-.644-.099-1.103-.117-.459-.019-.87-.087-.912-.152-.112-.17-5.157-.13-5.59.045-.561.226-1.815.341-2.004.185-.093-.076-.408-.14-.7-.14s-.53-.062-.53-.138c0-.077-.493-.14-1.094-.14-.602 0-1.094.063-1.094.14 0 .076-.14.139-.311.139-.172 0-.448.09-.615.2-.486.322-1.666.408-2.159.158-.236-.12-.561-.22-.722-.22-.161 0-.293-.046-.294-.103 0-.058-.358-.117-.796-.133a2.965 2.965 0 0 0-1.502.332c-.39.198-.708.295-.708.214 0-.132-2.09-.726-2.556-.726-.108 0-.561.19-1.007.422-.446.232-.811.353-.811.268 0-.087-.224-.117-.524-.068-.288.046-.592.028-.675-.04-.203-.167-3.225-.183-3.732-.02-.22.07-.3.13-.179.13.122.003.149.063.06.137-.103.084-.44.076-.905-.022-.409-.085-1.85-.177-3.203-.203-1.353-.027-2.83-.06-3.28-.075a20.317 20.317 0 0 0-1.935.067c-.893.076-1.227.041-1.678-.172-.605-.287-1.718-.246-1.718.062 0 .226-1.354.361-1.96.196-.256-.07-.787-.126-1.182-.126-.408 0-.644-.06-.548-.14.093-.076.025-.138-.15-.138s-.248-.094-.161-.209c.086-.115.051-.208-.078-.208a.565.565 0 0 0-.393.208c-.087.115-.34.209-.563.209-.222 0-.503.088-.623.195-.346.31-.9.3-3.059-.045-1.56-.25-2.412-.308-3.746-.254-.987.04-1.765.014-1.815-.062-.047-.073-.428.028-.846.225-.79.373-1.277.457-1.277.22 0-.077-.185-.14-.41-.14-.226 0-.41-.055-.41-.123 0-.148-1.401-.108-1.919.055-.202.064-.887.124-1.522.133-.634.01-1.338.095-1.564.19-.536.227-1.762.07-2.121-.272-.199-.19-.459-.24-.92-.182-.353.045-.725.015-.825-.068-.253-.208-1.717-.19-1.869.024-.097.135-.244.137-.675.009a3.22 3.22 0 0 0-1.129-.089c-.38.051-.58.012-.582-.113-.005-.12-.078-.137-.205-.044-.575.417-5.854.719-5.353.306.112-.092-.085-.119-.54-.075-.42.041-.649.015-.553-.064.098-.08-.095-.096-.487-.038-.357.052-.864.126-1.127.163-.263.037-.479.012-.479-.057 0-.068-.37-.096-.824-.062a7.035 7.035 0 0 1-1.64-.111c-.546-.115-.93-.127-1.158-.035-.188.076-1.572.182-3.075.236-1.504.053-3.199.118-3.767.143-.656.029-1.184-.03-1.443-.162-.363-.185-.485-.183-1.085.017-.594.198-.676.2-.676.014 0-.117-.184-.212-.41-.212-.226 0-.41-.07-.41-.155 0-.097-.24-.075-.645.06-.57.19-.733.191-1.418.01-1.097-.29-3.427.008-2.975.379.167.138-.028.158-1.796.188-.822.014-1.334-.049-1.542-.19-.232-.157-.408-.173-.684-.06-.22.089-.594.105-.918.039a8.499 8.499 0 0 0-1.298-.122c-.414-.006-.752-.065-.752-.132 0-.129-1.48-.482-2.012-.48a8.044 8.044 0 0 0-.924.102c-.466.077-.774.011-1.295-.275-.555-.304-.758-.343-1.082-.206-.513.217-4.189.295-5.001.107-.433-.1-.93-.098-1.646.01-1.592.24-3.417.338-3.216.172.095-.078.043-.142-.116-.142-.16 0-.29.066-.29.147 0 .084-.147.1-.342.037-.456-.148-.77-.153-1.493-.024-.333.059-.672.053-.752-.013-.08-.066-1.284-.099-2.675-.072-1.39.026-2.945.05-3.453.054-.539.003-1.09.11-1.32.252-.216.134-.323.173-.238.085.292-.3-1.004-.348-3.486-.13-.932.082-1.511.064-1.97-.062-.65-.176-3.533-.124-5.021.091-.46.067-.6.048-.464-.064.122-.1.049-.131-.196-.083-.214.041-.59-.027-.836-.152-.413-.21-.517-.205-1.39.07-.711.223-1.07.262-1.453.158-.58-.158-2.247-.165-2.247-.01 0 .056-.43.128-.957.16-.526.03-.957.007-.957-.055 0-.061-.246-.111-.547-.111-.3 0-.546-.093-.546-.206 0-.175-.53-.196-3.486-.14-1.917.037-3.728.083-4.025.102-.311.02-.543-.048-.547-.16-.005-.107-.248-.237-.543-.29-.59-.105-2.607.242-2.607.449 0 .075-.465.09-1.094.036-.719-.062-1.093-.042-1.093.057 0 .236-1.289.178-1.473-.066a.427.427 0 0 0-.439-.13c-.151.047-.275.016-.275-.07 0-.095-.32-.13-.819-.09-.45.036-.888.009-.974-.062-.084-.07-.467-.087-.85-.038-.383.049-.775.026-.872-.051-.097-.078-1.283-.185-2.636-.24-1.353-.054-2.83-.126-3.28-.16a37.448 37.448 0 0 0-1.367-.075c-.3-.008-1.155-.101-1.899-.206-.905-.128-1.443-.145-1.626-.052-.363.184-2.352.18-2.352-.004 0-.097-.18-.095-.553.007-.304.082-.673.112-.82.066-.147-.047-.268-.008-.268.084 0 .102-.228.065-.577-.096-.466-.214-1.03-.268-2.938-.28-1.3-.01-2.854-.057-3.455-.105a77.932 77.932 0 0 0-2.597-.15 43.033 43.033 0 0 1-1.64-.083c-.385-.067-3.02-.12-9.842-.198-4.134-.047-8.44-.152-9.567-.232a91.024 91.024 0 0 0-3.69-.182c-.903-.019-1.826-.07-2.051-.114-1.074-.208-2.427-.268-7.24-.32-6.119-.066-7.544-.204-8.042-.776-.265-.306-.547-.404-1.211-.424-.884-.027-1.862-.06-2.702-.094-.3-.012-.413-.095-.313-.228.118-.156-.043-.208-.637-.208-.437 0-.96-.078-1.163-.174-.294-.14-.33-.14-.175 0 .21.19.22.188-1.3.236-.775.024-.93-.002-.593-.097a2.9 2.9 0 0 1 .982-.061c.35.046.525-.002.525-.144 0-.17.213-.196 1.025-.13.703.057.896.042.615-.05-.226-.072-.902-.138-1.504-.144-.601-.007-1.34-.066-1.64-.132-.507-.11-.497-.122.137-.15.376-.018 1.02-.04 1.43-.05.412-.01.896-.093 1.077-.185.257-.13.136-.187-.548-.257-1.012-.103-1.194-.2-.872-.465.14-.116.756-.195 1.578-.202 1.202-.01 1.333-.042 1.207-.287-.077-.15-.183-.209-.236-.13-.052.08-.676.131-1.387.114-.903-.022-1.128.003-.745.085.528.113.527.117-.046.127a9.377 9.377 0 0 0-1.094.09c-.474.077-.475.07-.022-.12.586-.245.61-.378.068-.378-.225 0-.41-.062-.41-.139 0-.076-.13-.139-.29-.139-.159 0-.222.056-.14.123.201.165-.749.122-.984-.045-.11-.077-.347-.061-.587.04-.319.135-.482.129-.791-.029a3.4 3.4 0 0 0-.918-.267c-.395-.05-.344-.072.202-.084.4-.009.775-.087.832-.174.068-.103.257-.08.55.07.246.125.67.223.945.217.448-.009.443-.022-.05-.13-.505-.11-.496-.12.121-.128.65-.01.654-.016.137-.23-.44-.183-.45-.207-.06-.145.258.04.55.008.649-.073.122-.1.246-.093.389.024.147.121.264.084.394-.124.102-.163.3-.297.44-.297s.255-.056.255-.126-.232-.095-.516-.057c-.284.037-.58.015-.66-.05-.078-.064.456-.122 1.187-.128.73-.006 1.509-.087 1.728-.18.272-.114 1.192-.15 2.871-.113 1.895.042 2.504.011 2.612-.132.097-.128-.094-.189-.602-.192-.642-.003-.677-.023-.259-.147.59-.175.916-.208 3.295-.338 1.344-.073 1.783-.144 1.57-.253-.164-.083-.82-.133-1.457-.11-.96.033-1.097.008-.803-.145.245-.127 1.028-.177 2.528-.16 2.018.022 2.616-.078 1.866-.314-.169-.053-.795-.096-1.39-.096-.597 0-.937-.047-.757-.103.244-.077.247-.128.013-.202a1.1 1.1 0 0 0-.645.038c-.374.156-1.109-.15-.791-.329.103-.059.032-.061-.158-.005s-.275.16-.189.231c.198.163.243.166-1.354-.08-1.636-.253-3.347-.27-3.534-.034-.11.14-.142.14-.16 0-.01-.096-.151-.174-.31-.174-.16 0-.233.047-.164.105.07.057-.29.111-.797.12-.509.01-.858-.038-.778-.104.081-.066.027-.12-.12-.12s-.482-.043-.745-.094c-.325-.063-.414-.041-.28.07.13.106-.019.162-.425.162H8.08l.608-.216c.8-.286.77-.48-.076-.48-.376 0-.684-.047-.684-.106s1.2-.13 2.666-.157c2.78-.053 3.938-.095 4.168-.15.076-.02.414-.023.752-.01.338.015.615-.049.615-.14 0-.106.124-.121.342-.043.398.144 3.653.138 5.315-.009 1.017-.09 2.253-.497 1.51-.497-.155 0-.222-.116-.15-.257.098-.19.323-.242.863-.198.574.047.643.028.321-.089a3.186 3.186 0 0 0-.888-.15c-.263-.001-.479-.075-.479-.164 0-.09-.08-.121-.18-.07-.098.05-.368.013-.597-.082-.348-.144-.39-.134-.25.057.132.18-.08.26-.974.367-.628.076-1.327.144-1.552.15-.226.008-1.208.078-2.182.158-.975.079-1.92.115-2.101.08-.181-.036-.368-.01-.415.055-.048.066-.452.084-.899.04-.708-.07-.743-.094-.273-.184.314-.061-.089-.087-.965-.064-.826.023-1.656-.022-1.843-.099-.187-.076-.587-.106-.89-.066-.3.04-.479.016-.394-.053.195-.161-.061-.161-.654 0-.306.083-.696.061-1.144-.065-.373-.105-.535-.193-.36-.196.176-.003.535-.047.797-.098.364-.071.42-.047.238.104-.16.133.015.113.532-.06.435-.144 1.058-.228 1.428-.192.361.035 1.178.01 1.815-.055.638-.065 2.327-.157 3.755-.203 1.427-.046 2.84-.15 3.137-.232.299-.081.963-.164 1.477-.185.514-.02 1.032-.118 1.152-.217.12-.098.562-.191.985-.207.422-.016.798-.041.836-.057.12-.05.597-.098 1.164-.116.46-.014.498-.058.24-.269-.26-.211-.642-.248-2.357-.226-1.233.016-1.899-.021-1.675-.093.205-.066.25-.126.099-.132-.15-.007-.027-.063.273-.124.314-.065.695-.052.894.029.244.099.494.073.842-.087.272-.125.67-.229.883-.23.321-.003.318-.026-.022-.137-.225-.074-.28-.136-.123-.137.158-.002.404.054.547.123.143.07.813.157 1.49.195a29.47 29.47 0 0 1 2.323.237c.806.124 1.293.128 1.85.016.746-.149.75-.155.234-.417-.382-.195-1.04-.284-2.435-.333-1.052-.036-2.04-.106-2.195-.155-.156-.049-.603-.015-.994.076-.505.117-.796.122-1.004.016-.37-.188 1.65-.383 2.517-.243.366.059.528.043.424-.043-.092-.076-.016-.135.171-.132.187.003.582-.003.878-.016.53-.021.53-.025-.02-.22-.307-.11-.863-.183-1.235-.162-.372.02-1.47-.018-2.44-.085-.97-.068-2.787-.12-4.036-.117-1.597.004-2.216-.04-2.085-.148.13-.106-.014-.121-.462-.047-.536.088-2.403.093-5.228.015-.263-.007-.478-.097-.478-.2 0-.129-.198-.162-.615-.104-.477.067-.52.055-.188-.052.4-.13 1.783-.178 3.673-.129.451.012 1.18-.03 1.62-.092a5.287 5.287 0 0 1 1.57.034c.455.087.835.096.926.021.084-.07-.12-.127-.455-.127-.334 0-.527-.04-.428-.091.098-.05.027-.188-.16-.305-.27-.17-.27-.192.003-.109.188.058.342.038.342-.043 0-.135-.19-.164-1.367-.21a3.284 3.284 0 0 1-.699-.107c-.158-.05-.65-.086-1.094-.08a10.354 10.354 0 0 1-1.489-.098c-.643-.104-.65-.117-.135-.22.448-.088.39-.11-.319-.118-.476-.005-.927-.088-1.003-.183-.083-.104-.147-.076-.16.07-.011.133.163.243.389.243.225 0 .41.064.41.141 0 .08-.281.106-.631.062a25.868 25.868 0 0 0-1.086-.115c-.54-.04-.971-.227-.524-.227.172 0 .235-.1.143-.222-.145-.192.09-.218 1.717-.194 2.592.04 2.851.024 2.773-.175-.042-.106.22-.172.663-.17.402.003.672-.044.599-.104-.073-.06-.335-.109-.581-.109-.325 0-.366-.042-.15-.152.216-.11.464-.107.898.011.768.21 1.086.06.408-.192-.344-.129-1.42-.199-3.258-.214-1.597-.012-2.86-.086-3.02-.175-.194-.109-.135-.128.204-.068.559.1.623-.049.136-.315-.278-.153-.255-.172.128-.104.259.046.55.018.65-.064.1-.082.255-.093.35-.024.094.069 1.032.085 2.084.037 1.053-.048 1.662-.097 1.354-.109-.309-.012-.7-.093-.87-.18-.181-.092-.517-.112-.807-.049-.653.143-2.82.168-2.82.034 0-.058-.328-.105-.73-.105-1.679 0-.294-.12 2.37-.206 1.579-.05 2.977-.145 3.109-.21.13-.065.428-.082.66-.036.276.054.353.026.223-.08-.258-.214.18-.21.6.003.256.13.33.122.333-.034.005-.172.043-.171.269.007.167.131.266.146.269.04.005-.167.751-.155 2.943.048.489.045.889.028.889-.038s.38-.127.843-.135c.556-.01.718.024.478.102-.262.084-.19.118.25.12.338.001.615-.054.615-.121 0-.068.363-.15.806-.184.443-.033.743-.009.667.054-.076.063-.408.121-.737.13-.511.014-.524.026-.087.083.282.037.866-.066 1.298-.229.59-.222.787-.246.787-.098 0 .222.666.399.953.253.247-.126 1.79-.161 5.9-.137.837.005 1.782-.061 2.1-.148.318-.087 1.848-.166 3.399-.176l2.82-.02-2.05-.11c-1.128-.06-2.942-.13-4.032-.155-1.09-.024-1.981-.085-1.982-.136 0-.05-1.24-.098-2.756-.105-1.774-.01-3.015-.084-3.482-.208l-.727-.194.891.036c.49.02.97.076 1.067.125.312.159 1.676.096 1.818-.084.11-.139.143-.139.16 0 .032.263 1.115.213 1.115-.05 0-.166.182-.208.69-.158.38.036.755.013.835-.053.08-.066.538-.118 1.019-.117 1.993.008 4.992-.08 5.247-.152.15-.043.55-.067.888-.054.338.014.615-.024.615-.084 0-.06.37-.15.823-.201.453-.05 1.021-.193 1.263-.316.302-.154.881-.219 1.843-.207 1.644.021 4.545-.247 4.545-.42 0-.065-.235-.08-.523-.034-.288.046-.598.023-.689-.051-.09-.075-.593-.1-1.116-.057-.584.048-.952.021-.952-.069 0-.08-.215-.173-.478-.206-.263-.032.444-.044 1.572-.027 1.127.018 2.277.08 2.556.139.278.058.586.05.683-.018.098-.069.774-.142 1.502-.162 1.189-.033 2.56-.258 2.32-.38-.05-.026-3.355-.071-7.342-.1-3.988-.03-7.38-.095-7.54-.145-.365-.115-7.398-.013-8.282.12-.376.057-.592.045-.505-.027.164-.135-1.331-.156-1.593-.023-.086.044-.514.027-.952-.036-.438-.064-1.259-.09-1.824-.056-.792.046-.935.025-.62-.091.31-.115.072-.134-.956-.08-1.117.06-1.254.045-.752-.079.574-.141.868-.408.41-.37-.112.008-.39 0-.615-.021-.225-.02.697-.11 2.05-.198 1.354-.09 2.568-.116 2.699-.06.131.055.42.065.643.022.222-.044.499-.002.615.095.159.13.35.135.772.02.707-.192 2.01-.222 3.677-.084.911.075 1.299.06 1.299-.05 0-.088.13-.159.29-.159.159 0 .2.073.093.161-.138.114-.001.133.463.067.849-.123 4.25-.21 10.961-.283 2.961-.031 5.543-.108 5.739-.17.195-.06 1.272-.129 2.393-.15 1.12-.023 2.148-.097 2.283-.166.336-.17-4.158-.69-6.287-.727-1.029-.017-1.632-.083-1.531-.165.103-.086-.133-.101-.627-.042-.436.053-.977.09-1.202.083-2.059-.066-4.299-.05-4.202.03.147.122-1.404.03-1.847-.109-.178-.056-.254-.045-.17.024.143.118-8.593.128-15.292.018-1.727-.029-2.723.005-2.623.087.097.08.015.087-.204.018-.325-.102-1.43-.162-4.283-.233-.482-.012-.818-.069-.749-.126.07-.057-.09-.137-.355-.177-.265-.04.024-.04.644-.001.885.056 1.163.021 1.3-.161.121-.16.369-.208.79-.154.339.043.799.019 1.023-.053.326-.105.285-.132-.207-.133-.338-.002-.615-.059-.615-.127s.292-.115.65-.104c.639.02.747.15.376.452-.17.137.608.164 2.186.074.576-.033.379-.298-.221-.298-.349 0-.49.06-.372.158.106.087.052.133-.12.104-.172-.03-.281-.102-.244-.162.038-.06-.1-.163-.307-.228-.391-.123 3.17-.075 4.254.057.33.04.677.008.772-.07.096-.08.073-.135-.051-.124-.618.055-1.196-.028-1.048-.15.096-.079-.014-.102-.257-.055-.233.046-.424.014-.424-.071 0-.085.154-.155.342-.156.187-.002.637-.042 1-.091.503-.069.604-.047.433.095-.163.133-.101.16.221.097.246-.048.52-.027.608.046.089.073.37.128.624.122.285-.007.33-.038.12-.08-.692-.143-.316-.314.39-.178.868.168 1.579.068 1.284-.182-.157-.133-.101-.131.232.006.297.122.495.133.616.034.118-.097.319-.076.589.061.225.115.333.272.24.35-.094.076-.053.14.09.14.31 0 .647-.399.464-.55-.071-.058.502-.08 1.273-.05.955.038 1.475-.002 1.628-.124.175-.14.226-.134.23.03.003.158.303.206 1.215.194l1.21-.017-.432.336c-.428.332-.425.334.361.238.973-.119 1.183-.197.532-.197-.378 0-.42-.042-.184-.186.167-.103.254-.213.192-.244-.06-.031.495-.043 1.236-.026 1.555.036 2.541.253 2.253.498-.108.092.035.073.318-.042.3-.121.43-.136.31-.034-.233.197-.007.207.784.034.467-.102.477-.12.068-.129-.263-.006-.478-.077-.478-.158 0-.085.233-.111.546-.06.689.11 1.704-.045 1.482-.227-.092-.076-.555-.099-1.03-.051-.644.064-.758.05-.452-.06.226-.08.618-.146.873-.147.728-.003.806-.218.216-.6l-.544-.351 1.047-.09c.575-.05 1.16-.08 1.3-.066.564.055.935-.018.935-.184 0-.223-6.721-.323-7.233-.107-.522.22-3.104.09-3.644-.184-.41-.21-.418-.256-.057-.383.305-.108.166-.126-.547-.071-1.286.099-7.808-.17-10.086-.415-1.1-.118-.285-.312 1.748-.416 1.053-.054 2.006-.167 2.119-.25.141-.106.289-.09.474.055.25.193.402.095.298-.193-.025-.07.465-.075 1.13-.014.645.06 1.42.108 1.72.106 2.178-.014 10.099-.193 10.17-.229.142-.072-5.618-.262-7.634-.251-1.011.005-1.91-.05-1.998-.122-.088-.073-.01-.132.175-.132.184 0 .256-.04.16-.09-.097-.048-.333-.026-.525.051-.546.22-3.503.324-4.153.146-.36-.098-3.165-.176-7.676-.212-3.91-.03-7.538-.11-8.064-.177l-.957-.121.957.007c2.781.02 3.266-.016 3.1-.237-.09-.12-.339-.183-.553-.141-.214.042-.323.021-.242-.045.08-.067 2.394-.124 5.14-.128 2.746-.003 5.054-.014 5.13-.022.075-.009 1.797-.036 3.826-.06 2.03-.024 4.183-.111 4.784-.194.602-.082 4.598-.22 8.881-.308 4.352-.089 7.935-.22 8.12-.3.184-.076.453-.102.599-.056.146.045 1.385-.015 2.753-.136 1.37-.12 2.7-.184 2.96-.142.258.041.833-.046 1.277-.194.746-.25.767-.278.274-.375-.493-.096-.481-.111.15-.2.5-.072.302-.101-.737-.112-.78-.007-1.506-.086-1.614-.174-.12-.1-.075-.123.121-.061.174.054.316.033.316-.049 0-.08.215-.149.478-.152.369-.003.327-.047-.185-.192-.645-.181-.624-.19.765-.342.786-.086 1.638-.157 1.894-.158.4-.003.408-.021.055-.137-.317-.104-.326-.136-.04-.137.217-.002.306-.09.214-.211-.086-.115-.03-.209.124-.209s.205-.062.112-.139c-.093-.076-.538-.139-.99-.139-.476 0-.749-.058-.65-.139.092-.077.592-.14 1.11-.14 1.065 0 1.248-.227.325-.405-.578-.112-.557-.127.341-.261l.957-.143-.865-.012c-.477-.008-.907-.074-.957-.15-.05-.075-1.232-.16-2.625-.188-1.394-.028-2.601-.085-2.684-.127-.082-.042 1.181-.052 2.807-.024 1.736.031 2.801.003 2.58-.068-.265-.084-.06-.144.683-.2 1.532-.114 4.858-.257 5.978-.257.528 0 .96-.06.96-.133 0-.074.132-.092.293-.042.419.132 2.715-.065 2.715-.232 0-.077-.238-.102-.528-.055-.29.047-2.196.095-4.237.107-2.174.012-3.71.077-3.71.156 0 .074-.09.088-.201.031a.42.42 0 0 1-.205-.335c-.003-.185-.22-.223-1.06-.187-.635.028-.99-.008-.891-.089.165-.136-.471-.284-1.743-.406-.376-.036-2.59-.083-4.92-.104-6.092-.055-8.226-.148-8.504-.371-.184-.148-.237-.15-.24-.01-.003.132-.279.155-1.03.087-1.74-.16-1.863-.29-.37-.391 2.296-.155 2.503-.254.978-.467a39.13 39.13 0 0 0-1.77-.217c-.225-.015-.532-.104-.683-.2-.15-.094-.723-.188-1.272-.208-.549-.02-.941-.083-.871-.14.07-.058.457-.07.861-.027.522.056.616.041.325-.051-.225-.072-.884-.173-1.464-.227-.58-.053-1.38-.163-1.777-.245-.397-.083-1.214-.174-1.816-.204-.601-.03-1.462-.144-1.913-.252a15.496 15.496 0 0 0-1.626-.283c-.519-.056-.687-.124-.471-.192.231-.073.121-.155-.356-.266-.895-.207-.875-.387.06-.56.706-.132.713-.14.118-.151-.552-.01-.584-.037-.242-.211.349-.177 1.577-.322 3.395-.4.945-.04.09-.391-1.025-.42-.963-.025-1.384-.283-.685-.42.232-.044.422-.034.422.023s.548.117 1.219.131c.954.022 1.186-.015 1.07-.17-.082-.109-.354-.23-.604-.27-.25-.04.005-.04.57-.001.619.043 1.025.013 1.025-.075 0-.08-.584-.152-1.299-.16-1.298-.014-1.298-.014-.41-.159 1.78-.29 1.101-.38-4.517-.592-1.992-.075-3.069-.195-3.069-.34 0-.057 3.537-.114 7.86-.127 7.865-.024 10.182-.092 10.182-.3 0-.17-3.348-.379-3.895-.244-.28.069-.697.058-1.007-.026-.291-.08-1.306-.145-2.255-.146-1.216-.002-1.606-.042-1.317-.137.302-.1.122-.135-.683-.135-.842 0-1 .034-.684.146.311.11.245.121-.273.044a10.758 10.758 0 0 0-1.572-.074c-.489.015-.888-.033-.888-.107 0-.16.992-.34 1.313-.239.124.04.832.02 1.574-.044l1.35-.115-1.094-.027c-.601-.015-.94-.059-.754-.097.49-.101-.242-.448-.882-.418-.27.012-.536-.04-.59-.116-.053-.077.18-.153.518-.17.338-.016.86-.058 1.162-.093.3-.035 1.469-.076 2.597-.092 1.876-.025 1.726-.043-1.777-.213-3.352-.163-7.197-.317-8.286-.332-.197-.002-.294-.057-.217-.12.077-.064.73-.102 1.451-.086.721.017 1.43-.006 1.574-.05.145-.044.666-.1 1.158-.127 2.306-.12 2.1-.274-.615-.46-2.888-.198-2.832-.355.15-.417l1.504-.031-1.185-.098c-.651-.054-1.268-.166-1.37-.25-.1-.083-.552-.189-1.001-.234-.644-.066-.701-.055-.27.048.446.108.462.134.087.142a2.15 2.15 0 0 1-.862-.196c-.222-.113-1.123-.244-2.002-.292-.879-.047-1.66-.127-1.734-.177-.076-.05-.445-.112-.82-.138-.376-.025-.79-.098-.918-.16-.482-.235.993-.427 3.848-.5 1.621-.041 3.352-.14 3.847-.218.494-.079 1.072-.11 1.284-.068.21.041 1.036.017 1.833-.054 3.13-.277 14.323-.539 20.996-.49 4.823.034 5.194.014 5.194-.286 0-.106.123-.193.273-.193.15 0 .273.096.273.214 0 .186.422.202 3.212.12 1.767-.051 3.336-.137 3.486-.19.15-.053 1.565-.109 3.144-.124a220.73 220.73 0 0 0 6.266-.177c1.868-.082 3.852-.112 4.41-.067.665.054 1.114.021 1.304-.095.272-.167 2.158-.197 2.927-.047.183.036.67-.024 1.082-.132.411-.11.974-.198 1.25-.198.277 0 .817-.073 1.2-.161.5-.116.875-.12 1.33-.015.813.189 3.454-.04 3.88-.336.37-.259 2.867-.434 2.867-.202 0 .276.865.17 1.016-.124.103-.201.293-.259.658-.2.282.046.513.026.513-.043 0-.069.676-.243 1.503-.386.827-.143 1.504-.31 1.504-.37s.176-.11.39-.11c.215 0 .568-.09.784-.2.258-.132 1.176-.219 2.67-.254 1.373-.033 2.316-.118 2.38-.213.056-.088.525-.2 1.041-.249.951-.09 1.753.055 3.533.642.45.149 1.004.314 1.23.366.225.053.822.253 1.325.446.837.32 1.17.352 3.881.37 2.015.015 2.949-.027 2.912-.13-.097-.273 1.465-.264 1.874.011.356.24.379.235.387-.074.007-.248.12-.306.465-.239.251.05.55.013.664-.081.291-.24 5.139-.227 5.432.015.165.136.345.139.811.012.33-.09.93-.15 1.333-.133a7.581 7.581 0 0 0 1.525-.134c.434-.09.848-.133.92-.096.073.036.317-.028.543-.143.278-.141.67-.18 1.209-.12.47.053.958.021 1.19-.077.273-.115.97-.136 2.284-.069 1.547.08 2.021.054 2.604-.14.391-.131.958-.205 1.258-.165.675.09 2.492-.18 2.297-.34-.079-.065-.02-.118.13-.118.151 0 .342.056.424.124.259.213 3.48.436 3.73.258.088-.062.494.022.903.186.41.164.821.26.913.213.093-.047.018-.086-.167-.086-.184 0-.258-.063-.163-.14a.488.488 0 0 1 .41-.068c.13.042.337-.01.459-.115.122-.104.595-.227 1.052-.272 1.055-.103 3.17.036 2.975.196-.147.12.413.175 1.32.129.263-.014.478.041.478.123 0 .256 1.062.16 1.36-.123.223-.213.181-.302-.196-.415-.373-.112-.281-.125.408-.06.695.066.889.037.889-.133 0-.317.446-.408 1.054-.215.435.139.615.125 1.015-.079.35-.177.742-.226 1.395-.172.768.063.91.033.91-.194 0-.34.15-.338.872.003.63.299 1.173.241.918-.097-.088-.117-.013-.42.167-.673.274-.385.504-.476 1.398-.553.656-.056 1.188-.033 1.373.061.166.085.51.154.764.154.255 0 .534.094.62.209.087.114.298.208.469.208.171 0 .24-.094.154-.208-.098-.13 0-.209.26-.209.247 0 .338-.066.222-.161-.134-.11-.01-.136.394-.083.421.056.745-.021 1.132-.271.418-.271.698-.33 1.23-.263.599.076.688.042.688-.263 0-.278.136-.35.667-.35.367 0 .743.063.836.14.256.21.957.166.957-.062 0-.123.338-.216.889-.243.597-.03.973-.142 1.148-.345.143-.165.594-.335 1.002-.376.584-.06.712-.136.598-.358-.08-.155-.067-.439.028-.631.137-.278.344-.35 1.004-.35.484 0 .76.058.662.139-.099.08.18.139.667.139.654 0 .836-.06.836-.278 0-.218.183-.279.838-.279.461 0 1.08.066 1.377.147.869.237 2.616.216 3.168-.037.272-.125.832-.27 1.245-.322.412-.053.681-.152.597-.22-.235-.194.7-.32 1.05-.142.17.086.638.157 1.041.157.403 0 .885.094 1.072.209.187.115.48.203.649.197.192-.007.179-.037-.035-.081-.473-.097-.147-.325.464-.325.275 0 .699-.155.943-.344.361-.28.606-.331 1.33-.275.737.056.794.044.34-.076-.455-.12-.41-.13.27-.061.45.045.91.156 1.021.246.152.12.205.118.208-.011.005-.096.243-.174.535-.174.292 0 .606-.063.7-.14.092-.076.308-.138.478-.138.17 0 .078.086-.206.191-.484.18-.487.206-.052.427.373.19.463.197.463.034 0-.11.188-.28.418-.378.347-.146.484-.131.798.087.39.271.76.204.863-.157.033-.112-.135-.204-.372-.204s-.345-.045-.239-.099c.312-.158 2.124.404 1.968.61-.084.111.06.184.362.184.385 0 .47-.08.37-.345-.197-.524.12-.96.813-1.119.853-.195 1.453-.11 1.798.254.166.174.3.22.31.108.014-.148.174-.126.633.086.785.364 2.017.481 2.424.232.372-.229 1.335-.252 1.335-.034 0 .105.113.112.342.02.572-.227 1.594-.304 2.284-.17.413.08.654.076.654-.01 0-.074.192-.135.427-.135.234 0 .36.054.281.12-.202.166 1.303.009 1.518-.159.108-.084.577-.092 1.23-.02.58.064 1.27.105 1.533.09.263-.015.479.034.479.11 0 .075.461.142 1.025.147.822.008.917.034.478.13-.48.104-.488.123-.068.15 1.037.066 1.162.051 1.162-.14 0-.11.338-.245.751-.301.414-.057.752-.065.752-.019 0 .047.157-.025.348-.158.419-.29 2.292-.247 2.684.063.203.16.291.162.48.014.175-.138.34-.097.683.169.249.193.452.447.452.564 0 .15.275.214.92.214.832 0 .906-.033.787-.348-.107-.286-.023-.348.478-.348.428 0 .561-.061.45-.208-.118-.157.047-.209.67-.209.483 0 .758.058.66.14-.094.076-.032.138.136.138s.23.063.137.14c-.145.119.634.21 1.31.153.118-.01.464.05.767.132.466.127.539.11.468-.102-.059-.175.085-.253.462-.253.339 0 .513.078.458.205-.07.161.02.154.432-.035.286-.132.694-.24.908-.24.214 0 .74-.095 1.169-.208.429-.114.89-.173 1.024-.13.134.041.387-.084.562-.28.34-.38 1.228-.513.948-.141-.25.33.912.491 1.687.233.492-.164.612-.17.548-.024-.045.102.16.213.458.245.677.075 1.222.441 1.031.695-.106.14.067.182.646.156.434-.02 1.266.068 1.848.196.583.128 1.229.232 1.436.232.222 0 .376.147.376.36 0 .57.658.316.698-.271.04-.587.245-.73 1.216-.849.505-.062.88.01 1.438.276.627.298.783.323.918.143.09-.118.334-.215.543-.215.21 0 .381-.056.381-.124 0-.069.315-.165.7-.214.53-.068.828-.012 1.225.229.322.194.606.263.735.178.256-.17 1.44-.207 1.44-.046 0 .064.23.116.51.116.281 0 .86.14 1.286.31.427.17.682.233.567.14-.117-.097-.075-.172.098-.172.168 0 .238-.056.156-.123-.205-.17.572-.479.923-.368.156.049.5.025.764-.054.264-.078.383-.144.263-.146-.332-.007 2.164-1.256 2.509-1.256.165 0 .657.189 1.091.42.702.374.812.394.98.174.175-.23.222-.226.656.045.257.16.648.333.868.384.223.051.128.067-.214.034-.842-.08-.778.17.087.337.556.108.663.198.515.435-.144.231-.093.28.226.218a52.71 52.71 0 0 1 1.488-.244c1.002-.153 2.115-.69 1.429-.69-.16 0-.216-.063-.123-.14.247-.203.683-.17.683.053 0 .105.17.263.378.35.207.088.447.338.532.555.12.306.349.415 1.008.482.554.057.783.144.655.25-.123.101-.078.124.123.06.176-.055.263-.147.194-.204-.07-.057.113-.192.406-.3.642-.235.686-.411.102-.411-.382 0-.384-.023-.02-.209.226-.115.542-.209.703-.209.161 0 .262-.072.225-.162-.093-.22 1.744-.413 2.181-.228.188.079.273.2.19.268-.083.069.041.162.275.208.234.045.358.139.275.207-.084.069.032.125.256.125s.486.125.581.278c.096.153.381.277.634.276.398-.003.405-.02.05-.142-.357-.121-.348-.158.074-.284.266-.08.401-.214.3-.297-.114-.093-.058-.112.142-.05.18.057.505.029.722-.063.231-.098.694-.128 1.116-.074.59.075.691.05.554-.131-.117-.155-.065-.19.17-.112.187.06.708.111 1.159.111.565 0 .794.062.736.198-.07.167-.014.169.363.01.377-.16.485-.158.695.01.172.14.25.147.252.026.005-.095.22-.173.483-.172.378.002.4.028.101.124-.207.067-.296.187-.199.268.181.149 1.26.028 2.532-.282.664-.163 1.188-.055 1.188.244 0 .11.165.2.366.2.43 0 1.081.656.845.851-.1.082.127.097.584.04.503-.065.687-.047.565.054-.1.082-.058.188.094.236.153.048.408-.06.569-.238.243-.272.52-.331 1.677-.357 1.185-.026 1.48.022 2.05.335.365.2.6.451.52.557-.1.131.067.192.53.192.37 0 .674.063.674.139 0 .252.48.145.626-.14.093-.18.373-.277.797-.277.36 0 .771-.056.914-.124.51-.242 1.49-.323 1.49-.122 0 .105.143.263.319.352.242.124.396.108.644-.064.537-.374 1.281-.122 1.176.398-.053.264.048.464.253.498.188.032.342-.007.342-.088 0-.093.223-.104.611-.03.637.12 1.532-.051 1.931-.368.302-.24 1.012-.22 1.012.03 0 .235.803.482 1.283.394.18-.033.258-.15.175-.26-.11-.145.06-.196.63-.188.43.007.628.043.44.081-.462.095-.434.325.04.325.209 0 .45.094.537.209.087.115.346.208.576.208.23 0 .423.11.428.244.008.232.026.232.372 0 .2-.134.503-.244.674-.244.172 0 .312-.093.312-.208 0-.233.052-.243.644-.128.228.045.348.17.266.278-.087.116.02.198.257.198.6 0 1.135.364.725.493-.229.072-.187.14.143.234.34.097.558.068.814-.11.368-.256 1.12-.152.8.111-.12.1-.025.12.27.06l.837-.172c.252-.052.37.007.342.174-.033.207.198.26 1.284.296.88.028 1.264-.007 1.145-.105-.098-.08-.04-.147.127-.147.168 0 .225-.066.126-.148-.122-.1.156-.117.872-.051 1.277.118 1.43.176.908.344-.524.168-.208.168.664 0 .458-.09.75-.086.865.009.096.079.331.113.523.075.192-.037.484 0 .65.085.165.084.949.157 1.741.163 1.007.007 1.545.08 1.782.24.203.139.56.202.888.158.321-.043.549-.005.549.092 0 .183.724.104 2.05-.225.451-.112 1.428-.23 2.17-.263s1.436-.131 1.541-.218c.105-.087.32-.117.477-.068.157.05.36.027.453-.049.245-.201 1.215.14 1.043.368-.077.102.044.183.275.183.28 0 .367.091.271.279-.116.226-.008.278.572.278.394 0 .716-.063.716-.14 0-.076.46-.129 1.025-.117.824.016.878.032.273.078-.413.032-.752.107-.752.167 0 .098.415.105 1.982.034.263-.012.479-.088.479-.17 0-.08-.14-.103-.31-.05-.188.06-.255.023-.17-.096.076-.106.29-.175.474-.153.185.021.487-.024.671-.102.379-.16 3.724-.134 3.529.027-.07.058.073.105.316.105s.366.062.273.139c-.235.193.231.174.625-.026.178-.09.414-.118.525-.062.11.056.02.16-.2.232-.338.109-.326.13.076.132.263.001.478.06.478.13 0 .076.386.073.96-.008.529-.074 1.082-.097 1.23-.05.149.047.27.026.27-.046 0-.191 1.447-.302 1.831-.14.18.075.621.118.98.094.622-.042 1.838.395 1.583.568-.065.044.12.098.41.122.39.03.432.009.163-.085-.257-.09-.032-.154.768-.22.623-.05 1.234-.06 1.358-.02.124.039.29-.054.368-.206.183-.355 1.199-.364 1.953-.017.555.256 2.613.51 2.616.323 0-.053.36-.2.8-.327.755-.219.823-.217 1.27.035.54.303 1.221.343 1.7.099.256-.13.329-.126.329.017 0 .147.08.15.41.01.333-.14.41-.134.41.031 0 .281.99.723 1.212.541.222-.183.976-.039.898.172-.04.107.377.15 1.239.13.873-.022 1.3.024 1.302.139.005.116.08.109.246-.024.14-.113.436-.156.705-.104.322.063.506.006.606-.188.078-.154.313-.28.521-.28.208 0 .383-.077.39-.173.004-.096.195 0 .42.211.395.37.479.383 2.06.316 1.168-.05 1.784-.149 2.108-.339.654-.383 1.548-.483 2.05-.228.23.118.742.214 1.138.214.413 0 .647.06.549.14-.094.077.015.176.238.22.378.073 1.518-.129 3.18-.564.391-.103.917-.135 1.23-.077.3.057.704.073.897.036.463-.088 1.434.491 1.244.743-.09.12.023.197.29.197.242 0 .44.06.44.132 0 .173 1.683-.109 2.06-.344.268-.168.948-.257 1.69-.221.19.01.26.112.163.24-.134.178-.048.206.406.132.423-.068.807.02 1.449.332.48.234.763.429.628.434-.135.005.06.07.433.146.464.094.709.091.775-.01.053-.08.223-.107.377-.059.356.112.757-.203.762-.6.005-.416.464-.526 1.329-.319 1.704.41 1.918.444 2.203.354.165-.052.303-.012.308.088.005.12.13.1.372-.061.2-.134.509-.244.687-.244.178 0 .633-.157 1.01-.35.465-.236.942-.339 1.478-.318.607.024.723.072.5.209-.233.143-.12.147.58.023.768-.136.918-.12 1.276.141.44.319 1.94.435 1.57.121-.14-.118-.06-.113.255.017.254.104.708.157 1.01.117.302-.04.485-.02.407.043-.157.13 1.824.07 2.849-.086.466-.07.6-.053.462.061-.108.089-.065.161.094.161.16 0 .29-.062.29-.139 0-.22 1.91-.167 2.078.057.11.147.351.166.953.079.493-.072.745-.067.648.012-.264.218.244.14.968-.148.762-.303 1.366-.358 1.366-.124 0 .202 1.302.038 1.83-.23.311-.159.319-.203.036-.205-.2-.002.174-.127.828-.278 1.26-.291 1.759-.263 1.497.084-.127.168-.016.192.57.118.4-.051.693-.039.65.028-.083.125.127.19.62.19.16 0 .213-.063.121-.14-.094-.076-.047-.138.102-.138.148 0 .348-.124.442-.275.138-.22.385-.269 1.223-.244.578.018.994.079.924.136-.07.058.016.104.179.104.175 0 .215.075.095.174-.12.099.092.074.485-.057.654-.218.766-.216 1.835.028.627.142 1.139.2 1.139.127 0-.073.277-.14.615-.15.426-.013.32-.054-.342-.131-.936-.11-.933-.11.138-.046 1.694.102 2.38.093 2.564-.035.318-.222 2.722-.22 3.6.003.94.239 3.849.28 4.12.058.11-.09.398-.077.813.036.353.097 1.606.193 2.784.216 1.814.034 2.221 0 2.667-.228.39-.198.757-.247 1.42-.189 1.516.134 1.791.21 1.182.325-.507.096-.503.104.07.18.33.045.545.035.478-.02-.202-.166 1.717-.456 2.345-.354.447.072.496.12.212.21-.465.146-.322.21.708.315.451.046.667.05.48.008-.26-.058-.249-.12.05-.272.431-.22 2.745-.42 2.498-.215-.086.07.038.165.276.211.665.13 1.14.08.523-.055-.49-.107-.496-.12-.05-.129.272-.006.733.055 1.024.134.36.098.53.099.53.002 0-.086.46-.115 1.16-.073.71.042 1.02.022.798-.052-.275-.091-.211-.141.261-.204.345-.046.683-.055.752-.02.07.036-.026.064-.212.064-.234 0-.208.067.082.214.59.3 2.214.088 2.215-.29 0-.15.225-.289.512-.317.35-.035.445.003.3.122-.156.129-.024.15.515.08.428-.054.724-.034.724.05 0 .078.185.141.41.141.494 0 .529.163.083.39-.256.13-.195.167.273.167.33 0 .601-.06.601-.133 0-.234 4.55-.477 4.817-.257.076.062.426.076.778.03.39-.05.946.017 1.419.169l.777.25-.522-.31-.523-.308.907.093c.652.066.852.047.711-.069-.124-.102.017-.16.368-.16.31 0 .532.078.494.173-.098.25 1.495.163 1.875-.101.386-.269.76-.276.56-.01-.172.228.726.43 1.22.275.191-.06.262-.023.182.095-.07.106.117.303.417.437.68.303.842.307.622.015-.147-.195-.109-.202.264-.044.365.154.484.152.716-.015.223-.16.247-.15.12.05-.169.264-.321.264 2.703.01.655-.054.738-.036.41.09-.324.126-.239.14.41.07a15.136 15.136 0 0 1 1.425-.082c.426.004.56-.055.45-.2-.1-.134.016-.207.312-.207.304 0 .414.073.311.208-.101.134.017.213.313.22.285.007.335.039.127.081-.188.039-.341.126-.341.194 0 .16 1.72-.007 1.954-.19.099-.075.388-.095.646-.045.343.067.425.035.31-.119-.088-.116-.07-.215.038-.22.108-.005.535-.032.948-.06.413-.027.752.008.752.08 0 .07-.21.129-.465.129-.34 0-.384.041-.162.154.207.105.857.119 2.037.042 1.572-.101 1.644-.12.777-.195l-.957-.084.908-.111c.5-.061.98-.074 1.068-.03.089.046.31.02.493-.058.384-.162 1.292-.028 1.067.157-.084.069-.021.125.139.125.405 0 .363-.378-.052-.469-.188-.041.016-.048.455-.017.438.032.924.123 1.08.203.156.079.512.144.791.144.28 0 .442.054.36.121-.08.067.47.163 1.224.214.754.051 1.304.149 1.22.217-.082.068-.022.164.135.214.156.049.25.006.21-.095-.052-.126.314-.2 1.154-.234.957-.039 1.109-.075.684-.164-.489-.102-.47-.116.171-.124.395-.006.872.084 1.059.199.356.218 1.64.292 1.64.094 0-.062 1.365-.09 3.034-.06 1.816.031 2.971.001 2.878-.076-.092-.076.26-.09.861-.036.63.057 1.278.025 1.701-.084.376-.098.632-.195.57-.216-.063-.022-.055-.13.02-.242.098-.151.653-.208 2.163-.223 2.143-.02 2.988.128 2.988.523 0 .132.263.312.584.4.426.115.491.187.24.266-.207.065.105.13.79.163.95.046 1.247-.005 1.835-.318.666-.353 2.019-.62 2.019-.397 0 .057.246.136.546.176.301.04.547.169.547.285 0 .117.244.252.541.3.298.048.513.157.479.243-.068.169 2.178.426 2.59.297.139-.044.487.029.774.16.363.168.77.216 1.339.158.45-.045.878-.032.953.03.15.124.92.096 3.135-.112.81-.076 1.67-.087 1.913-.024.243.062 1.393.19 2.556.282 1.164.093 2.497.266 2.963.384a5.8 5.8 0 0 0 1.786.137c.555-.045.874-.024.78.054-.087.072 0 .137.199.144.197.008.05.064-.325.126-.555.09-.435.114.632.125.724.007 1.555.079 1.846.158.66.18.694.02.05-.229-.44-.17-.423-.186.205-.204 1.365-.038 2.298.041 2.917.248.397.132.914.178 1.387.124.645-.075.68-.064.242.07-.367.113-.418.187-.182.261.185.058-.029.097-.487.088-.449-.008-.76-.062-.69-.12.193-.16-.27-.125-1.58.118-.659.122-1.535.22-1.949.218-.413-.002-.751.067-.751.154 0 .112-.094.11-.328-.01-.45-.228-.857-.21-.676.03.083.109-.04.235-.272.28-.232.045-.356.168-.277.273.24.32-1.763.69-3.289.608-.72-.038-1.155-.041-.966-.007.19.035.262.13.163.212-.1.082-.061.111.086.065s.628.028 1.07.165c.501.155 1.945.315 3.847.427 3.27.191 5.677.58 4.535.732-.422.056-.555.032-.425-.08.104-.088-.037-.066-.314.048-.371.154-1.209.209-3.172.21-2.008 0-2.602.04-2.403.162.145.09.75.2 1.343.244l2.172.162c.602.045 1.025.14.94.21-.086.07.067.164.34.209.273.044.742.133 1.042.197.301.064 1.158.146 1.905.182.747.037 1.398.129 1.448.204.115.175 1.158.045 1.158-.143 0-.093.114-.092.342.002.413.172 3.223.176 3.658.007.194-.076.368-.044.466.086.116.153-.108.228-.857.29-.557.045-1.32.112-1.696.148-.532.051-.593.034-.273-.079.49-.172-2.372-.055-3.717.152-.466.072-1.03.095-1.255.051a1.23 1.23 0 0 0-.758.135c-.21.129-.792.215-1.443.215-1.02 0-1.083.023-.96.352.084.224-.018.393-.28.468-.54.154-.19.428.57.446.557.013.552.022-.084.125-.674.11-.672.112.137.135.658.02.718.044.305.127-.449.09-.396.132.41.335.779.195.828.232.31.235-.361.002-.615.089-.615.211 0 .116-.243.21-.547.21-.623 0-.673.111-.194.432.227.151 1 .255 2.397.322 2.17.103 2.9.234 2.617.468-.203.167 1.193.438 2.397.466.774.018.753.028-.246.12l-1.093.099.957.014c.526.007 1.448-.035 2.05-.095.638-.062 2.005-.037 3.28.061 1.203.093 2.037.176 1.854.184-.184.008-.26.11-.171.229.165.219.814.198.732-.023-.024-.067.406-.137.957-.156.75-.026.899.001.592.107-.29.1 0 .118 1.003.064.916-.05 1.481-.021 1.606.082.133.108.016.13-.365.068-.722-.116-1.035.138-.405.33.4.121.317.144-.472.131-.526-.009-2.914.032-5.305.092-2.895.072-4.292.061-4.179-.032.108-.088-.3-.118-1.119-.08-.709.032-2.642.078-4.296.102-4.464.065-4.238.05-4.062.283.087.115.488.208.893.208s.853.052.996.116c.142.064 1.06.233 2.037.376.977.143 1.838.3 1.913.348.118.076 4.568.383 6.151.424.489.012.476.03-.116.172-.509.122-.689.119-.775-.013-.193-.294-.813-.186-.78.137.036.37 1.103.529 3.652.54.94.004 1.709.066 1.709.136 0 .071-.123.129-.273.129-.15 0-.274.055-.274.123 0 .194 1.465.286 1.866.117.242-.102.424-.105.547-.012.102.078.738.206 1.414.285l1.23.143-1.177-.01c-.7-.006-1.269.064-1.401.174-.164.134-.276.14-.419.023-.147-.122-.29-.121-.58.002-.213.09-.386.117-.386.06 0-.057-.179-.029-.397.064-.219.092-.65.126-.957.077-.37-.06-.561-.029-.564.093 0 .142-.052.144-.22.01-.154-.123-.459-.136-1.088-.044-.481.07-.875.099-.875.063 0-.036-.257.006-.572.091-.715.195-2.208.046-1.6-.16.436-.147-.638-.06-2.037.165-.436.07-1.95.127-3.365.127-1.645 0-2.512.05-2.404.14.092.076-.088.138-.402.138-.314 0-.642.094-.729.21-.103.136-.548.21-1.29.217-.983.007-1.048.026-.494.139.541.11 4.596.302 6.127.29.263-.002.603.116.757.262.213.202.49.25 1.162.2l.883-.065-.888.143c-.936.15-1.258.355-.372.237.284-.037.684-.014.888.052.25.08.055.12-.592.122-.637.001-1.095.093-1.346.27-.29.206-.863.292-2.432.367-1.824.087-1.995.119-1.541.287.382.143.411.194.116.205-.505.018 1.075.227 3.067.405.852.077 2.082.294 2.734.484l1.186.345-1.14.001c-2.45.004-2.708.35-.363.489 2.093.124 2.204.414.204.534-.841.051-1.568.18-1.757.311-.233.163-1.017.254-2.83.33-2.303.097-2.976.227-2.994.576 0 .077 1.213.282 3.14.529.45.058 1.496.09 2.323.07 2.124-.05 8.192.208 9.09.386.809.16.955.322.41.452-.189.045.088.054.615.021.526-.032 1.202-.005 1.503.06.516.113.512.12-.084.129-.348.006-.555.072-.462.149.145.12-1.11.22-1.874.15-.13-.011-.404.051-.612.139-.208.088-.595.114-.86.058-.839-.177-2.214-.218-2.392-.071-.095.078-.626.137-1.18.131-.844-.008-.92-.031-.463-.14.44-.106.386-.118-.273-.06-2.09.183-2.888.198-2.711.052.115-.095 0-.123-.33-.076-1.604.23-1.873.25-1.484.114.283-.1.047-.124-.82-.086-.669.03-1.278.06-1.353.07-.076.01.294.105.82.211.802.162.846.19.274.177-1.25-.03-1.687.025-1.573.198.142.218-1.567.527-2.58.467-.415-.025-.698.002-.63.059.07.056-.973.13-2.318.163-1.845.044-2.576.12-2.983.308-.44.202-1.013.247-3.082.242-1.68-.004-2.405.038-2.137.124.222.072.865.131 1.43.132.563.002 1.024.065 1.024.142 0 .197 1.187.172 1.626-.035.295-.14.33-.14.175 0-.246.222-.166.219 1.061-.042.558-.119.935-.15.838-.07-.115.094.293.151 1.137.16 1.066.012 1.185.035.63.126-.624.101-.632.112-.093.125.44.01.555.081.453.278-.093.184.043.294.44.358.317.051.506.15.421.22-.088.073.203.09.68.042.656-.066.834-.036.834.141 0 .165-.28.233-1.025.249l-1.026.022.957.053c1.483.081 1.89.188 1.23.32-.435.088-.365.11.342.104.589-.005.888-.076.888-.21 0-.12.162-.17.402-.124.22.043.486.01.589-.076.122-.101.055-.116-.197-.043-.264.077-.298.066-.11-.035.15-.08 1.159-.215 2.24-.299 2.424-.187 2.83-.187 2.197 0-.266.08-.412.203-.324.275.09.075.338.041.572-.078.544-.277 1.396-.293.947-.018-.337.207.602.264 7.217.438 4.214.11 9.704.539 9.704.756 0 .198 2.985.368 4.647.265.956-.059 1.935.028 1.777.158-.093.076-.016.14.19.14.266.003.257.035-.04.13-.218.071-.486.1-.596.066a.448.448 0 0 0-.37.079c-.096.077-1.08.141-2.19.141-1.162 0-2.097.064-2.202.152-.109.089-.547.117-1.06.068-.885-.085-2.616.135-2.616.33 0 .06-.326.075-.724.037-.423-.041-.657-.016-.562.062.19.158-.315.167-11.334.217-8.03.037-10.283.13-7.429.309.728.045 1.918.144 2.643.219.726.075 1.672.136 2.103.136.43 0 .858.062.949.137.092.075.437.133.768.129.33-.005 1.127.06 1.77.142.642.083 2.24.172 3.553.196 2.93.055 7.185.359 7.65.545.266.107.21.197-.247.399-.324.143-.703.26-.841.26-.139 0-.047.104.202.231.269.137.843.223 1.407.213.641-.013.916.037.84.151-.077.119-.688.156-2.002.125-1.687-.041-7.094.39-7.843.626-.135.042-1.83.073-3.767.068-1.936-.005-3.58.039-3.652.098-.072.06 1 .12 2.384.133 2.294.023 3.734.07 7.32.236.69.032 1.548.114 1.91.182.723.136.676.15-1.234.368-.622.071-.716.121-.41.22.342.11.34.128-.016.131-.365.004-.365.02 0 .14.364.12.364.136 0 .147-.226.007.017.091.54.187l.949.174-.908.093c-.5.05-1.235.052-1.633.002l-.725-.09.683.295c.796.343.412.407-.497.083-.57-.203-.702-.2-1.704.053-.977.246-1.024.28-.468.342.34.037.865.112 1.166.167.546.099.546.099 0-.136-.537-.23-.534-.232.137-.135.376.055.8.155.943.223.142.068.512.13.82.138.48.012.463.03-.123.125l-.683.111.683.023c.66.022.652.03-.205.248-.488.124-.888.302-.888.396 0 .118-.596.173-1.926.18-1.864.008-3.237.254-2.788.499.111.06-.076.037-.418-.054-.5-.132-.7-.125-1.025.04-.222.114-1.11.245-1.975.293-2.213.122-2.803.196-2.803.353 0 .075.73.136 1.623.136 1.756 0 3.024.18 3.024.427 0 .086-.244.188-.543.228-.3.04-.484.122-.41.182.072.06-.626.155-1.553.21-.928.054-2.055.213-2.505.352l-.82.254.798.09c.438.048 1.153.146 1.589.216.436.07 1.143.128 1.572.128.428 0 .779.061.779.136 0 .15-.547.223-2.597.344-.752.044-1.416.154-1.475.244-.06.09-.399.311-.752.491-.85.433-.814.551.27.877.503.15 1.061.439 1.242.64.283.317.252.402-.23.63-.307.146-.558.224-.558.173 0-.05-.184-.015-.407.08-.224.094-.34.227-.258.295.083.068-.027.123-.243.123-.215 0-.533.087-.705.192-.172.106-.71.24-1.196.297-.571.067-.72.125-.422.164.573.074.538.591-.038.57-.887-.032-2.312.065-1.853.125.265.036.416.118.337.184-.08.065.226.23.68.367.453.136.824.287.824.335 0 .047.28.151.623.23.943.22.891.724-.09.898-1.194.212-.708.394 1.056.395 2.423.003 3.418.13 3.973.508.683.465.403.945-.779 1.334-.521.172-.95.35-.951.394 0 .083 1.976.36 3.382.473 1.02.082 1.195.18.549.304a4.07 4.07 0 0 0-.868.276c-.193.097-.746.21-1.23.251l-4.125.342c-4.494.37-5.002.725-1.327.925 1.632.089 4.445.448 3.668.468-.197.005-.282.072-.19.149.096.078-.127.139-.512.139a8.96 8.96 0 0 0-1.451.154c-.682.137-.711.166-.253.252.57.108-1.846.352-5.164.521-1.053.054-2.16.115-2.46.136-.301.022-1.285.075-2.187.12-.903.044-2.282.238-3.067.43-.784.192-1.86.386-2.392.43-.53.044-.965.13-.965.191 0 .062-.42.19-.931.283-.512.095-.88.24-.817.322.072.097-.544.165-1.724.19-1.01.022-1.904.087-1.985.144-.08.058-1.808.103-3.838.1-3.078-.004-3.775.034-4.199.228-.28.129-.679.2-.888.16-.209-.041-.38-.005-.38.08 0 .084-.37.153-.82.153-.451 0-.82.056-.82.124 0 .259-1.42.312-1.94.073-.377-.174-.823-.216-1.74-.163-.677.039-1.174.023-1.104-.034.19-.156-1.383-.283-2.324-.188-.45.046-.82.168-.82.27 0 .11-.17.154-.41.108-.255-.05-.41.001-.41.134 0 .238-.928.44-1.376.3-.159-.05-.447-.024-.641.058-.439.185-7.147.236-7.622.057-.499-.187-2.116-.229-2.116-.054 0 .253-.945.166-1.45-.134-.486-.29-1.01-.26-1.01.058 0 .294-1.278.768-1.862.69-.295-.039-.62-.003-.72.08-.23.19-1.429.199-1.655.012-.092-.076-.398-.139-.677-.139-.28 0-.552-.067-.606-.15-.132-.202-2.57-.307-3.192-.138-.34.093-.6.085-.816-.026-.242-.123-.421-.086-.748.151-.726.527-1.756.998-2.183.998-.224 0-1.026-.16-1.782-.355-.788-.203-1.593-.319-1.887-.271-.282.045-.76.004-1.062-.092-.467-.148-.76-.12-1.953.193-1.434.376-2.052.374-2.659-.009-.266-.168-.416-.18-.67-.05-.18.091-.675.166-1.1.166-.453 0-.843.091-.94.22-.12.158-.361.193-.88.125-1.454-.19-1.944-.207-1.944-.07 0 .081-.708.143-1.64.143-.912 0-1.64.061-1.64.139 0 .076-.316.139-.7.139-.397 0-.627.06-.53.139.091.076.038.139-.122.139s-.29-.089-.29-.197c0-.108-.338-.26-.751-.337-.414-.077-.598-.144-.41-.15.47-.016.433-.29-.039-.29-.21 0-.446.087-.526.193-.142.19-1.634.363-3.399.396-.488.009-.888.063-.888.12 0 .33-3.417.371-4.115.05-.448-.207-2.203-.28-2.544-.106-.103.053-.463.116-.797.14-.335.024-1.05.303-1.588.62l-.98.577-1.324-.23c-.728-.126-1.733-.23-2.232-.23-.625 0-.908-.065-.908-.208 0-.289-.351-.261-.743.058-.332.27-1.444.26-1.444-.014 0-.224-1.664.456-1.979.807-.163.182-.468.331-.678.331-.21 0-.298.07-.196.154.321.264-1.047-.016-1.795-.367-.495-.234-.89-.301-1.435-.247-.413.041-.751.133-.751.203 0 .229-1.99.731-2.99.755-1.165.027-1.889.14-3.432.538-1.195.307-1.78.316-1.78.026 0-.269-1.414-.474-2.269-.33-.548.094-.921.074-1.361-.073-.608-.202-.93-.176-2.555.207-.433.102-.761.077-1.285-.098-.4-.133-.933-.197-1.235-.149-.312.05-.704-.002-.95-.127-.584-.297-1.456-.267-2.588.09-.94.295-.997.296-2.26.068-1.224-.221-2.329-.196-2.035.045.073.06-.143.117-.48.125-2.031.048-3.816.137-3.932.197-.075.037-.575.007-1.111-.069-.644-.09-1.034-.09-1.144 0-.223.184-.297.186-1.325.036-.563-.082-.945-.08-1.05.006-.105.087-.28.088-.482.003-.585-.245-2.833-.345-3.09-.138-.638.512-3.458.763-5.155.458-1.337-.24-1.593-.248-1.34-.04.134.11.011.137-.384.084-.336-.045-.717.007-.906.124-.18.11-.488.169-.685.13-.197-.038-.43-.01-.52.064-.088.073-.47.133-.846.133-.377 0-.915.062-1.195.138-.374.102-.62.084-.92-.07-.224-.114-.89-.208-1.478-.208-.589 0-1.635-.086-2.326-.192-1.074-.164-1.278-.164-1.403.002-.113.148-.491.173-1.62.106-.948-.057-1.54-.035-1.659.063-.122.1-.924.122-2.403.064-1.558-.061-2.166-.042-2.038.063.298.245-1.41.355-2.688.173-.86-.122-1.32-.126-1.732-.014-.71.194-1.78.2-1.548.01h-.008z"/>
</svg>
