<svg preserveAspectRatio="none" xmlns="http://www.w3.org/2000/svg" width="574" height="79" viewBox="0 0 574 79">
    <path fill="#FEE9A0" fill-rule="nonzero" d="M409.77.14c0-.077.18-.14.401-.14.221 0 .33.063.242.14a.706.706 0 0 1-.4.138c-.134 0-.243-.062-.243-.139zm-1.8.973c0-.077.116-.14.257-.14.142 0 .257.063.257.14 0 .076-.115.139-.257.139-.141 0-.257-.063-.257-.14zm32.154.417c0-.076.051-.14.114-.14.062 0 .185.064.272.14.088.077.037.14-.114.14-.15 0-.272-.064-.272-.14zm-28.874.047c.176-.039.466-.039.643 0 .176.039.032.07-.322.07s-.498-.031-.321-.07zm48.938.092c0-.076.18-.139.4-.139.221 0 .33.063.243.14a.706.706 0 0 1-.401.138c-.134 0-.242-.062-.242-.139zm-1.158 0c-.088-.076-.044-.139.099-.139.141 0 .329.063.416.14.087.076.043.138-.099.138a.731.731 0 0 1-.416-.139zm-28.938.444c0-.075.183-.174.407-.22.25-.052.368-.021.306.08-.128.208-.713.323-.713.14zm-21.456-.26c-.6-.279-.677-.373-.386-.473.2-.068.537-.124.749-.124.343 0 .343.016 0 .146-.287.108-.172.122.45.056.66-.07.836-.043.836.13 0 .121.173.22.386.22.212 0 .386.067.386.149 0 .086-.22.11-.527.058-.29-.05-.666-.028-.836.048-.217.097-.534.034-1.058-.21zm57.341.374c-.09-.079.016-.102.242-.054.446.092.528.192.158.192a.699.699 0 0 1-.4-.138zm-89.904-.001c0-.077.116-.14.257-.14.142 0 .258.063.258.14 0 .076-.116.139-.258.139-.141 0-.257-.063-.257-.14zm99.549.139c0-.077.115-.14.257-.14.141 0 .257.063.257.14 0 .076-.115.139-.257.139-.141 0-.257-.063-.257-.14zm-7.262-.024c.149-.08.423-.12.609-.086.193.035.076.098-.272.147-.428.06-.528.043-.337-.06zm-60.905.101c0-.033.116-.1.258-.147.141-.047.257-.02.257.062 0 .08-.116.147-.257.147-.142 0-.258-.028-.258-.062zm-27.91-.078c-.091-.08.147-.138.564-.136.561.001.637.032.337.136-.494.173-.703.173-.9 0zm51.747.186c-.261-.141-.204-.325.1-.325.15 0 .207.058.128.128-.08.07 0 .159.178.197.179.04.198.076.044.082a1.057 1.057 0 0 1-.45-.082zm26.323.093c-.31-.109-.27-.136.209-.137.33-.002.523.059.435.137-.192.167-.165.167-.644 0zm12.237.174c.128-.058.305-.157.393-.22.089-.065.23-.018.317.104.112.158 0 .22-.393.22-.302 0-.445-.047-.317-.104zm-210.246-.061c.156-.253.627-.288.627-.048 0 .117-.164.213-.364.213-.2 0-.319-.074-.263-.165zm-43.788.034c0-.081.115-.147.257-.147.141 0 .257.027.257.061s-.116.1-.257.147c-.141.048-.257.02-.257-.061zm205.266.204c.37-.242.519-.267.519-.088 0 .068-.19.164-.422.212-.353.073-.37.053-.097-.124zm8.365.205a.702.702 0 0 1 .4-.14c.134 0 .243.063.243.14 0 .076-.18.14-.401.14-.22 0-.33-.064-.242-.14zm-6.045 0c0-.077.051-.14.114-.14.062 0 .185.063.272.14.088.076.037.14-.114.14-.15 0-.272-.064-.272-.14zm-14.02-.002c-.089-.077.02-.177.241-.223.222-.046.403-.17.403-.277 0-.107.115-.194.257-.194.336 0 .333.376 0 .488-.144.048-.195.146-.114.217.08.071-.026.13-.238.13s-.458-.064-.546-.14h-.004zm-2.186.002c0-.077.116-.14.257-.14.142 0 .258.063.258.14 0 .076-.116.14-.258.14-.141 0-.257-.064-.257-.14zm-.772 0c0-.077.116-.14.258-.14.141 0 .257.063.257.14 0 .076-.116.14-.257.14-.142 0-.258-.064-.258-.14zm47.331.217c0-.034.116-.1.257-.147.142-.048.257-.02.257.06 0 .082-.115.148-.257.148-.141 0-.257-.027-.257-.061zm-37.299.139c0-.034.116-.1.258-.147.141-.048.257-.02.257.061s-.116.147-.257.147c-.142 0-.258-.027-.258-.061zm-18.649-.078c.088-.076.377-.139.643-.139s.556.063.643.14c.093.08-.174.138-.643.138-.469 0-.736-.058-.643-.139zm13.934.186c-.313-.17-.178-.317.214-.236.212.044.386.136.386.204 0 .146-.355.165-.6.032zm-16.763-.047c-.088-.076-.037-.139.113-.139s.273.063.273.14c0 .076-.052.138-.114.138-.062 0-.185-.062-.272-.139zm83.397 0c.074-.153.165-.278.203-.278.038 0 .13.125.203.278.084.174 0 .278-.203.278-.211 0-.287-.104-.203-.278zm-89.768.158c.598-.209.991-.258 1.404-.175.513.102.47.125-.4.213-.535.054-1.166.133-1.404.175-.238.042-.058-.054.4-.213zm30.165.26c-.333-.117-.326-.136.048-.137.24-.002.507.06.594.137.201.176-.14.176-.643 0zm2.057.223c0-.03.174-.09.386-.135.212-.044.386-.02.386.055 0 .074-.174.135-.386.135-.212 0-.386-.025-.386-.055zm-27.937-.109c-.073-.064.047-.154.267-.2.22-.045.337-.139.259-.207-.079-.069.05-.125.286-.125.285 0 .376.074.272.22-.086.121-.156.267-.156.325 0 .143-.762.133-.928-.013zm35.21.219c.085-.046.307-.051.493-.011.205.044.144.077-.156.084-.271.006-.423-.027-.337-.073zm-22.964-.051c0-.189.457-.306.624-.16.08.07-.028.162-.24.206-.21.044-.384.023-.384-.046zm-8.839-.074c.082-.115.324-.208.538-.208.318 0 .33.038.07.208-.176.115-.418.209-.538.209-.12 0-.151-.094-.07-.209zm41.508.426c0-.034.115-.1.257-.148.141-.047.257-.02.257.062 0 .08-.115.147-.257.147-.141 0-.257-.028-.257-.061zm-29.047-.136c-.016-.147.05-.229.135-.183.085.047.094.167.02.267-.082.111-.143.078-.156-.084zm23.388.058c0-.153.104-.278.233-.278.127 0 .172.125.098.278-.074.153-.178.278-.233.278-.054 0-.098-.125-.098-.278zm-16.556.07c.082-.115.29-.21.463-.21.174 0 .316.095.316.21 0 .114-.209.208-.464.208-.306 0-.413-.07-.315-.208zm62.116-.126c-.586-.265-.962-.516-.835-.559.267-.09 2.255.85 2.043.965-.078.042-.62-.14-1.208-.406zm-7.362.334c-.088-.076-.044-.139.1-.139.14 0 .328.063.416.14.088.076.044.138-.1.138a.732.732 0 0 1-.416-.139zm-45.237-.07c.082-.114.194-.208.25-.208.056 0 .101.094.101.209 0 .114-.112.208-.249.208s-.182-.094-.102-.208zm-18.17.058c0-.08-.116-.105-.257-.057-.142.047-.258.02-.258-.062 0-.176.51-.189.987-.025.276.094.263.134-.065.202-.224.046-.407.02-.407-.058zm-2.058.012c0-.076.109-.139.242-.139s.314.063.401.14c.088.076-.02.138-.242.138-.22 0-.401-.062-.401-.139zm75.386.082c-.245-.16-.214-.189.161-.15.256.026.674.052.93.058.602.014.297.289-.32.289-.257 0-.604-.089-.771-.198zm-3.19.104c-.296-.16-.187-.324.215-.324.212 0 .386.094.386.208 0 .218-.305.276-.6.116zm-55.283 0c.177-.038.466-.038.643 0 .177.039.032.07-.322.07-.353 0-.498-.031-.321-.07zm2.38.1c0-.08.115-.147.257-.147.14 0 .257.028.257.062 0 .033-.116.1-.257.147-.142.047-.258.02-.258-.061zm-16.463 0c0-.08.115-.147.257-.147.141 0 .257.028.257.062 0 .033-.116.1-.257.147-.142.047-.257.02-.257-.061zm70.155.254c.175-.095.382-.138.461-.095.08.043-.063.12-.317.173-.366.075-.396.06-.144-.078zm-2.76-.185c0-.322.074-.35.707-.268.389.05.757.116.819.144.177.083-.318.286-.948.39-.496.08-.579.043-.579-.266zm-.858.249c-.094-.051-.172-.158-.172-.237 0-.087.12-.079.305.02.167.091.244.198.171.237-.073.04-.21.03-.304-.02zm-2.165 0c-.423-.093-.416-.465.015-.465.182 0 .349.125.37.278.02.153.017.274-.015.268l-.37-.081zm-66.845.17c-.082-.115-.315-.164-.55-.115-.268.055-.343.029-.22-.079.275-.24.617-.198.927.116.152.153.21.278.13.278-.08 0-.21-.09-.287-.2zm24.338.2c-.446-.149-.203-.322.358-.256.238.028.321.115.207.214-.124.106-.328.121-.565.042zm44.192.323c.251-.055.219-.121-.129-.263-.414-.17-.339-.19.694-.186.911.003 1.04.03.605.125-.304.066-.629.187-.722.27-.095.081-.309.143-.477.137-.208-.007-.198-.034.029-.083zM435.105 4.31c-.088-.078-.27-.106-.4-.062-.358.12-.291.203.16.203.221 0 .329-.064.24-.142zm.13 1.733c0-.182-.31-.263-.835-.218-.106.01-.21-.061-.232-.157-.111-.49-.085-.6.159-.693.146-.057 0-.104-.344-.105-.53-.002-.566-.031-.27-.224.287-.187.272-.243-.097-.355-.241-.072-.438-.195-.438-.272 0-.078.134-.096.297-.041.164.054.685.091 1.158.082.473-.01.86.043.86.117 0 .074.173.135.386.135.212 0 .386.062.386.139 0 .076-.116.139-.258.139-.141 0-.257.063-.257.14 0 .076.186.138.413.138.258 0 .36.077.269.204-.194.273.304.421 1.247.37 1.024-.054.611.137-1.093.508-1.098.239-1.35.256-1.35.093zm73.312.216c0-.076.051-.139.114-.139.062 0 .185.063.272.14.087.076.037.138-.114.138-.15 0-.272-.062-.272-.139zm-31.511-.204c-.819-.363-.605-.486.242-.14.572.235 1.022.272.787.066-.087-.077-.037-.14.114-.14.315 0 .328.038.115.337-.208.293-.35.28-1.258-.123zm-68.102.251c.177-.038.466-.038.643 0 .177.039.032.07-.322.07-.353 0-.498-.031-.321-.07zm-2.605-.162c-.114-.178-.144-.357-.067-.399.257-.139 1.476.1 1.3.255-.113.099.036.12.44.065l.61-.086-.608.169c-.514.142-.66.13-.944-.08-.313-.232-.342-.227-.43.076l-.094.324-.207-.324zm75.43.328c-.066-.036-.487-.08-.936-.099-.448-.018-.872-.113-.94-.21-.07-.098-.305-.14-.522-.095-.29.06-.39-.006-.375-.246.015-.18.079-.25.15-.154s.284.174.473.174c.188 0 .388.074.444.164.065.107.276.124.6.049.852-.198 1.142-.196 1.142.008 0 .108.116.196.257.196.142 0 .258.063.258.14 0 .143-.337.188-.55.073zm-77.262-.074c-.42-.097-.434-.121-.08-.13.24-.005.507.054.594.13.183.16.174.16-.514 0zm71.521.288c-.08-.071-.03-.169.114-.217.144-.048.261.01.261.13 0 .244-.154.28-.374.087h-.001zm-44.307.056c-.24-.138-.183-.194.26-.258 1.257-.183 1.704.025.626.29-.426.106-.663.097-.886-.032zm42.957.119c-.24-.338.213-.486.655-.213.235.145.6.3.813.346.212.045 0 .073-.48.06-.477-.012-.921-.1-.988-.193zm-47.506-.073c-.213-.176-.374-.54-.359-.807.016-.268.076-.409.136-.313.173.278 1.196.2 1.565-.119.186-.16.22-.253.075-.205-.145.049-.383-.032-.53-.18-.226-.229-.19-.258.237-.198.63.09.917.547.508.813-.17.111-.238.21-.15.22l.352.036c.358.036.836.24.836.355 0 .143-.968.492-1.722.621-.425.073-.66.017-.95-.223h.002zm65.951.504c0-.133.718-.477.995-.477.448 0 .631.304.26.431-.399.137-1.255.168-1.255.046zm-12.604-.051c0-.081.115-.147.257-.147.141 0 .257.027.257.061s-.115.1-.257.147c-.142.048-.257.02-.257-.061zm8.746.127c0-.075.173-.135.385-.135.213 0 .386.024.386.054s-.173.091-.386.135c-.212.044-.385.02-.385-.054zm14.404.143c0-.077.11-.14.243-.14s.313.063.4.14c.087.076-.02.14-.242.14-.22 0-.4-.064-.4-.14zm-21.864 0c-.212-.074-.27-.137-.13-.14.142-.002.084-.064-.129-.138-.33-.115-.32-.135.064-.137.248-.002.45-.069.45-.15 0-.08.116-.108.258-.061.297.1.353.766.063.763-.106-.002-.366-.063-.578-.137h.002zm-30.238-.104c-.108-.134-.179-.29-.156-.348.023-.057-.125-.104-.328-.104s-.442-.126-.532-.279c-.09-.153-.26-.278-.379-.278s-.16-.117-.09-.26c.117-.242 1.536-.574 2.453-.574.402 0 1.406.522 1.296.675-.034.05.055.111.201.138.146.026.248-.005.227-.07-.146-.444.577-.608 1.674-.38.454.093.55.546.145.681-.144.048-.202.14-.13.202.071.063-.158.154-.51.202-.735.1-.863.352-.192.376.8.03-1.055.229-2.287.246-.91.012-1.241-.042-1.392-.227zm-143.067.159c.086-.046.308-.051.493-.011.206.044.145.077-.155.084-.271.006-.423-.027-.338-.073zm181.279.223c0-.076.052-.139.114-.139.062 0 .185.063.272.14.087.076.037.138-.114.138-.15 0-.272-.062-.272-.139zm-1.03 0c0-.076.11-.139.243-.139.134 0 .314.063.401.14.088.076-.02.138-.242.138-.22 0-.401-.062-.401-.139zm-1.285-.695c0-.077-.203-.138-.45-.137-.385.002-.394.022-.064.137.485.17.514.17.514 0zm-1.274.912a1.037 1.037 0 0 0-.674-.124c-.202.042-.367.002-.367-.087 0-.296.525-.701.91-.701.442 0 .463-.07.127-.41-.208-.21-.148-.251.365-.251.416 0 .57.062.479.191-.146.205.141.243.797.107.223-.046.341-.14.263-.208-.079-.069-.032-.125.102-.125.407 0 .598.456.244.585-.977.355-1.272.404-1.59.262-.233-.105-.466-.088-.819.06-.39.163-.402.19-.059.125.239-.045.625-.024.859.047.382.116.385.15.027.343-.218.118-.325.253-.237.3.088.048.096.086.02.086-.078 0-.279-.09-.448-.2h.001zm-35.575.108c.177-.038.467-.038.643 0 .177.039.033.07-.321.07s-.498-.031-.322-.07zm12.866.179c-.604-.248-.684-.777-.146-.966.625-.22 1.873.042 1.896.396.042.68-.806.957-1.75.57zm-6.563.1c-.177-.039-.322-.187-.322-.329a.385.385 0 0 0-.246-.34c-.28-.094-.058-.51.356-.663.53-.196 2.285-.11 2.801.137.373.178.538.197.62.07.158-.244 1.227-.218 1.621.04.265.172.263.277-.015.555-.187.19-.465.348-.618.353-.153.006-.047.064.236.13.453.105.428.12-.208.129-.489.006-.662-.043-.536-.153.124-.11.045-.134-.242-.074-.236.049-.428.039-.428-.023 0-.155-.79-.104-1.462.094-.585.172-1.015.193-1.56.074h.003zM339.873 8.4c.085-.046.307-.051.493-.011.205.044.144.077-.156.084-.271.005-.423-.027-.337-.073zm140.099-.096c-.21-.25-.215-.418-.016-.605.153-.142.282-.18.286-.085 0 .096.204.174.443.174.38 0 .371.026-.064.205-.487.199-.485.204.08.208.317.003.578.067.578.144 0 .076-.049.139-.108.139-.06 0-.288.037-.508.083-.266.055-.5-.034-.693-.263h.002zm-141.198.188c0-.081.116-.147.257-.147.142 0 .257.027.257.061s-.115.1-.257.147c-.141.048-.257.02-.257-.061zm120.249.125c-.084-.073.086-.133.377-.133.622 0 .684.077.152.187-.207.044-.445.019-.53-.054zm-36.322.06c.085-.045.308-.05.493-.01.205.044.145.077-.155.084-.271.006-.423-.027-.338-.073zm-8.558-.046c0-.08.115-.147.257-.147.141 0 .257.027.257.061s-.115.1-.257.147c-.141.048-.257.02-.257-.06zm68.423.131c0-.077.098-.14.216-.14.119 0 .348-.156.51-.347.219-.26.219-.348 0-.348-.163 0-.235-.032-.16-.072.254-.138.929.092 1.059.36.071.148.343.27.604.27.345 0 .273.057-.263.208-.84.237-1.964.276-1.964.069h-.002zm-66.296.055c.085-.046.308-.051.493-.011.206.044.145.077-.155.084-.271.006-.423-.027-.338-.073zm38.585.14c.085-.047.307-.052.493-.012.205.044.144.077-.155.084-.271.006-.423-.027-.338-.073zm33.37-.06c0-.357.652-.501 1.185-.262.367.165.362.199-.052.363-.667.264-1.132.222-1.132-.101zm-20.808.032c-.434-.439-.34-.836.235-1.003 1.058-.306 1.49.313.629.898-.568.385-.585.387-.864.105zm-29.609.196c0-.03.18-.092.4-.138.228-.047.331-.024.241.055-.15.132-.64.195-.64.083zm-11.833-.072c0-.07.232-.093.515-.053.283.04.514.097.514.126 0 .03-.231.053-.514.053-.283 0-.515-.057-.515-.126zm5.917.126c.92-.159 1.286-.159 1.286 0 0 .077-.434.133-.965.125-.86-.012-.895-.025-.321-.125zm65.205.137c-.235-.206-.015-.311.537-.253.402.042.407.065.043.227-.29.13-.453.137-.58.026zm-17.743.005c-.09-.078.018-.142.24-.142.451 0 .517.084.16.203-.132.044-.311.016-.4-.061zm8.941.47c.085-.046.308-.051.493-.011.205.044.145.077-.155.084-.271.006-.423-.027-.338-.073zm44.496 1.857c.087-.233.48-.377 1.038-.38.38-.003.411.046.184.276-.298.301-1.327.39-1.222.104zm-1.538.647c.085-.047.307-.052.493-.012.205.045.144.078-.156.085-.27.005-.423-.027-.337-.074zm-503.66 3.06c.086-.047.308-.052.493-.011.206.044.145.077-.155.084-.271.005-.423-.027-.338-.074zm544.634 1.861c-.344-.265-.349-.335-.036-.504.435-.236 1.568-.12 1.782.182.165.233-.46.631-.994.631-.194 0-.532-.139-.752-.309zm-547.147.309c-.34-.079-.383-.122-.129-.127.213-.004.56.053.772.127.47.164.064.164-.643 0zm520.701.603c.177-.038.466-.038.643 0 .177.039.032.07-.321.07-.354 0-.499-.031-.322-.07zm4.138.12c-.378-.024-.75-.134-.828-.244-.11-.154.095-.2.878-.2.576 0 1.021.066 1.021.153 0 .1.254.12.707.058 1.393-.19 2.689-.23 2.516-.08-.091.08-.052.146.091.146a.73.73 0 0 0 .415-.137c.087-.076.586-.13 1.108-.119.524.011 1.226-.027 1.562-.085.432-.075.558-.059.429.054-.13.112.034.134.547.073.514-.061.623-.046.37.05-.293.111-.27.149.129.204.833.115-7.286.23-8.944.126h-.001zm-14.106 1.78c0-.174.273-.174.772 0 .312.11.275.136-.193.138-.318.001-.579-.06-.579-.137zm-505.331 0a.73.73 0 0 1 .416-.138c.142 0 .186.062.098.139a.73.73 0 0 1-.416.139c-.141 0-.186-.063-.098-.14zm-5.975 1.725c.085-.046.307-.051.493-.011.205.044.144.077-.156.084-.27.006-.423-.027-.337-.073zm2.245.092c0-.081.116-.147.257-.147.142 0 .258.027.258.061s-.116.1-.258.147c-.141.048-.257.02-.257-.061zm.472 1.706c-.235-.033-.498-.16-.584-.281-.136-.192.036-.208 1.315-.127 1.642.105 1.917.179 1.362.368-.386.132-1.325.15-2.093.04zm3.13.098c0-.078.355-.1.835-.05 1.173.12 1.21.185.107.185-.518 0-.943-.06-.943-.135zm521.21.387c.056-.09.239-.19.407-.22.188-.034.245.03.149.165-.18.253-.711.306-.557.055zm-6.935 2.168c.085-.046.307-.051.493-.011.205.044.144.077-.156.084-.27.006-.423-.027-.337-.073zm-513.247.077c-.276-.102-.094-.116.643-.05 1.276.116 1.482.197.493.194-.412-.002-.924-.066-1.136-.145zm-1.8.146c-.617-.107-.62-.112-.065-.125.319-.008.656-.03.75-.049.095-.02.22.043.28.14.118.192-.023.197-.965.034zM550.99 27.68c-.314-.11-.28-.136.178-.137.31-.002.635.06.722.137.203.177-.393.177-.9 0zm-511.05.055c.086-.046.308-.051.494-.011.205.044.144.077-.156.084-.271.006-.423-.027-.337-.073zm510.214.409c.177-.039.466-.039.643 0s.032.07-.321.07c-.354 0-.499-.031-.322-.07zM58.976 30.099c.085-.046.307-.05.493-.01.205.044.144.077-.156.083-.27.006-.423-.027-.337-.073zm488.156.363c0-.077.051-.14.114-.14.062 0 .185.063.272.14.088.076.036.139-.114.139s-.272-.063-.272-.14zm-5.59.194c.085-.046.307-.051.493-.011.205.044.145.077-.155.084-.271.006-.423-.027-.338-.073zm-1.425-.008c.174-.038.522-.04.772-.005.25.036.108.067-.317.07-.424.002-.629-.026-.455-.064zm7.4.23c-.086-.076.08-.138.371-.138s.53.062.53.139c0 .076-.167.139-.37.139-.205 0-.443-.063-.53-.14zm-500.7.704c0-.072.104-.166.233-.209.333-.111 1.078.066.907.215-.19.166-1.14.16-1.14-.006zm-5.848 1.02c.086-.046.308-.05.494-.01.205.044.144.077-.156.084-.271.005-.423-.027-.338-.073zm14.524 2.358c.174-.038.521-.04.772-.005.25.035.107.066-.317.07-.425.002-.63-.027-.455-.065zm-17.937.96c.001-.157 3.042-.186 3.22-.03.094.082-.507.135-1.533.135-.928 0-1.687-.047-1.687-.105zm-28.74.994c.085-.046.307-.05.493-.01.205.044.144.077-.156.083-.271.006-.423-.026-.337-.073zm-2.014-.042c.079-.069.375-.093.658-.053.708.1.644.18-.144.18-.362 0-.594-.057-.514-.127zM3.73 36.86c-.637-.087-.524-.107.643-.113 1.008-.004 1.267.028.9.113-.595.139-.538.139-1.543 0zm531.124 1.168c.085-.046.307-.051.493-.01.205.044.145.076-.155.083-.271.006-.423-.027-.338-.073zm-520.837.082c-.202-.176 2.079-.27 3.05-.125.517.077.94.172.94.21 0 .11-3.861.028-3.99-.085zm12.35.559c.282-.066.687-.12.9-.12.243 0 .195.044-.129.12-.283.065-.688.12-.9.12-.244 0-.196-.045.128-.12zm5.328 1.64c-1.264-.18-.743-.421.676-.312.659.05 1.567.086 2.02.078.712-.012 1.5.227.93.283-.82.08-2.927.051-3.626-.049zm-17.17.049c-.247-.126-.376-.157-.285-.069.11.108-.128.156-.736.146-1.014-.015-1.254-.236-.257-.236.354 0 .644-.06.644-.133 0-.128 1.032-.275 2.25-.322.319-.012.58-.062.58-.11 0-.05 1.034-.086 2.298-.083 1.311.004 2.237.061 2.154.134-.084.073.11.08.467.016.66-.118.642-.118 2.926.008.848.047 2.093.081 2.765.076.672-.005 1.222.053 1.222.128 0 .076.174.102.386.057.475-.098 1.672.052 1.672.21 0 .063-1.899.112-4.22.108-3.015-.005-4.328.042-4.606.167-.27.121-1.356.167-3.598.152-2.589-.017-3.299-.065-3.662-.25zm516.658.675c0-.076.11-.139.242-.139.134 0 .314.063.401.14.087.076-.02.138-.242.138-.22 0-.4-.062-.4-.139zm-495.3.696c-.087-.077-.035-.14.114-.14.15 0 .273.063.273.14 0 .076-.051.139-.114.139-.062 0-.185-.063-.272-.14zm-1.285 0c-.496-.116-.495-.12.049-.13.31-.005.635.053.722.13.188.164-.063.164-.771 0zm-1.415.147c0-.081.116-.147.257-.147.142 0 .257.027.257.061s-.115.1-.257.147c-.141.048-.257.02-.257-.061zm-7.3-.035c.06-.053-.317-.059-.837-.013-.642.056-.891.035-.775-.066.224-.197 6.082-.23 6.082-.035 0 .078-.376.15-.836.161-2.334.057-3.733.04-3.635-.047zM40.9 42c0-.091-.338-.112-.9-.055-.59.06-.9.038-.9-.063 0-.087.44-.154 1.007-.154.554 0 1.22-.037 1.48-.081.443-.076.444-.07.024.118-.245.11-.37.24-.278.29.092.05.032.09-.133.09s-.3-.065-.3-.145zm-16.977.23c0-.029.231-.085.514-.125.284-.04.45-.017.371.053-.138.121-.885.182-.885.073zm-5.66.696c0-.03.232-.086.515-.126.283-.04.45-.016.37.053-.138.121-.885.183-.885.073zm-4.63.881c0-.068.174-.087.386-.043.212.044.386.026.386-.04 0-.065.29-.128.643-.139.354-.01.643.044.643.122 0 .084.151.073.373-.026.267-.12.503-.126.835-.021.436.137.433.147-.05.165-2.539.092-3.216.089-3.216-.018zm-6.922.018a1.864 1.864 0 0 0-.771-.055c-.325.056-.337.042-.06-.065.394-.152 1.323-.064 1.323.125 0 .15-.036.15-.492-.006zm.749.128c0-.076.202-.143.45-.149.382-.008.372-.026-.064-.122-.478-.104-.47-.116.128-.167.354-.03 1.105-.012 1.669.04.564.052 1.222.038 1.462-.032s.647-.122.904-.116c.275.007.097.092-.433.21l-.9.197.843-.046c.558-.03.758 0 .59.092-.343.185-2.68.157-2.798-.034-.051-.083-.206-.151-.344-.151-.138 0-.187.056-.109.124.078.069-.04.163-.263.209-.61.127-1.135.101-1.135-.055zm36.2.187c.174-.038.522-.04.772-.005s.108.066-.317.07c-.424.002-.629-.027-.455-.065zm-2.49 3.158c-.206-.07-.727-.099-1.158-.064-.755.062-.76.059-.148-.085.678-.16 2.48-.058 2.722.154.188.165-.931.161-1.417-.005zm-5.278-.002c-.38-.075-.224-.12.633-.182.626-.046 1.317-.021 1.535.054.305.105.265.117-.173.052-.313-.046-.776-.025-1.029.046a2.484 2.484 0 0 1-.966.03zm-13.186 1.858c.085-.046.307-.051.493-.01.205.044.144.076-.155.083-.271.006-.423-.027-.338-.073zm1.731.362c-.599-.103-.604-.112-.08-.125.31-.007.636.049.723.125.087.077.123.133.08.126l-.723-.126zM7.529 51.241c.086-.047.308-.052.493-.011.206.044.145.077-.155.084-.271.005-.423-.027-.338-.073zm.638.965c.177-.038.466-.038.643 0 .177.039.032.07-.321.07-.354 0-.499-.031-.322-.07zm-3.923 1.9c-.391-.09-.238-.121.643-.127.637-.004 1.332.053 1.544.127.498.174-1.438.174-2.187 0zm-.737 2.256c-.069-.06.098-.11.37-.11.273 0 .496.05.496.11s-.167.109-.37.109c-.205 0-.428-.05-.496-.11zm14.37.526c-.443-.104-.417-.118.194-.1.389.012.707.07.707.13 0 .134-.23.126-.9-.03zm-11.575-.139c-.452-.27-.45-.278.104-.278.313 0 .499.062.412.137-.09.08.014.103.242.055.22-.045.4-.018.4.062s.318.17.707.203c.518.042.425.063-.346.078-.76.016-1.183-.056-1.519-.257zm-3.722.273c.327-.112.328-.13.005-.132-.297-.001-.308-.037-.053-.174.254-.138.361-.136.528.01.131.115.533.16 1.082.122.48-.033.671-.033.424 0-.248.033-.45.103-.452.155 0 .052-.43.107-.956.121-.674.02-.844-.01-.578-.102zm15.838.32c-.275-.148-2.231-.444-2.083-.314.175.153-.376.237-1.287.196a89.187 89.187 0 0 0-1.672-.055c-.823-.018-.849-.031-.304-.15.328-.07 1.103-.147 1.722-.168.62-.022 1.21-.085 1.312-.14.305-.166 1.064-.114 1.203.081.135.19 1.82.515 2.656.511.407-.002.423-.023.1-.137-.294-.102-.185-.135.45-.137.573-.001.835.064.835.207 0 .115-.18.209-.4.209-.247 0-.332-.068-.22-.174.145-.14.112-.14-.165 0-.375.188-1.841.237-2.147.072zm-1.371.019c.085-.047.307-.052.493-.011.205.044.144.077-.155.084-.272.005-.424-.027-.338-.073zm10.032.417c.085-.046.307-.051.493-.011.205.044.144.077-.155.084-.272.006-.423-.027-.338-.073zm-17.047.084c-.312-.11-.275-.135.193-.137.318-.002.579.06.579.137 0 .174-.273.174-.772 0zm-1.216.055c.085-.046.307-.051.493-.011.205.044.144.077-.156.084-.271.006-.423-.027-.337-.073zm9.383.131c.177-.039.466-.039.643 0s.032.07-.321.07c-.354 0-.499-.031-.322-.07zm-3.724.008c.085-.046.307-.051.493-.01.205.044.144.077-.156.083-.27.006-.423-.027-.337-.073zm-13.058.086c-.09-.08.013-.102.242-.055.445.093.527.192.157.192a.7.7 0 0 1-.4-.137zm12.73.541c0-.11 3.879-.022 4.093.094.075.04-.815.058-1.978.04-1.163-.019-2.114-.079-2.114-.134zm-3.408.06c.177-.038.467-.038.643 0 .177.04.033.07-.321.07s-.498-.03-.322-.07zM0 64.764c0-.03.232-.086.515-.126.283-.04.45-.016.37.053-.138.122-.885.183-.885.073zm1.029 2.28c-.53-.093-.553-.114-.129-.124.283-.007.688.049.9.123.451.158.138.158-.771 0zm3.601 2.78c0-.076.26-.137.579-.136.468.002.505.028.193.137-.499.174-.772.174-.772 0zm7.53 1.586c.085-.046.307-.051.493-.011.205.044.144.077-.156.084-.271.006-.423-.027-.337-.073zm484.554 3.84c0-.077.116-.14.258-.14.14 0 .257.063.257.14 0 .076-.116.139-.257.139-.142 0-.258-.063-.258-.14zm22.508.973a.73.73 0 0 1 .416-.139c.141 0 .186.063.099.14a.733.733 0 0 1-.416.138c-.142 0-.186-.062-.099-.139zm-232.28.696c-.324-.076-.372-.12-.129-.12.212 0 .617.054.9.12.325.075.372.12.13.12-.213 0-.618-.055-.901-.12zM202.49 4.078c-.186-.041-.408-.036-.494.01-.085.046.067.08.338.073.3-.006.36-.04.156-.084zm.92.79c-.37-.321-.969-.371-.969-.081 0 .197.362.327.967.348.26.009.26-.044.005-.267h-.002zm.703.695a.704.704 0 0 0-.4-.139c-.134 0-.243.063-.243.14 0 .076.18.138.401.138.22 0 .33-.062.242-.139zm-1.157-.086c0-.194-.065-.2-.45-.04a27.24 27.24 0 0 1-.558.226c-.059.022.144.04.45.04.343 0 .558-.088.558-.226zm63.407.503c.088-.076.044-.139-.098-.139a.731.731 0 0 0-.416.14c-.087.076-.044.139.098.139a.73.73 0 0 0 .416-.14zm-28.81 0c.088-.076-.086-.139-.385-.139-.3 0-.474.063-.386.14.087.076.26.139.386.139a.678.678 0 0 0 .385-.14zm-7.588 0c0-.076-.116-.139-.257-.139-.142 0-.257.063-.257.14 0 .076.115.139.257.139.141 0 .257-.063.257-.14zm-18.906 0a.73.73 0 0 0-.417-.139c-.141 0-.185.063-.098.14a.73.73 0 0 0 .416.139c.142 0 .186-.063.099-.14zm-7.074.07c-.176-.115-.451-.207-.61-.204-.16.002-.066.096.209.208.641.263.807.261.4-.004zm30.096.209c0-.077-.116-.14-.257-.14-.142 0-.258.063-.258.14 0 .076.116.139.258.139.141 0 .257-.063.257-.14zm-13.89-.014c.294-.113.213-.127-.347-.061-.44.052-.901.015-1.157-.093-.38-.16-.388-.154-.073.063.399.275 1.006.31 1.576.091zm3.134.197c-.185-.04-.407-.035-.493.01-.085.047.067.08.338.074.3-.007.36-.04.155-.084zm13.07.234c0-.076-.115-.14-.256-.14-.142 0-.258.064-.258.14 0 .077.116.14.258.14.141 0 .257-.064.257-.14zm-7.459-.078c0-.033-.116-.061-.257-.061-.142 0-.257.066-.257.147 0 .081.115.109.257.062.141-.048.257-.114.257-.148zm-10.675.078c.087-.076.104-.14.036-.14-.067 0-.307-.037-.532-.084-.3-.062-.367-.025-.25.139.18.254.51.291.746.085zm-11.034-.101c-.086-.047-.146.036-.135.182.012.162.073.195.155.084.075-.1.065-.22-.02-.266zm-6.972.518a.73.73 0 0 0-.416-.139c-.142 0-.186.063-.099.14a.73.73 0 0 0 .417.138c.141 0 .185-.062.098-.139zm-1.672 0c0-.076-.123-.139-.273-.139-.15 0-.2.063-.113.14.087.076.21.138.272.138.063 0 .114-.062.114-.139zm59.586.07c-.213-.115-.467-.209-.565-.209-.098 0-.034.094.142.209.176.115.43.209.564.209.135 0 .071-.094-.141-.21zm-1.452.031c0-.072-.166-.096-.37-.054-.202.042-.407.014-.454-.062-.05-.08-.304-.094-.596-.034-.473.099-.463.112.134.191.917.121 1.286.11 1.286-.04zm-11.478-.176c.076-.107.027-.23-.109-.276-.379-.127-.29-.344.14-.344.212 0 .386-.052.386-.116 0-.248-.322-.269-.793-.05-.6.277-.708 1.175-.127 1.055.201-.042.428-.163.503-.27zm-5.792-.03c-.04-.21.015-.46.125-.555.109-.096.132-.232.05-.303-.08-.071.115-.16.436-.195.32-.037.12-.057-.447-.045-.89.018-1.026.063-1.008.334.012.172-.105.315-.257.318-.153.002-.018.122.3.265.32.144.58.33.58.413a.15.15 0 0 0 .148.152c.08 0 .114-.173.073-.383zm-3.18.244c.088-.076.043-.139-.098-.139a.731.731 0 0 0-.416.14c-.088.076-.044.138.098.138a.731.731 0 0 0 .416-.139zm35.187-.139c-.074-.153-.237-.278-.362-.278-.31 0-.287.242.035.35.143.047.183.155.088.238-.097.085-.054.11.1.06.15-.05.213-.217.14-.37h-.001zm-35.01.6c-.186-.04-.407-.034-.493.012-.085.046.066.079.338.073.3-.007.36-.04.155-.084zm-4.68-.67c-.138-.09-.175-.205-.082-.255.093-.05.034-.092-.13-.092-.166 0-.3.087-.3.193 0 .118-.354.216-.901.25-.639.041-.9.003-.9-.131 0-.104-.105-.154-.233-.111-.134.044-.107.223.064.419.226.26.435.323.876.263.338-.046.579-.015.579.075 0 .084.287.018.639-.147.441-.208.561-.351.388-.464zm11.448.766c.088-.077.045-.14-.094-.14a.409.409 0 0 1-.35-.243c-.066-.168-.14-.125-.24.14-.144.382.332.551.684.243zm-1.414-.014c0-.069-.145-.126-.322-.127-.207-.002-.227-.039-.055-.105.323-.124.34-.867.02-.867-.127 0-.37-.104-.542-.231-.197-.145-.481-.196-.765-.138-.368.077-.393.133-.134.301.174.114.248.207.164.207-.085 0-.048.15.081.335.203.289.15.346-.392.42-1.074.146-.69.342.658.337.708-.003 1.287-.062 1.287-.132zm-15.368.061c-.209-.046-.243-.15-.098-.302.122-.127.19-.342.15-.475-.04-.134.047-.244.193-.244.16 0 .138-.084-.054-.208-.261-.17-.247-.21.076-.21.218 0 .444.08.504.175.084.135.203.131.536-.018.268-.12.718-.16 1.2-.107.907.098.948.042.256-.36-.283-.164-.514-.224-.514-.133s-.18.166-.401.166c-.22 0-.339-.055-.263-.121.287-.252-2.032-.097-2.425.16-.494.326-1.28.19-1.097-.187.155-.321-.096-.336-1.25-.072l-.866.198.724.15c.398.082.84.15.98.15s.201.048.134.106c-.214.188.489.568 1.005.544.602-.029.865.575.33.758-.23.079-.089.115.428.109.424-.005.628-.04.452-.079zm-27.333-.047c0-.077-.122-.14-.272-.14-.15 0-.201.063-.114.14.088.076.21.139.273.139.062 0 .113-.063.113-.14zm34.436.15c.266-.009.283-.057.067-.198-.348-.227-.127-.37.575-.37.407 0 .455-.036.214-.166-.17-.092-.308-.273-.308-.401 0-.13-.244-.269-.541-.311-.46-.065-.524-.026-.422.262.066.186.006.338-.132.338s-.189.13-.113.287c.085.176-.005.316-.227.363-.52.108-.454.309.084.253.248-.026.61-.052.803-.057zm-1.51-.089c0-.034-.116-.061-.257-.061-.142 0-.258.066-.258.147 0 .081.116.109.258.061.141-.047.257-.113.257-.147zm-11.523.09c.656-.082.995-.07 1.087.039.073.087.107.001.075-.19-.042-.248.144-.417.65-.59.889-.302.928-.558.067-.441-.352.047-1.159.097-1.794.11-1.343.027-1.925.246-1.46.55.166.108.23.298.142.423-.183.257-.085.265 1.233.1zm-9.056-.077c0-.125.151-.173.387-.124.538.111 1.726-.068 1.538-.232-.085-.075-.005-.14.182-.146.26-.009.263-.028.016-.082-.647-.14-.331-.445.45-.433.7.01 1.162.247.483.247-.2 0-.19.065.031.21.176.114.466.208.643.208.178 0 .467-.094.644-.209.262-.17.244-.209-.098-.209-.23 0-.417-.093-.417-.208 0-.115.087-.209.193-.209.348 0 1.638.974 1.477 1.115-.171.15-.123.16 1.067.214.707.032.803-.004.771-.297-.026-.25-.147-.314-.485-.256-.33.057-.45 0-.45-.21 0-.158-.108-.288-.24-.288-.131 0-.423-.1-.648-.221a2.617 2.617 0 0 0-.854-.26c-.272-.022-.418-.139-.374-.3.061-.229.038-.233-.187-.037-.167.146-.483.201-.902.158-.355-.037-.85-.018-1.1.041-.574.137-.748.163-1.226.185-.212.01-.386.083-.386.164s.097.115.214.076c.118-.04.215.017.215.125s-.149.227-.33.265c-.206.043-.276-.008-.187-.133.094-.132-.022-.201-.335-.2-.744.004-1.219.218-.964.435.235.2.275.274.326.606.042.27.547.274.547.005zm51.332.077c-.296-.259-.616-.166-.47.136.09.188.227.24.39.151.14-.074.175-.204.08-.287zm-36.155.266c0-.076-.116-.139-.257-.139-.142 0-.257.063-.257.14 0 .076.115.138.257.138.141 0 .257-.062.257-.139zm-25.723.008c0-.072-.097-.163-.214-.202-.118-.04-.215.02-.215.13 0 .112.097.203.215.203.117 0 .214-.059.214-.13zm43.986.131c0-.076-.115-.139-.257-.139-.141 0-.257.063-.257.14 0 .076.116.138.257.138.142 0 .257-.062.257-.139zm-15.106-.13c.153-.315.005-.427-.563-.424-.327.002-.338.026-.058.122.243.083.262.148.064.214-.4.134-.355.357.071.357.196 0 .415-.121.486-.27zm28.002.109c.537-.335.578-.396.263-.396-.363 0-1.329.509-1.15.605.258.14.37.113.887-.209zm-19.79-.225c.457-.507.234-1.33-.308-1.143-.212.073-.27.135-.129.137.147.003.134.049-.03.107-.391.14-.711.728-.396.728.139 0 .22.155.183.344-.085.418.219.34.68-.173zm81.283.569c-.186-.04-.408-.036-.493.01-.086.047.066.08.337.074.3-.007.36-.04.156-.084zm-87.834-.002a2.696 2.696 0 0 0-.771.005c-.175.038.03.067.455.064.424-.003.567-.034.316-.07v.001zm4.735.111c-.296-.101-.296-.13 0-.187.193-.037.28-.109.194-.16-.086-.05-.349-.051-.585-.002-.333.069-.363.132-.134.281.163.106.426.192.585.19.17-.001.145-.051-.06-.122zm-17.463-.05a.567.567 0 0 1-.064-.251c0-.081-.118-.108-.262-.06-.143.048-.194.146-.113.217.081.071.025.13-.125.13s-.272-.063-.272-.14c0-.076-.286-.139-.635-.139-.429 0-.591.062-.501.189.139.196 2.092.25 1.972.055zm8.424.097c0-.034-.115-.062-.257-.062-.141 0-.257.067-.257.148 0 .08.116.108.257.061.142-.047.258-.114.258-.147zm-1.886-.141c0-.11-.096-.199-.214-.199s-.215-.118-.215-.263c0-.145-.173-.3-.385-.343-.445-.093-.527.125-.101.268.203.068.195.125-.028.2-.486.161-.073.679.48.6.255-.035.463-.154.463-.263zm198.974.402c-.186-.04-.407-.036-.493.01-.085.047.067.08.338.074.3-.007.36-.04.155-.084zM252.96 8.96c.281-.396.147-.55-.238-.275-.208.149-.378.32-.378.383 0 .199.455.12.616-.108zm-45.465-.616c-.111-.38-.07-.408.502-.33.529.072.596.045.444-.174-.156-.225-.125-.235.239-.075.474.208.326.58-.23.58-.252 0-.338.121-.274.383.07.284.254.393.717.421.542.034.564.02.172-.111-.482-.16-.62-.553-.193-.553.142 0 .257.067.257.148 0 .088.239.112.58.06.342-.052.453-.04.27.03-.51.194-.006.416.694.307.353-.055.508-.106.344-.114-.323-.015-.323-.256 0-.535.128-.112.056-.174-.2-.174-.22 0-.401.062-.401.139 0 .235-.364.146-.835-.204-.408-.303-.412-.354-.046-.552.233-.126.28-.218.112-.218-.16 0-.22-.062-.132-.139.105-.092-.068-.092-.516 0-.871.18-.898.178-.898-.07 0-.114-.116-.208-.257-.208-.142 0-.258.081-.258.18 0 .127-.423.18-1.414.176-1.004-.002-1.415-.058-1.415-.19 0-.122.176-.155.514-.097.295.051.515.025.515-.06 0-.081-.225-.148-.5-.148-.661 0-.915-.24-.34-.321.277-.04.172-.07-.269-.08-.456-.01-.66.039-.551.133.189.165-.518.575-1.255.727-.681.14-.373.448.43.43.377-.008.684.001.684.02 0 .02-.405.166-.9.324-1 .32-1.172.575-.386.575.353 0 .514-.093.514-.295 0-.25.06-.268.398-.117.219.098.343.255.276.349-.079.112.054.146.39.098.306-.043.454-.15.37-.267-.076-.108.04-.233.258-.278.218-.045.333-.17.257-.278-.192-.271.347-.35 1.267-.186.754.135.755.137.064.089-.896-.063-.911.095-.03.311.371.092.6.208.51.257-.092.05-.29.023-.442-.059-.313-.169-1.26-.076-1.26.123 0 .073.215.096.478.05.277-.047.616.008.804.13.264.172.259.213-.029.216-.235.003-.185.074.15.21.445.182.528.182.723-.006.12-.117.165-.399.098-.627zm38.933.767c0-.115-.123-.209-.273-.209-.15 0-.206.058-.125.129.08.07-.057.157-.306.192-.345.049-.315.068.125.08.356.01.579-.064.579-.192zm-21.745.118c-.51-.201-.934-.19-1.068.03-.044.071.288.137.737.146.755.015.78.002.331-.176zm-17.29.137a1.803 1.803 0 0 0-.643 0c-.177.039-.032.07.321.07.354 0 .499-.031.322-.07zm-1.35-.038c0-.072-.097-.164-.215-.203-.118-.04-.214.02-.214.13 0 .112.096.203.214.203s.215-.058.215-.13zm250.415.13c-.087-.076-.21-.139-.273-.139-.062 0-.114.063-.114.14 0 .076.123.139.273.139.15 0 .2-.063.114-.14zm-287.08.009c.081-.072-.085-.121-.371-.11-.286.012-.52.07-.52.131 0 .154.71.137.89-.021zm285.713.175c-.186-.04-.408-.036-.493.01-.085.047.067.08.338.074.3-.007.36-.04.155-.084zm-7.25-.044c0-.077-.203-.139-.451-.137-.385.002-.394.021-.064.137.486.17.515.17.515 0zm-3.86.085c0-.029-.231-.086-.514-.126-.283-.04-.45-.016-.37.054.138.12.885.182.885.072zm-4.528-.166c.214-.303.2-.337-.145-.337-.165 0-.224.041-.13.092.092.05.04.175-.117.278-.18.117-.19.187-.026.187a.58.58 0 0 0 .417-.22zM418 9.597c0-.076-.123-.139-.272-.139-.15 0-.201.063-.114.14.088.076.21.139.272.139.063 0 .114-.063.114-.14zM235.11 9.544c0-.107-.174-.23-.386-.274-.263-.054-.386.007-.386.194 0 .15.174.274.386.274.212 0 .386-.088.386-.194zm8.103.194c-.088-.077-.21-.14-.273-.14-.062 0-.113.063-.113.14 0 .076.122.139.272.139.15 0 .2-.063.114-.14zm-6.678-.13c-.093-.082-.365-.147-.604-.144-.382.003-.375.03.06.207.529.216.824.182.544-.063zm-2.578-.14c-.094-.16-.27-.258-.391-.217a.429.429 0 0 1-.378-.063c-.087-.076.16-.18.546-.233.68-.092.685-.1.139-.208-.31-.062-.564-.209-.564-.326 0-.236-.14-.248-.9-.08-.473.106-.478.123-.065.214.519.115.606.57.13.673-.193.042-.141.075.128.081.247.006.45.074.45.15 0 .077.174.14.386.14.212 0 .386.073.386.162 0 .09.068.125.152.08.084-.045.075-.213-.018-.373zm226.08.464c.553-.115.25-.336-.444-.322-.31.006-.418.042-.24.081s.258.128.178.198c-.17.148-.052.158.505.043zM220.23 9.793c.474-.159-.326-.613-1.079-.613-.8 0-1.037.23-.378.367.211.044.315.14.231.214-.084.073-.311.1-.505.06-.193-.04-.43-.003-.527.082-.125.11.148.126.931.058.61-.052 1.207-.128 1.327-.168zm-4.028-.613c-.087-.076-.036-.139.114-.139s.272.063.272.14c0 .076-.051.138-.113.138-.063 0-.185-.062-.273-.139zm.438.728c-.262-.047-.242-.137.09-.41.356-.294.368-.38.075-.538-.398-.215-1.59-.107-1.33.12.105.092.008.114-.252.06a.969.969 0 0 0-.773.184c-.512.396-.736.168-.292-.297.335-.35.334-.386-.01-.315-.212.044-.328.132-.256.195.072.063-.091.152-.363.2-.272.046-.565.182-.65.303-.107.15-.041.195.211.142.202-.041.769.035 1.26.17.49.136 1.282.247 1.758.247s.715-.028.531-.06zm-3.01-.032c.201-.176-.14-.176-.643 0-.333.116-.326.135.05.137.238.001.506-.06.593-.137zm-1.243-.377c0-.221-.483-.234-.873-.023-.213.115-.213.2.005.325.33.191.869.004.869-.302h-.001zm26.331.418c.34.048.46-.006.434-.196a.318.318 0 0 0-.304-.265c-.147-.001-.093-.062.12-.137.342-.12.342-.135 0-.139-.332-.003-.334-.022-.018-.13.306-.105.312-.164.033-.346-.185-.12-.519-.22-.742-.22-.316 0-.337.038-.097.168.388.21.405.438.024.31-.192-.064-.228.002-.111.2.116.2.062.297-.166.299-.251.001-.24.04.047.15.302.115.232.134-.321.086-.782-.067-.77-.072-.553.234.121.171.264.186.669.069.283-.082.726-.12.985-.083zm-14.156.098c0-.077-.18-.14-.4-.14-.221 0-.33.063-.243.14.087.076.268.139.401.139s.242-.063.242-.14zm12.09.139c0-.077-.174-.14-.386-.14-.212 0-.386.063-.386.14 0 .076.174.139.386.139.212 0 .386-.063.386-.14zm-2.001.061c-.316-.12-.715-.169-.89-.11-.217.072-.114.137.321.203 1.045.157 1.174.136.569-.093zm-64.107.03c0-.102.289-.257.643-.344.633-.156.924-.72.37-.72-.15 0-.19.071-.089.16.111.097.071.123-.101.065-.157-.052-.58-.055-.94-.006-.654.088-.82.36-.5.812.191.268.616.291.616.034zm229.241.231c-.186-.04-.407-.035-.493.011-.085.046.067.08.338.073.3-.006.36-.04.155-.084zm-157.534-.183c-.176-.153-.496-.28-.71-.28-.344-.003-.344-.02-.004-.152.31-.12.274-.135-.188-.08-.488.057-.537.03-.326-.183.204-.207.163-.24-.232-.183-.314.044-.438.155-.358.321.068.14-.033.282-.222.318-.19.035-.024.042.368.015.476-.032.86.043 1.15.227.568.358.935.356.52-.003h.002zm-7.078.325a1.803 1.803 0 0 0-.643 0c-.177.039-.032.07.321.07.354 0 .499-.031.322-.07zm-4.259-.414c-.09-.049-.102-.144-.025-.21.164-.145.618-.02.618.168 0 .15-.348.174-.593.042zm-.271.298c-.166-.234-.123-.245.456-.125.223.046.342.14.265.207-.077.068.038.086.257.04.219-.045.34-.132.27-.193-.07-.062.097-.08.37-.042.831.118.347-.473-.522-.636-.946-.179-.97-.324-.038-.224.695.074.697.073.082-.072a3.22 3.22 0 0 0-1.323-.016c-.47.089-.788.082-.978-.02-.333-.18-.466-.127-.586.237-.064.191.096.293.554.354.557.074.58.098.177.182-.488.101-.37.379.16.375.184-.002.152-.056-.08-.137-.33-.115-.32-.135.064-.137.248-.001.45.092.45.207 0 .114.129.208.285.208.157 0 .218-.094.137-.208zm-3.935-.008c-.12-.17-.021-.198.458-.133.45.06.701.003.952-.217.21-.184.229-.26.047-.2-.174.059-.35-.02-.435-.194-.078-.16-.214-.29-.304-.29-.325.004-.756.21-.717.342.022.074-.25.214-.603.31-.495.136-.536.177-.178.179.256.001.4.059.32.129-.121.106.014.173.557.279.03.006-.014-.086-.097-.205zm-55.859.12c-.186-.04-.408-.034-.493.012-.085.046.066.08.338.073.3-.007.36-.04.155-.084zm69.145.1c.248-.085.293-.175.129-.256-.155-.075-.432-.022-.706.134-.485.277-.11.356.577.122zm-6.686-.146c0-.06-.231-.077-.514-.037-.283.04-.515.122-.515.182s.232.077.515.037c.283-.04.514-.122.514-.182zm-61.338.152c-.253-.222-.66-.041-.48.212.098.14.238.167.403.078.139-.075.173-.206.077-.29zm-4.513.272c0-.074-.174-.098-.386-.054-.212.044-.386.104-.386.135 0 .03.174.054.386.054.212 0 .386-.06.386-.135zm-1.544-.004c-.312-.109-.278-.135.185-.137.38-.001.525-.066.434-.195-.084-.118-.347-.164-.679-.117-.425.06-.506.028-.377-.154.217-.306.035-.292-.592.047-.282.153-.39.278-.238.278.151 0 .449.094.661.209.212.115.522.207.69.206.177-.001.143-.058-.084-.137zm73.569.225c0-.03-.342-.081-.758-.114-.417-.033-.7-.009-.628.054.127.111 1.386.166 1.386.06zm-70.225-.094c0-.08-.115-.108-.257-.061-.141.047-.257.113-.257.147 0 .034.116.062.257.062.142 0 .257-.067.257-.148zm-12.53-.13c-.073-.154-.225-.279-.337-.279-.112 0-.143.125-.069.278.074.153.226.279.338.279.112 0 .143-.126.069-.279zm7.386.905c0-.037-.197-.192-.439-.345-.293-.185-.497-.225-.615-.121-.098.085-.537.162-.976.17-.79.016-.962.09-.628.271.195.106 2.658.129 2.658.025zm365.317.39c-.186-.04-.408-.035-.493.011-.085.047.067.08.338.073.3-.006.36-.04.155-.084zm-3.842 2.368a1.803 1.803 0 0 0-.644 0c-.176.038-.032.07.322.07s.498-.032.322-.07zm16.189 3.335c-.186-.04-.408-.035-.493.011-.085.046.067.08.337.073.3-.006.361-.04.156-.084zm4.116 5.564c-.186-.04-.408-.036-.493.01-.085.047.067.08.337.074.3-.007.36-.04.156-.084zm-1.03 0c-.185-.04-.407-.036-.492.01-.085.047.067.08.337.074.3-.007.361-.04.156-.084zm-4.372 0c-.186-.04-.408-.036-.493.01-.085.047.067.08.337.074.3-.007.361-.04.156-.084zm5.402.278c-.186-.04-.408-.035-.493.01-.085.047.067.08.337.074.3-.007.36-.04.156-.084zM43.472 28.792c0-.076-.116-.139-.257-.139-.142 0-.257.063-.257.14 0 .076.115.138.257.138.141 0 .257-.062.257-.139zm500.316 7.648c.212-.014-.066-.083-.618-.153-1.032-.131-1.342-.096-1.091.123.13.113.387.117 1.709.03zm1.708.21c.343-.185.327-.208-.147-.208-.302 0-.533.09-.533.209 0 .115.066.209.148.209.08 0 .32-.094.532-.21zm-8.348.393c-.186-.04-.408-.036-.493.01-.085.047.067.08.337.074.3-.007.361-.04.156-.084zm-505.206.187c-.384-.093-.662-.093-.834 0-.172.093.02.14.577.14.77 0 .79-.011.257-.14zm-4.532-.027c-.274-.112-.615-.204-.756-.204-.142 0-.033.092.242.204.274.112.615.204.756.204.142 0 .033-.092-.242-.204zm-4.452.112c-.46-.03-1.212-.03-1.672 0-.46.031-.084.056.836.056.92 0 1.296-.025.836-.056zm2.25.016c0-.03-.238-.054-.529-.054-.291 0-.461.06-.378.133.138.12.908.053.908-.079zm20.767.962a2.696 2.696 0 0 0-.771.005c-.175.038.03.067.455.064.424-.002.567-.034.316-.069zm480.112 1.531c-.186-.04-.408-.035-.493.011-.085.047.067.08.338.074.3-.007.36-.04.155-.085zm-477.47.663c.54-.017.575-.041.218-.154-.473-.149-2.848-.02-2.66.145.066.058.498.087.96.067a120.43 120.43 0 0 1 1.482-.058zm486.94.769c0-.132-.77-.199-.908-.079-.084.074.087.133.378.133.29 0 .53-.024.53-.054zm-1.287.193c0-.076-.174-.139-.386-.139-.212 0-.386.063-.386.14 0 .076.174.139.386.139.212 0 .386-.063.386-.14zm-488.226.549c0-.081-.115-.109-.257-.062-.141.048-.257.114-.257.148 0 .033.116.06.257.06.142 0 .257-.065.257-.146zm-1.902-.233c-.085-.046-.146.036-.135.183.012.162.073.195.155.084.075-.1.065-.22-.02-.267zm487.106.566a1.802 1.802 0 0 0-.643 0c-.177.039-.032.07.321.07.354 0 .498-.031.322-.07zm-495.75.231c0-.076-.203-.138-.45-.137-.385.003-.394.022-.064.137.485.17.514.17.514 0zm-4.823.047a1.803 1.803 0 0 0-.643 0c-.177.039-.032.07.321.07.354 0 .499-.031.322-.07zm15.418.276c-.186-.04-.408-.036-.493.01-.086.047.066.08.337.074.3-.007.36-.04.156-.084zm-3.585.002a1.803 1.803 0 0 0-.644 0c-.176.039-.032.07.322.07s.498-.031.322-.07zm-2.766-.047c-.087-.077-.338-.14-.557-.14-.234 0-.342-.079-.261-.192.095-.134-.01-.172-.35-.124-.395.056-.424.102-.155.247.182.099.554.21.827.247.273.038.532.076.576.085.044.009.007-.047-.08-.123zm516.714.186a1.803 1.803 0 0 0-.643 0c-.177.039-.032.07.322.07.353 0 .498-.031.321-.07zm-531.247.092c-.92-.16-1.286-.16-1.286 0 0 .077.434.133.964.125.861-.012.896-.026.322-.125zm8.225.066c-.236-.154-2.052-.107-2.05.054 0 .049.513.09 1.14.092.787.003 1.069-.043.91-.146zm13.334.082c.064-.104-.032-.157-.225-.122-.186.034-.388.143-.45.244-.065.104.032.156.225.121.185-.033.388-.143.45-.243zm-1.094.117c.067-.059-.018-.153-.189-.21-.17-.057-.356-.03-.411.06-.056.09-.337.163-.626.163-.437 0-.471-.035-.204-.208.274-.18.196-.207-.547-.198-.478.007-.723.043-.546.081.507.11.376.3-.258.37-.318.036.15.061 1.04.057.89-.004 1.674-.057 1.741-.115zm-15.413-.056c-.428-.232-1.06-.254-1.837-.063-.372.091-.256.104.42.047.554-.047 1.007-.017 1.11.073.095.083.29.151.433.151.143 0 .087-.094-.125-.208zm11.35.155c-.245-.1-.37-.224-.278-.273.092-.05.032-.09-.133-.09-.323 0-.41.31-.129.463.095.05.355.09.579.088.353-.003.347-.029-.039-.188zm-2.11-.317c-.485-.09-1.44-.134-2.12-.095-1.433.08-2.544.145-2.912.17-.141.01-.257.067-.257.128s.451.108 1.003.105c.552-.004.939-.064.86-.133-.081-.072.26-.091.793-.044.515.045 1.004.022 1.087-.05.083-.073.26-.096.394-.051.135.045.178.14.096.21-.081.072-.032.13.11.13a.731.731 0 0 0 .416-.139c.258-.226.64-.158.469.084-.138.194-.09.199.393.036.537-.181.53-.19-.332-.35zm-2.202.37c-.504-.176-.845-.176-.643 0 .087.077.354.138.593.137.375-.002.382-.02.05-.137zm-7.926.044c-.186-.04-.408-.035-.493.011-.086.047.066.08.337.073.3-.006.36-.04.156-.084zm-9.003 0c-.186-.04-.408-.035-.493.011-.086.047.066.08.337.073.3-.006.36-.04.156-.084zm3.6.14c-.185-.04-.407-.036-.492.01-.086.047.066.08.337.074.3-.007.361-.04.156-.084zm.467 2.103c0-.034-.116-.061-.257-.061-.142 0-.257.066-.257.147 0 .081.115.109.257.061.141-.047.257-.113.257-.147zm524.752 1.052c0-.077-.115-.14-.257-.14-.141 0-.257.063-.257.14 0 .076.116.139.257.139.142 0 .257-.063.257-.14zM40.95 50.117c-.187-.04-.408-.035-.494.01-.085.047.066.08.338.074.3-.007.36-.04.155-.084zm501.038.234c0-.077-.203-.138-.45-.137-.385.002-.394.022-.064.137.486.17.515.17.515 0h-.001zm-.772.25c0-.142-1.058-.14-1.475.003-.189.064.047.109.579.109.493 0 .896-.05.896-.112zm-516.73.211c-.185-.04-.407-.035-.493.011-.085.046.067.08.338.073.3-.006.36-.04.155-.084zm514.93.18c0-.03-.174-.091-.386-.135-.212-.044-.386-.02-.386.055 0 .074.174.134.386.134.212 0 .386-.024.386-.054zm-520.508-.085c.088-.077-.104-.138-.435-.137-.478.002-.519.029-.209.137.48.168.452.168.644 0zm521.442.235c.246.051.308.004.199-.15-.222-.312-.548-.28-.898.09-.237.248-.233.279.022.15.176-.09.481-.13.678-.09zM17.124 53.277c-.453-.087-1.69-.035-1.69.072 0 .024.492.04 1.093.035.728-.007.928-.043.597-.107zm-3.49.412c.212-.074.27-.135.128-.135-.141 0-.43.06-.643.135-.212.074-.27.135-.129.135.142 0 .431-.06.643-.135zm16.977 2.643c0-.077-.116-.14-.258-.14-.141 0-.257.063-.257.14 0 .076.116.139.257.139.142 0 .258-.063.258-.14zm-6.431 3.956c0-.034-.18-.062-.401-.062-.22 0-.329.064-.24.142.147.128.64.067.64-.08zm9.99.982c-.07-.038-.437-.083-.815-.1-.378-.017-.687-.08-.687-.14 0-.06-.096-.108-.214-.108a.212.212 0 0 0-.214.209c0 .15.286.208 1.029.208.566 0 .971-.031.9-.069zm-3.688.208c-.087-.076-.319-.139-.515-.139-.195 0-.427.063-.514.14-.09.078.131.138.514.138.384 0 .605-.06.515-.139zm-6.688.696c.095-.083-.185-.134-.692-.125-.8.013-.813.02-.208.125.353.061.665.117.692.125.027.007.12-.049.208-.125zm-3.344.695c-.087-.076-.21-.139-.272-.139-.063 0-.114.063-.114.14 0 .076.123.138.272.138.15 0 .201-.062.114-.139zm1.543.14c-.087-.077-.21-.14-.272-.14-.062 0-.114.063-.114.14 0 .076.123.138.273.138.15 0 .2-.062.113-.139zM8.07 66.178c-.176-.155-.868-.139-.868.02 0 .072.224.121.497.11.273-.011.44-.07.37-.13zm.21.35c-.186-.04-.408-.034-.493.012-.086.046.066.079.337.073.3-.007.36-.04.156-.084zm-1.85.366c0-.081-.115-.109-.256-.062-.142.048-.258.114-.258.148 0 .033.116.061.258.061.141 0 .257-.066.257-.147zm5.965.747c-.185-.04-.407-.035-.493.011-.085.047.067.08.338.073.3-.006.36-.04.155-.084zm-1.077-.044c0-.076-.238-.139-.53-.139-.29 0-.458.063-.37.14.087.076.326.138.53.138.203 0 .37-.062.37-.139zm-2.7.696c-.088-.077-.327-.14-.53-.14-.204 0-.371.063-.371.14 0 .076.238.139.53.139.29 0 .458-.063.37-.14zm1.543.695c-.088-.076-.32-.139-.515-.139s-.427.063-.514.14c-.09.079.13.138.514.138s.605-.06.515-.139zm346.495 9.872c.106-.092-.345-.134-1.276-.118-1.161.021-1.554-.032-2.03-.274-.569-.289-1.1-.41-.854-.195.066.057-.382.092-.996.078-.65-.015-1.23.05-1.39.153-.21.137-.59.148-1.625.044a54.012 54.012 0 0 0-3.102-.23c-.115-.006-.137-.073-.05-.15.088-.076-.128-.198-.48-.27-.84-.173-1.714-.584-1.55-.728.073-.063-.056-.114-.285-.114-.228 0-.344.062-.257.139.088.076-.015.139-.227.139-.213 0-.592.188-.843.417-.475.435-1.374.571-1.374.208 0-.215-.066-.207-1.479.189-.324.09-.578.104-.578.03 0-.144-1.849-.027-2.058.13-.173.13-1.03.12-1.03-.012 0-.057.146-.136.322-.175.192-.042.14-.074-.128-.08-.248-.006-.45.047-.45.118 0 .283-1.419.216-2.006-.095-.36-.19-.912-.314-1.415-.316-.453-.002-1.314-.123-1.913-.27-.95-.233-1.137-.242-1.46-.067-.205.11-.503.201-.663.201-.16 0-.22.063-.132.14.092.08-.146.137-.563.136-.561-.002-.637-.032-.337-.137.399-.14.201-.19-.579-.146-.248.013-.45-.067-.45-.178 0-.208-.524-.371-1.194-.371-.209 0-.326.047-.26.104.065.057-.859.082-2.054.055-1.88-.043-2.232-.014-2.612.215-.459.276-1.597.4-1.597.173 0-.22-.497-.144-.96.148-.242.153-.617.277-.833.276-.343-.002-.345-.019-.014-.131.324-.111.315-.143-.065-.222-.243-.05-.443-.173-.443-.272 0-.099-.433-.302-.964-.45-.926-.26-.989-.261-1.607-.025-.354.136-1.28.286-2.059.335-1.017.063-1.306.047-1.029-.057.33-.124.319-.145-.08-.147-.529-.003-1.51.25-1.752.45-.089.074-.416.09-.727.037-.312-.054-.507-.13-.434-.17.353-.19-.797-.574-1.637-.546-.495.017-1.234-.057-1.643-.163-.604-.157-.854-.16-1.346-.019a2.148 2.148 0 0 1-1.169.039c-.44-.107-.673-.078-1.058.13a1.978 1.978 0 0 1-1.111.203c-.34-.035-.618-.01-.618.056 0 .19-.375.14-.926-.124-.601-.287-1.132-.369-1.132-.173 0 .076-.17.139-.378.139-.207 0-.322.078-.254.174.076.107-.118.18-.506.193-.346.01-.685-.06-.753-.155-.078-.11-.506-.16-1.155-.135-.702.027-1.075-.023-1.17-.156-.106-.151-.293-.165-.812-.058-.371.076-.81.092-.974.034-.165-.057-.879-.106-1.586-.108-.708-.003-1.55-.055-1.872-.116-.407-.078-.563-.06-.514.055.165.39-.603.266-.864-.14-.204-.315-.487-.458-1.02-.516-.406-.044-.675-.135-.598-.202.077-.067-.041-.122-.262-.122-.22 0-.4-.05-.4-.109 0-.06-.561-.122-1.246-.138-1.1-.026-1.28.01-1.535.314-.321.38-1.425.598-1.918.378-.46-.206-1.73-.047-1.558.195.097.137-.067.194-.548.194-.377 0-.618-.058-.536-.13.333-.292-2.752-.79-3.689-.595-.303.063-.28.1.116.184.462.097.458.105-.062.114-.81.015-1.395-.135-1.2-.306.108-.095.007-.115-.28-.055-.248.051-.69.002-.989-.112-.38-.144-.635-.162-.861-.06-.177.079-.706.148-1.175.153-.47.005-.97.057-1.111.114-.624.254-1.967.3-2.41.084-.475-.233-2.056-.268-3.057-.069-.6.12-1.864-.098-1.864-.32 0-.066-.283-.081-.628-.034a1.93 1.93 0 0 1-1.206-.206c-.318-.16-.68-.292-.802-.292-.123 0-.142-.072-.04-.16.21-.185-.294-.05-.954.255-.27.125-1.258.208-2.83.237-1.328.025-2.984.12-3.679.21-1.003.131-1.306.13-1.465-.01-.11-.097-.28-.133-.377-.08-.244.131-1.138-.145-1.138-.352 0-.093-.29-.17-.643-.17-.354 0-.643.041-.643.09 0 .193-1.368.273-1.583.093-.178-.149-.26-.147-.446.01a.597.597 0 0 1-.515.096 1.107 1.107 0 0 0-.607.016c-.632.218-2.093.444-2.34.361-.14-.046-.606-.099-1.038-.117-.432-.019-.818-.087-.858-.152-.105-.17-4.852-.13-5.26.045-.528.226-1.708.341-1.886.185-.088-.076-.384-.14-.659-.14s-.5-.062-.5-.138c0-.077-.462-.14-1.028-.14-.566 0-1.03.063-1.03.14 0 .076-.131.139-.292.139a1.2 1.2 0 0 0-.58.2c-.456.322-1.567.408-2.03.158-.222-.12-.528-.22-.68-.22-.152 0-.276-.046-.276-.103 0-.058-.337-.117-.749-.133-.51-.02-.96.087-1.414.332-.366.198-.666.295-.666.214 0-.132-1.967-.726-2.405-.726-.102 0-.528.19-.948.422-.42.232-.763.353-.763.268 0-.087-.21-.117-.493-.068-.27.046-.557.028-.635-.04-.191-.167-3.035-.183-3.512-.02-.207.07-.282.13-.168.13.115.003.14.063.055.137-.095.084-.412.076-.85-.022-.385-.085-1.74-.177-3.014-.203-1.273-.027-2.662-.06-3.087-.075a17.995 17.995 0 0 0-1.82.067c-.84.076-1.155.041-1.58-.172-.569-.287-1.616-.246-1.616.062 0 .226-1.275.361-1.845.196-.24-.07-.74-.126-1.111-.126-.385 0-.607-.06-.517-.14.088-.076.024-.138-.14-.138-.165 0-.234-.094-.152-.209.081-.115.048-.208-.074-.208a.523.523 0 0 0-.37.208c-.08.115-.32.209-.529.209-.21 0-.473.088-.587.195-.325.31-.845.3-2.877-.045-1.468-.25-2.27-.308-3.526-.254-.928.04-1.66.014-1.707-.062-.045-.073-.403.028-.796.225-.745.373-1.203.457-1.203.22 0-.077-.173-.14-.385-.14-.213 0-.386-.055-.386-.123 0-.148-1.318-.108-1.805.055-.191.064-.835.124-1.432.133-.598.01-1.26.095-1.472.19-.505.227-1.658.07-1.996-.272-.187-.19-.432-.24-.866-.182-.332.045-.682.015-.776-.068-.238-.208-1.616-.19-1.759.024-.09.135-.23.137-.635.009a2.857 2.857 0 0 0-1.062-.089c-.357.051-.546.012-.548-.113-.005-.12-.073-.137-.193-.044-.54.417-5.509.719-5.037.306.105-.092-.08-.119-.508-.075-.396.041-.61.015-.52-.064.092-.08-.09-.096-.459-.038l-1.06.163c-.248.037-.45.012-.45-.057 0-.068-.35-.096-.776-.062a6.237 6.237 0 0 1-1.544-.111c-.513-.115-.875-.127-1.09-.035-.176.076-1.478.182-2.893.236-1.415.053-3.01.118-3.545.143-.617.029-1.113-.03-1.357-.162-.341-.185-.456-.183-1.021.017-.559.198-.636.2-.636.014 0-.117-.174-.212-.386-.212-.212 0-.386-.07-.386-.155 0-.097-.227-.075-.607.06-.537.19-.69.191-1.334.01-1.033-.29-3.225.008-2.8.379.157.138-.026.158-1.69.188-.773.014-1.255-.049-1.451-.19-.218-.157-.384-.173-.643-.06-.207.089-.56.105-.864.039a7.54 7.54 0 0 0-1.222-.122c-.389-.006-.707-.065-.707-.132 0-.129-1.393-.482-1.893-.48a7.14 7.14 0 0 0-.87.102c-.439.077-.728.011-1.218-.275-.523-.304-.713-.343-1.02-.206-.482.217-3.94.295-4.705.107-.407-.1-.875-.098-1.548.01-1.499.24-3.216.338-3.026.172.09-.078.04-.142-.11-.142s-.273.066-.273.147c0 .084-.138.1-.321.037-.43-.148-.726-.153-1.406-.024-.313.059-.631.053-.707-.013-.075-.066-1.208-.099-2.517-.072-1.309.026-2.771.05-3.25.054-.506.003-1.025.11-1.24.252-.205.134-.306.173-.225.085.274-.3-.945-.348-3.28-.13-.878.082-1.423.064-1.855-.062-.61-.176-3.324-.124-4.724.091-.433.067-.564.048-.437-.064.115-.1.046-.131-.184-.083-.201.041-.555-.027-.786-.152-.39-.21-.487-.205-1.31.07-.668.223-1.006.262-1.366.158-.545-.158-2.115-.165-2.115-.01 0 .056-.405.128-.9.16-.495.03-.9.007-.9-.055 0-.061-.232-.111-.515-.111-.283 0-.514-.093-.514-.206 0-.175-.498-.196-3.28-.14a187.39 187.39 0 0 0-3.788.102c-.292.02-.51-.048-.514-.16-.005-.107-.234-.237-.51-.29-.557-.105-2.455.242-2.455.449 0 .075-.437.09-1.029.036-.676-.062-1.029-.042-1.029.057 0 .236-1.212.178-1.385-.066a.388.388 0 0 0-.413-.13c-.143.047-.26.016-.26-.07 0-.095-.3-.13-.77-.09-.424.036-.836.009-.916-.062-.08-.07-.44-.087-.8-.038-.36.049-.73.026-.82-.051-.092-.078-1.208-.185-2.481-.24a135.305 135.305 0 0 1-3.087-.16 33.178 33.178 0 0 0-1.286-.075c-.283-.008-1.087-.101-1.787-.206-.851-.128-1.357-.145-1.53-.052-.341.184-2.214.18-2.214-.004 0-.097-.169-.095-.52.007-.285.082-.633.112-.771.066-.139-.047-.252-.008-.252.084 0 .102-.215.065-.543-.096-.44-.214-.97-.268-2.765-.28-1.222-.01-2.685-.057-3.251-.105a69.05 69.05 0 0 0-2.444-.15 38.125 38.125 0 0 1-1.543-.083c-.362-.067-2.842-.12-9.26-.198-3.891-.047-7.943-.152-9.004-.232a80.635 80.635 0 0 0-3.473-.182c-.848-.019-1.717-.07-1.929-.114-1.01-.208-2.284-.268-6.813-.32-5.757-.066-7.098-.204-7.567-.776-.25-.306-.514-.404-1.14-.424-.83-.027-1.752-.06-2.542-.094-.281-.012-.388-.095-.294-.228.11-.156-.041-.208-.6-.208-.411 0-.904-.078-1.094-.174-.277-.14-.31-.14-.165 0 .198.19.207.188-1.223.236-.729.024-.876-.002-.558-.097.237-.072.653-.1.924-.061.329.046.494-.002.494-.144 0-.17.2-.196.964-.13.662.057.844.042.58-.05-.213-.072-.85-.138-1.416-.144-.566-.007-1.26-.066-1.543-.132-.477-.11-.468-.122.129-.15.353-.018.96-.04 1.346-.05.387-.01.843-.093 1.013-.185.241-.13.127-.187-.516-.257-.952-.103-1.124-.2-.82-.465.132-.116.711-.195 1.485-.202 1.13-.01 1.253-.042 1.135-.287-.073-.15-.172-.209-.222-.13-.049.08-.636.131-1.305.114-.85-.022-1.061.003-.702.085.498.113.496.117-.043.127-.306.005-.77.046-1.029.09-.446.077-.447.07-.02-.12.551-.245.574-.378.063-.378-.212 0-.385-.062-.385-.139 0-.076-.123-.139-.273-.139-.15 0-.209.056-.131.123.188.165-.706.122-.927-.045-.104-.077-.326-.061-.552.04-.3.135-.454.129-.745-.029a3.06 3.06 0 0 0-.863-.267c-.372-.05-.325-.072.19-.084.377-.009.73-.087.783-.174.063-.103.242-.08.517.07.231.125.631.223.889.217.422-.009.417-.022-.046-.13-.476-.11-.467-.12.114-.128.611-.01.615-.016.128-.23-.413-.183-.423-.207-.057-.145.243.04.518.008.61-.073.116-.1.233-.093.367.024.138.121.248.084.37-.124.097-.163.283-.297.415-.297s.24-.056.24-.126-.219-.095-.486-.057c-.267.037-.546.015-.62-.05-.074-.064.428-.122 1.116-.128.688-.006 1.42-.087 1.627-.18.255-.114 1.12-.15 2.701-.113 1.783.042 2.356.011 2.458-.132.09-.128-.088-.189-.566-.192-.605-.003-.638-.023-.244-.147.554-.175.862-.208 3.1-.338 1.265-.073 1.678-.144 1.477-.253-.154-.083-.77-.133-1.37-.11-.903.033-1.033.008-.756-.145.23-.127.967-.177 2.379-.16 1.899.022 2.461-.078 1.756-.314-.16-.053-.748-.096-1.309-.096-.56 0-.881-.047-.712-.103.23-.077.233-.128.012-.202a.977.977 0 0 0-.606.038c-.353.156-1.044-.15-.745-.329.098-.059.03-.061-.148-.005-.18.056-.26.16-.178.231.186.163.228.166-1.274-.08-1.54-.253-3.15-.27-3.326-.034-.103.14-.133.14-.15 0-.01-.096-.142-.174-.292-.174s-.22.047-.154.105c.065.057-.272.111-.75.12-.479.01-.808-.038-.732-.104.076-.066.025-.12-.114-.12-.138 0-.453-.043-.7-.094-.306-.063-.39-.041-.263.07.121.106-.018.162-.401.162h-.587l.572-.216c.753-.286.725-.48-.072-.48-.353 0-.643-.047-.643-.106s1.129-.13 2.508-.157c2.617-.053 3.706-.095 3.923-.15.07-.02.39-.023.708-.01.318.015.578-.049.578-.14 0-.106.117-.121.322-.043.375.144 3.437.138 5.001-.009.957-.09 2.12-.497 1.42-.497-.145 0-.208-.116-.14-.257.092-.19.304-.242.812-.198.54.047.605.028.302-.089a2.838 2.838 0 0 0-.836-.15c-.247-.001-.45-.075-.45-.164 0-.09-.076-.121-.17-.07-.092.05-.345.013-.562-.082-.327-.144-.367-.134-.234.057.124.18-.076.26-.917.367-.591.076-1.249.144-1.46.15-.213.008-1.137.078-2.054.158-.917.079-1.807.115-1.977.08-.17-.036-.346-.01-.39.055-.045.066-.426.084-.846.04-.667-.07-.7-.094-.257-.184.295-.061-.084-.087-.908-.064-.778.023-1.559-.022-1.735-.099-.176-.076-.552-.106-.836-.066-.284.04-.451.016-.372-.053.184-.161-.057-.161-.615 0-.288.083-.655.061-1.076-.065-.351-.105-.504-.193-.338-.196.165-.003.502-.047.75-.098.342-.071.395-.047.223.104-.151.133.014.113.5-.06.41-.144.996-.228 1.344-.192.34.035 1.109.01 1.708-.055.6-.065 2.19-.157 3.533-.203 1.343-.046 2.672-.15 2.953-.232.28-.081.905-.164 1.389-.185.484-.02.971-.118 1.084-.217.112-.098.53-.191.926-.207.398-.016.752-.041.787-.057.113-.05.563-.098 1.096-.116.432-.014.469-.058.225-.269-.243-.211-.603-.248-2.217-.226-1.16.016-1.787-.021-1.576-.093.192-.066.234-.126.093-.132-.142-.007-.026-.063.257-.124.295-.065.654-.052.84.029.23.099.466.073.793-.087.256-.125.63-.229.83-.23.303-.003.3-.026-.02-.137-.212-.074-.264-.136-.115-.137.148-.002.38.054.514.123.135.07.766.157 1.402.195.637.038 1.62.145 2.187.237.758.124 1.216.128 1.74.016.702-.149.705-.155.22-.417-.36-.195-.979-.284-2.291-.333-.99-.036-1.919-.106-2.065-.155-.147-.049-.568-.015-.936.076-.475.117-.75.122-.944.016-.348-.188 1.552-.383 2.368-.243.344.059.497.043.4-.043-.088-.076-.016-.135.16-.132.175.003.547-.003.826-.016.498-.021.498-.025-.018-.22-.29-.11-.813-.183-1.163-.162-.35.02-1.384-.018-2.297-.085a60.724 60.724 0 0 0-3.797-.117c-1.502.004-2.085-.04-1.961-.148.122-.106-.014-.121-.435-.047-.505.088-2.262.093-4.92.015-.247-.007-.45-.097-.45-.2 0-.129-.186-.162-.579-.104-.448.067-.488.055-.177-.052.377-.13 1.678-.178 3.457-.129.425.012 1.11-.03 1.525-.092a4.685 4.685 0 0 1 1.478.034c.427.087.784.096.87.021.08-.07-.113-.127-.428-.127s-.496-.04-.403-.091c.093-.05.025-.188-.15-.305-.255-.17-.254-.192.003-.109.177.058.321.038.321-.043 0-.135-.179-.164-1.286-.21a2.922 2.922 0 0 1-.658-.107c-.149-.05-.612-.086-1.03-.08a9.177 9.177 0 0 1-1.4-.098c-.605-.104-.613-.117-.127-.22.421-.088.367-.11-.3-.118-.448-.005-.873-.088-.945-.183-.077-.104-.138-.076-.15.07-.01.133.154.243.366.243s.386.064.386.141c0 .08-.265.106-.594.062a22.954 22.954 0 0 0-1.022-.115c-.507-.04-.913-.227-.493-.227.162 0 .222-.1.134-.222-.136-.192.085-.218 1.616-.194 2.439.04 2.683.024 2.61-.175-.04-.106.207-.172.623-.17.379.003.632-.044.564-.104-.069-.06-.315-.109-.547-.109-.305 0-.344-.042-.14-.152.202-.11.436-.107.844.011.723.21 1.022.06.385-.192-.325-.129-1.337-.199-3.067-.214-1.502-.012-2.69-.086-2.841-.175-.183-.109-.127-.128.191-.068.526.1.587-.049.13-.315-.263-.153-.24-.172.12-.104.243.046.517.018.61-.064.095-.082.24-.093.33-.024.089.069.971.085 1.962.037.99-.048 1.563-.097 1.273-.109-.29-.012-.659-.093-.819-.18-.17-.092-.485-.112-.759-.049-.614.143-2.654.168-2.654.034 0-.058-.308-.105-.686-.105-1.58 0-.277-.12 2.23-.206 1.485-.05 2.802-.145 2.925-.21.123-.065.403-.082.621-.036.26.054.333.026.21-.08-.243-.214.17-.21.565.003.24.13.31.122.313-.034.005-.172.041-.171.253.007.157.131.251.146.253.04.005-.167.707-.155 2.77.048.46.045.836.028.836-.038s.358-.127.793-.135c.523-.01.676.024.45.102-.246.084-.18.118.236.12.318.001.579-.054.579-.121 0-.068.34-.15.758-.184.417-.033.7-.009.628.054-.072.063-.384.121-.694.13-.481.014-.493.026-.082.083.265.037.815-.066 1.222-.229.555-.222.74-.246.74-.098 0 .222.627.399.896.253.233-.126 1.684-.161 5.552-.137.788.005 1.677-.061 1.977-.148.3-.087 1.738-.166 3.198-.176l2.653-.02-1.93-.11a137.65 137.65 0 0 0-3.792-.155c-1.025-.024-1.865-.085-1.865-.136 0-.05-1.168-.098-2.594-.105-1.67-.01-2.837-.084-3.277-.208l-.683-.194.838.036c.46.02.913.076 1.004.125.294.159 1.577.096 1.71-.084.105-.139.135-.139.15 0 .032.263 1.05.213 1.05-.05 0-.166.172-.208.65-.158.356.036.71.013.785-.053.076-.066.507-.118.959-.117 1.876.008 4.698-.08 4.937-.152.142-.043.518-.067.836-.054.319.014.58-.024.58-.084 0-.06.348-.15.773-.201.426-.05.961-.193 1.189-.316.284-.154.829-.219 1.734-.207 1.547.021 4.277-.247 4.277-.42 0-.065-.222-.08-.493-.034-.27.046-.562.023-.647-.051-.086-.075-.558-.1-1.051-.057-.55.048-.896.021-.896-.069 0-.08-.202-.173-.45-.206-.247-.032.418-.044 1.48-.027 1.06.018 2.143.08 2.405.139.262.058.551.05.643-.018.092-.069.728-.142 1.413-.162 1.119-.033 2.41-.258 2.183-.38-.048-.026-3.157-.071-6.909-.1-3.752-.03-6.944-.095-7.094-.145-.344-.115-6.962-.013-7.794.12-.353.057-.557.045-.475-.027.154-.135-1.253-.156-1.5-.023-.08.044-.483.027-.895-.036-.412-.064-1.184-.09-1.717-.056-.745.046-.879.025-.582-.091.29-.115.067-.134-.9-.08-1.051.06-1.18.045-.708-.079.54-.141.817-.408.386-.37a4.31 4.31 0 0 1-.579-.021c-.212-.02.656-.11 1.93-.198 1.273-.09 2.416-.116 2.54-.06.122.055.395.065.604.022.209-.044.47-.002.579.095.149.13.33.135.726.02.666-.192 1.892-.222 3.46-.084.858.075 1.222.06 1.222-.05 0-.088.123-.159.273-.159.15 0 .19.073.088.161-.13.114-.001.133.435.067.8-.123 4-.21 10.315-.283 2.786-.031 5.216-.108 5.4-.17.184-.06 1.197-.129 2.251-.15 1.055-.023 2.022-.097 2.149-.166.316-.17-3.912-.69-5.916-.727-.968-.017-1.536-.083-1.441-.165.097-.086-.124-.101-.59-.042-.41.053-.919.09-1.13.083-1.938-.066-4.046-.05-3.955.03.14.122-1.32.03-1.737-.109-.168-.056-.24-.045-.16.024.134.118-8.087.128-14.39.018-1.625-.029-2.562.005-2.468.087.09.08.014.087-.192.018-.306-.102-1.345-.162-4.03-.233-.454-.012-.77-.069-.705-.126.065-.057-.085-.137-.335-.177-.249-.04.024-.04.606-.001.833.056 1.095.021 1.225-.161.113-.16.346-.208.743-.154.318.043.751.019.962-.053.307-.105.268-.132-.195-.133-.318-.002-.579-.059-.579-.127s.275-.115.611-.104c.602.02.704.15.355.452-.16.137.572.164 2.057.074.542-.033.356-.298-.208-.298-.328 0-.462.06-.35.158.1.087.05.133-.114.104-.16-.03-.264-.102-.228-.162.035-.06-.095-.163-.29-.228-.367-.123 2.983-.075 4.004.057.31.04.636.008.726-.07.09-.08.068-.135-.048-.124-.581.055-1.125-.028-.986-.15.09-.079-.014-.102-.242-.055-.22.046-.4.014-.4-.071 0-.085.145-.155.322-.156.177-.002.6-.042.94-.091.475-.069.57-.047.409.095-.153.133-.095.16.209.097.23-.048.488-.027.571.046.084.073.348.128.587.122.268-.007.312-.038.114-.08-.652-.143-.298-.314.366-.178.817.168 1.486.068 1.209-.182-.148-.133-.096-.131.218.006.28.122.466.133.58.034.11-.097.3-.076.554.061.212.115.313.272.225.35-.088.076-.05.14.085.14.293 0 .61-.399.437-.55-.067-.058.472-.08 1.198-.05.899.038 1.388-.002 1.532-.124.165-.14.213-.134.216.03.003.158.285.206 1.143.194l1.14-.017-.407.336c-.404.332-.4.334.34.238.914-.119 1.113-.197.5-.197-.356 0-.395-.042-.174-.186.158-.103.24-.213.182-.244-.058-.031.465-.043 1.162-.026 1.464.036 2.392.253 2.12.498-.101.092.033.073.3-.042.282-.121.404-.136.291-.034-.22.197-.006.207.738.034.44-.102.449-.12.064-.129-.248-.006-.45-.077-.45-.158 0-.085.22-.111.514-.06.648.11 1.603-.045 1.394-.227-.086-.076-.522-.099-.968-.051-.607.064-.714.05-.426-.06.213-.08.582-.146.821-.147.686-.003.759-.218.204-.6l-.512-.351.985-.09c.542-.05 1.092-.08 1.223-.066.531.055.88-.018.88-.184 0-.223-6.324-.323-6.806-.107-.491.22-2.921.09-3.428-.184-.387-.21-.394-.256-.055-.383.288-.108.156-.126-.514-.071-1.21.099-7.348-.17-9.49-.415-1.036-.118-.269-.312 1.644-.416.99-.054 1.888-.167 1.994-.25.133-.106.271-.09.446.055.235.193.378.095.28-.193-.024-.07.438-.075 1.063-.014.608.06 1.336.108 1.62.106 2.048-.014 9.502-.193 9.569-.229.133-.072-5.287-.262-7.184-.251-.951.005-1.797-.05-1.88-.122-.083-.073-.009-.132.165-.132.173 0 .24-.04.15-.09-.091-.048-.313-.026-.493.051-.514.22-3.297.324-3.908.146-.34-.098-2.979-.176-7.224-.212-3.678-.03-7.093-.11-7.588-.177l-.9-.121.9.007c2.617.02 3.074-.016 2.917-.237-.085-.12-.318-.183-.52-.141-.201.042-.304.021-.227-.045.076-.067 2.252-.124 4.836-.128 2.584-.003 4.756-.014 4.827-.022.07-.009 1.691-.036 3.601-.06s3.936-.111 4.502-.194c.565-.082 4.326-.22 8.356-.308 4.095-.089 7.467-.22 7.642-.3.172-.076.425-.102.562-.056.138.045 1.304-.015 2.592-.136 1.287-.12 2.54-.184 2.784-.142.243.041.785-.046 1.202-.194.702-.25.722-.278.258-.375-.464-.096-.453-.111.14-.2.47-.072.285-.101-.692-.112-.734-.007-1.418-.086-1.519-.174-.114-.1-.07-.123.114-.061.163.054.297.033.297-.049 0-.08.202-.149.45-.152.347-.003.307-.047-.174-.192-.607-.181-.588-.19.72-.342.74-.086 1.54-.157 1.782-.158.376-.003.383-.021.051-.137-.298-.104-.306-.136-.037-.137.204-.002.288-.09.201-.211-.081-.115-.029-.209.117-.209.145 0 .193-.062.105-.139-.087-.076-.506-.139-.93-.139-.45 0-.706-.058-.613-.139.087-.077.557-.14 1.044-.14 1.003 0 1.175-.227.306-.405-.544-.112-.524-.127.322-.261l.9-.143-.815-.012c-.448-.008-.853-.074-.9-.15-.047-.075-1.159-.16-2.47-.188-1.311-.028-2.448-.085-2.525-.127-.078-.042 1.111-.052 2.641-.024 1.633.031 2.636.003 2.428-.068-.25-.084-.058-.144.643-.2 1.44-.114 4.571-.257 5.624-.257.498 0 .904-.06.904-.133 0-.074.124-.092.276-.042.394.132 2.554-.065 2.554-.232 0-.077-.223-.102-.496-.055-.273.047-2.067.095-3.987.107-2.046.012-3.491.077-3.491.156 0 .074-.085.088-.19.031a.424.424 0 0 1-.193-.335c-.003-.185-.206-.223-.997-.187-.598.028-.932-.008-.838-.089.155-.136-.444-.284-1.64-.406-.354-.036-2.438-.083-4.63-.104-5.732-.055-7.741-.148-8.002-.371-.173-.148-.223-.15-.226-.01-.003.132-.262.155-.969.087-1.637-.16-1.754-.29-.349-.391 2.16-.155 2.356-.254.92-.467a34.746 34.746 0 0 0-1.664-.217c-.212-.015-.502-.104-.643-.2-.142-.094-.68-.188-1.197-.208-.517-.02-.886-.083-.82-.14.065-.058.43-.07.81-.027.491.056.58.041.307-.051-.213-.072-.833-.173-1.378-.227a17.583 17.583 0 0 1-1.672-.245c-.374-.083-1.143-.174-1.71-.204-.565-.03-1.375-.144-1.8-.252a13.8 13.8 0 0 0-1.53-.283c-.488-.056-.646-.124-.443-.192.218-.073.114-.155-.335-.266-.842-.207-.824-.387.057-.56.664-.132.67-.14.11-.151-.519-.01-.548-.037-.227-.211.328-.177 1.484-.322 3.195-.4.89-.04.084-.391-.965-.42-.906-.025-1.302-.283-.645-.42.219-.044.397-.034.397.023s.516.117 1.147.131c.898.022 1.117-.015 1.007-.17-.077-.109-.332-.23-.568-.27-.236-.04.005-.04.536-.001.583.043.965.013.965-.075 0-.08-.55-.152-1.222-.16-1.221-.014-1.221-.014-.386-.159 1.674-.29 1.036-.38-4.25-.592-1.875-.075-2.888-.195-2.888-.34 0-.057 3.328-.114 7.395-.127 7.402-.024 9.582-.092 9.582-.3 0-.17-3.151-.379-3.665-.244a1.992 1.992 0 0 1-.948-.026c-.274-.08-1.229-.145-2.122-.146-1.144-.002-1.51-.042-1.239-.137.284-.1.115-.135-.643-.135-.792 0-.94.034-.643.146.292.11.23.121-.257.044a9.531 9.531 0 0 0-1.48-.074c-.46.015-.835-.033-.835-.107 0-.16.933-.34 1.236-.239.116.04.783.02 1.48-.044l1.27-.115-1.028-.027c-.566-.015-.885-.059-.71-.097.462-.101-.227-.448-.83-.418-.254.012-.504-.04-.554-.116-.05-.077.168-.153.486-.17.319-.016.81-.058 1.093-.093.283-.035 1.383-.076 2.444-.092 1.766-.025 1.625-.043-1.672-.213-3.154-.163-6.772-.317-7.796-.332-.186-.002-.278-.057-.205-.12.073-.064.687-.102 1.366-.086.678.017 1.345-.006 1.481-.05.136-.044.626-.1 1.09-.127 2.169-.12 1.975-.274-.58-.46-2.717-.198-2.664-.355.142-.417l1.415-.031-1.115-.098c-.613-.054-1.193-.166-1.289-.25-.095-.083-.52-.189-.942-.234-.606-.066-.66-.055-.255.048.42.108.436.134.083.142a1.925 1.925 0 0 1-.812-.196c-.209-.113-1.056-.244-1.883-.292-.827-.047-1.562-.127-1.632-.177-.071-.05-.418-.112-.772-.138-.354-.025-.742-.098-.864-.16-.453-.235.935-.427 3.622-.5 1.525-.041 3.153-.14 3.62-.218.465-.079 1.008-.11 1.207-.068.199.041.976.017 1.726-.054 2.945-.277 13.477-.539 19.756-.49 4.539.034 4.888.014 4.888-.286 0-.106.115-.193.257-.193.141 0 .257.096.257.214 0 .186.397.202 3.022.12 1.663-.051 3.139-.137 3.28-.19.142-.053 1.473-.109 2.958-.124 1.486-.014 4.14-.094 5.897-.177 1.758-.082 3.625-.112 4.15-.067.625.054 1.048.021 1.226-.095.257-.167 2.031-.197 2.755-.047.172.036.63-.024 1.018-.132.387-.11.917-.198 1.177-.198s.768-.073 1.128-.161c.47-.116.824-.12 1.252-.015.765.189 3.25-.04 3.65-.336.35-.259 2.699-.434 2.699-.202 0 .276.814.17.956-.124.097-.201.275-.259.62-.2.264.046.482.026.482-.043 0-.069.636-.243 1.414-.386.779-.143 1.415-.31 1.415-.37s.166-.11.368-.11c.202 0 .534-.09.737-.2.243-.132 1.106-.219 2.512-.254 1.292-.033 2.18-.118 2.24-.213.053-.088.494-.2.98-.249.895-.09 1.65.055 3.324.642.424.149.945.314 1.157.366.213.053.774.253 1.247.446.788.32 1.102.352 3.652.37 1.897.015 2.775-.027 2.74-.13-.09-.273 1.379-.264 1.764.011.335.24.356.235.364-.074.006-.248.112-.306.438-.239.236.05.517.013.624-.081.274-.24 4.836-.227 5.111.015.156.136.325.139.764.012.31-.09.874-.15 1.254-.133a6.725 6.725 0 0 0 1.435-.134c.408-.09.798-.133.866-.096.068.036.298-.028.511-.143.261-.141.63-.18 1.137-.12.443.053.902.021 1.12-.077.257-.115.913-.136 2.15-.069 1.455.08 1.902.054 2.45-.14.368-.131.901-.205 1.184-.165.635.09 2.345-.18 2.161-.34-.074-.065-.018-.118.123-.118.142 0 .32.056.399.124.243.213 3.275.436 3.51.258.082-.062.464.022.85.186.385.164.771.26.858.213.087-.047.017-.086-.157-.086-.173 0-.243-.063-.154-.14a.437.437 0 0 1 .385-.068c.123.042.318-.01.433-.115.115-.104.56-.227.99-.272.993-.103 2.983.036 2.8.196-.139.12.389.175 1.242.129.247-.014.45.041.45.123 0 .256.998.16 1.279-.123.21-.213.17-.302-.184-.415-.351-.112-.265-.125.384-.06.654.066.836.037.836-.133 0-.317.42-.408.992-.215.41.139.579.125.955-.079.329-.177.699-.226 1.313-.172.723.063.856.033.856-.194 0-.34.142-.338.821.003.593.299 1.104.241.864-.097-.083-.117-.012-.42.157-.673.258-.385.473-.476 1.315-.553.618-.056 1.118-.033 1.292.061.156.085.48.154.72.154.239 0 .501.094.583.209.081.114.28.208.44.208.162 0 .227-.094.145-.208-.091-.13 0-.209.245-.209.233 0 .318-.066.21-.161-.127-.11-.01-.136.37-.083.396.056.701-.021 1.065-.271.394-.271.657-.33 1.157-.263.564.076.648.042.648-.263 0-.278.128-.35.628-.35.345 0 .699.063.786.14.241.21.9.166.9-.062 0-.123.319-.216.837-.243.562-.03.916-.142 1.08-.345.135-.165.56-.335.944-.376.549-.06.67-.136.562-.358-.075-.155-.063-.439.027-.631.128-.278.323-.35.944-.35.456 0 .716.058.623.139-.093.08.169.139.628.139.615 0 .787-.06.787-.278 0-.218.171-.279.788-.279.434 0 1.017.066 1.296.147.817.237 2.46.216 2.98-.037.257-.125.784-.27 1.172-.322.388-.053.641-.152.562-.22-.22-.194.658-.32.987-.142.16.086.602.157.98.157.38 0 .833.094 1.01.209.176.115.45.203.61.197.18-.007.168-.037-.033-.081-.445-.097-.138-.325.437-.325.258 0 .657-.155.887-.344.34-.28.57-.331 1.251-.275.694.056.748.044.32-.076s-.385-.13.255-.061c.423.045.855.156.96.246.143.12.193.118.196-.011.005-.096.229-.174.503-.174.275 0 .571-.063.659-.14.087-.076.29-.138.45-.138.16 0 .073.086-.194.191-.455.18-.458.206-.049.427.351.19.436.197.436.034 0-.11.177-.28.393-.378.326-.146.456-.131.751.087.367.271.714.204.812-.157.031-.112-.127-.204-.35-.204-.223 0-.324-.045-.224-.099.292-.158 1.998.404 1.851.61-.079.111.056.184.34.184.363 0 .443-.08.349-.345-.185-.524.113-.96.765-1.119.802-.195 1.367-.11 1.692.254.156.174.281.22.291.108.014-.148.164-.126.596.086.739.364 1.898.481 2.281.232.35-.229 1.256-.252 1.256-.034 0 .105.106.112.322.02.538-.227 1.5-.304 2.15-.17.388.08.615.076.615-.01 0-.074.18-.135.401-.135.22 0 .34.054.265.12-.19.166 1.226.009 1.428-.159.102-.084.544-.092 1.158-.02.546.064 1.195.105 1.443.09.247-.015.45.034.45.11 0 .075.434.142.964.147.774.008.863.034.45.13-.451.104-.459.123-.064.15.976.066 1.093.051 1.093-.14 0-.11.319-.245.708-.301.389-.057.707-.065.707-.019 0 .047.148-.025.328-.158.393-.29 2.156-.247 2.526.063.19.16.273.162.45.014.165-.138.321-.097.644.169.234.193.425.447.425.564 0 .15.259.214.865.214.783 0 .853-.033.741-.348-.1-.286-.022-.348.45-.348.402 0 .528-.061.423-.208-.111-.157.044-.209.631-.209.454 0 .713.058.62.14-.087.076-.03.138.129.138.158 0 .216.063.128.14-.136.119.598.21 1.233.153.112-.01.437.05.722.132.439.127.507.11.44-.102-.055-.175.08-.253.435-.253.32 0 .483.078.431.205-.066.161.02.154.406-.035.27-.132.654-.24.855-.24.201 0 .696-.095 1.1-.208.404-.114.837-.173.963-.13.127.041.365-.084.53-.28.32-.38 1.155-.513.891-.141-.234.33.86.491 1.588.233.463-.164.575-.17.515-.024-.042.102.152.213.431.245.638.075 1.15.441.97.695-.1.14.064.182.608.156.41-.02 1.192.068 1.74.196s1.156.232 1.35.232c.21 0 .355.147.355.36 0 .57.619.316.656-.271.038-.587.23-.73 1.145-.849.475-.062.828.01 1.353.276.59.298.736.323.864.143.084-.118.314-.215.511-.215s.358-.056.358-.124c0-.069.297-.165.66-.214.498-.068.778-.012 1.152.229.302.194.57.263.691.178.241-.17 1.356-.207 1.356-.046 0 .064.216.116.48.116.263 0 .808.14 1.21.31.4.17.64.233.533.14-.11-.097-.07-.172.092-.172.158 0 .224-.056.147-.123-.193-.17.538-.479.869-.368.146.049.47.025.718-.054.249-.078.36-.144.247-.146-.312-.007 2.037-1.256 2.361-1.256.156 0 .618.189 1.027.42.66.374.764.394.922.174.165-.23.21-.226.618.045.242.16.61.333.817.384.21.051.12.067-.202.034-.793-.08-.732.17.082.337.523.108.624.198.484.435-.135.231-.087.28.214.218.213-.044.843-.154 1.4-.244.942-.153 1.99-.69 1.344-.69-.151 0-.203-.063-.116-.14.233-.203.643-.17.643.053 0 .105.16.263.355.35.195.088.42.338.501.555.113.306.329.415.949.482.521.057.737.144.616.25-.116.101-.073.124.116.06.166-.055.248-.147.182-.204-.065-.057.107-.192.382-.3.605-.235.646-.411.096-.411-.359 0-.36-.023-.018-.209.212-.115.51-.209.661-.209.152 0 .247-.072.212-.162-.088-.22 1.64-.413 2.052-.228.177.079.257.2.18.268-.079.069.037.162.258.208.22.045.336.139.258.207-.078.069.03.125.242.125.21 0 .457.125.546.278.09.153.359.277.597.276.374-.003.38-.02.046-.142-.336-.121-.327-.158.07-.284.25-.08.378-.214.282-.297-.106-.093-.054-.112.135-.05.17.057.475.029.679-.063.217-.098.653-.128 1.05-.074.554.075.65.05.521-.131-.11-.155-.061-.19.16-.112.176.06.666.111 1.09.111.532 0 .748.062.694.198-.067.167-.014.169.34.01.355-.16.457-.158.654.01.163.14.235.147.238.026.005-.095.206-.173.454-.172.356.002.376.028.096.124-.195.067-.28.187-.187.268.17.149 1.185.028 2.382-.282.625-.163 1.117-.055 1.117.244 0 .11.156.2.345.2.405 0 1.018.656.795.851-.094.082.12.097.55.04.473-.065.646-.047.531.054-.094.082-.054.188.09.236.142.048.383-.06.534-.238.229-.272.49-.331 1.578-.357 1.116-.026 1.393.022 1.929.335.344.2.564.451.489.557-.093.131.064.192.499.192.349 0 .634.063.634.139 0 .252.452.145.59-.14.087-.18.35-.277.75-.277.338 0 .725-.056.86-.124.48-.242 1.402-.323 1.402-.122 0 .105.135.263.3.352.228.124.372.108.605-.064.506-.374 1.207-.122 1.108.398-.05.264.045.464.238.498.176.032.321-.007.321-.088 0-.093.21-.104.576-.03.599.12 1.441-.051 1.816-.368.284-.24.952-.22.952.03 0 .235.756.482 1.207.394.17-.033.244-.15.166-.26-.104-.145.055-.196.593-.188.404.007.59.043.413.081-.434.095-.408.325.037.325.197 0 .425.094.507.209.081.115.325.208.542.208.216 0 .397.11.402.244.007.232.024.232.35 0 .188-.134.473-.244.635-.244.16 0 .293-.093.293-.208 0-.233.048-.243.606-.128.214.045.327.17.25.278-.082.116.018.198.242.198.565 0 1.068.364.682.493-.215.072-.176.14.135.234.32.097.525.068.766-.11.346-.256 1.054-.152.753.111-.113.1-.024.12.253.06l.789-.172c.236-.052.347.007.321.174-.031.207.186.26 1.208.296.829.028 1.19-.007 1.078-.105-.093-.08-.039-.147.12-.147.157 0 .21-.066.118-.148-.115-.1.146-.117.82-.051 1.202.118 1.346.176.854.344-.493.168-.195.168.625 0 .432-.09.706-.086.815.009.09.079.311.113.492.075.18-.037.455 0 .61.085.156.084.894.157 1.64.163.947.007 1.453.08 1.676.24.192.139.526.202.836.158.302-.043.516-.005.516.092 0 .183.682.104 1.93-.225.424-.112 1.343-.23 2.041-.263.699-.033 1.351-.131 1.45-.218.1-.087.302-.117.45-.068.147.05.339.027.426-.049.23-.201 1.143.14.981.368-.073.102.042.183.26.183.262 0 .345.091.254.279-.11.226-.008.278.538.278.37 0 .673-.063.673-.14 0-.076.435-.129.965-.117.776.016.826.032.257.078-.389.032-.707.107-.707.167 0 .098.39.105 1.865.034.247-.012.45-.088.45-.17 0-.08-.13-.103-.29-.05-.179.06-.24.023-.161-.096.071-.106.272-.175.446-.153.174.021.458-.024.631-.102.357-.16 3.504-.134 3.32.027-.064.058.07.105.298.105.23 0 .345.062.258.139-.222.193.217.174.587-.026.167-.09.39-.118.494-.062.104.056.02.16-.189.232-.317.109-.305.13.072.132.248.001.45.06.45.13 0 .076.364.073.904-.008.497-.074 1.018-.097 1.158-.05.14.047.253.026.253-.046 0-.191 1.362-.302 1.723-.14.17.075.585.118.923.094.585-.042 1.729.395 1.488.568-.06.044.113.098.386.122.368.03.407.009.154-.085-.242-.09-.03-.154.723-.22.586-.05 1.161-.06 1.278-.02.117.039.272-.054.346-.206.172-.355 1.128-.364 1.837-.017.523.256 2.46.51 2.462.323 0-.053.34-.2.753-.327.71-.219.774-.217 1.196.035.507.303 1.148.343 1.6.099.24-.13.308-.126.308.017 0 .147.076.15.386.01.313-.14.386-.134.386.031 0 .281.932.723 1.14.541.21-.183.919-.039.845.172-.037.107.355.15 1.166.13.822-.022 1.223.024 1.226.139.004.116.075.109.23-.024.133-.113.412-.156.664-.104.303.063.477.006.57-.188.074-.154.295-.28.49-.28.197 0 .361-.077.367-.173.005-.096.184 0 .397.211.37.37.45.383 1.938.316 1.099-.05 1.678-.149 1.983-.339.615-.383 1.457-.483 1.929-.228.217.118.699.214 1.07.214.39 0 .61.06.517.14-.088.077.014.176.224.22.356.073 1.429-.129 2.993-.564.368-.103.863-.135 1.157-.077.283.057.663.073.844.036.436-.088 1.35.491 1.17.743-.085.12.023.197.274.197.227 0 .413.06.413.132 0 .173 1.584-.109 1.94-.344.252-.168.892-.257 1.59-.221.178.01.244.112.153.24-.126.178-.046.206.382.132.398-.068.76.02 1.363.332.452.234.718.429.591.434-.127.005.056.07.407.146.437.094.668.091.73-.01.05-.08.21-.107.355-.059.335.112.712-.203.717-.6.004-.416.436-.526 1.25-.319 1.603.41 1.805.444 2.073.354.155-.052.286-.012.29.088.005.12.123.1.35-.061.188-.134.479-.244.647-.244.167 0 .595-.157.95-.35.438-.236.887-.339 1.39-.318.572.024.681.072.472.209-.22.143-.114.147.545.023.722-.136.864-.12 1.201.141.413.319 1.825.435 1.477.121-.132-.118-.056-.113.24.017.239.104.666.157.95.117.284-.04.457-.02.383.043-.148.13 1.716.07 2.681-.086.438-.07.565-.053.435.061-.101.089-.061.161.088.161.15 0 .273-.062.273-.139 0-.22 1.797-.167 1.956.057.104.147.33.166.897.079.463-.072.7-.067.61.012-.25.218.229.14.91-.148.717-.303 1.286-.358 1.286-.124 0 .202 1.224.038 1.721-.23.293-.159.3-.203.034-.205-.187-.002.164-.127.78-.278 1.186-.291 1.655-.263 1.409.084-.12.168-.016.192.535.118.377-.051.653-.039.612.028-.078.125.12.19.583.19.15 0 .201-.063.114-.14-.088-.076-.044-.138.096-.138s.328-.124.417-.275c.129-.22.361-.269 1.15-.244.544.018.935.079.87.136-.066.058.015.104.168.104.164 0 .203.075.09.174-.113.099.086.074.456-.057.615-.218.72-.216 1.727.028.59.142 1.071.2 1.071.127 0-.073.26-.14.579-.15.4-.013.301-.054-.322-.131-.88-.11-.877-.11.13-.046 1.594.102 2.24.093 2.413-.035.299-.222 2.56-.22 3.387.003.885.239 3.622.28 3.877.058.104-.09.375-.077.765.036.333.097 1.511.193 2.62.216 1.707.034 2.09 0 2.51-.228.366-.198.711-.247 1.335-.189 1.427.134 1.686.21 1.113.325-.477.096-.474.104.065.18.31.045.514.035.45-.02-.19-.166 1.616-.456 2.208-.354.42.072.466.12.199.21-.438.146-.304.21.666.315.424.046.628.05.452.008-.245-.058-.235-.12.046-.272.406-.22 2.584-.42 2.35-.215-.08.07.037.165.26.211.627.13 1.074.08.493-.055-.462-.107-.467-.12-.048-.129.257-.006.691.055.965.134.338.098.497.099.497.002 0-.086.434-.115 1.094-.073.668.042.96.022.75-.052-.26-.091-.2-.141.246-.204.324-.046.642-.055.707-.02.066.036-.024.064-.2.064-.22 0-.196.067.078.214.554.3 2.082.088 2.084-.29 0-.15.211-.289.481-.317.33-.035.42.003.283.122-.147.129-.023.15.484.08.404-.054.682-.034.682.05 0 .078.173.141.386.141.465 0 .497.163.077.39-.24.13-.183.167.257.167.312 0 .566-.06.566-.133 0-.234 4.282-.477 4.533-.257.071.062.4.076.732.03.367-.05.89.017 1.335.169l.732.25-.492-.31-.492-.308.853.093c.614.066.802.047.67-.069-.117-.102.015-.16.346-.16.29 0 .5.078.465.173-.093.25 1.407.163 1.764-.101.364-.269.716-.276.527-.01-.161.228.683.43 1.148.275.18-.06.246-.023.172.095-.067.106.109.303.391.437.64.303.793.307.585.015-.138-.195-.101-.202.25-.044.343.154.454.152.673-.015.21-.16.232-.15.112.05-.158.264-.301.264 2.545.01.616-.054.694-.036.385.09-.305.126-.224.14.386.07a13.412 13.412 0 0 1 1.341-.082c.4.004.526-.055.423-.2-.094-.134.015-.207.294-.207.286 0 .39.073.293.208-.096.134.015.213.294.22.268.007.316.039.12.081-.177.039-.322.126-.322.194 0 .16 1.619-.007 1.84-.19.092-.075.365-.095.607-.045.323.067.4.035.291-.119-.082-.116-.065-.215.037-.22.101-.005.503-.032.892-.06.389-.027.707.008.707.08 0 .07-.197.129-.437.129-.32 0-.361.041-.152.154.194.105.805.119 1.916.042 1.48-.101 1.547-.12.731-.195l-.9-.084.854-.111c.47-.061.922-.074 1.005-.03.084.046.292.02.464-.058.361-.162 1.216-.028 1.004.157-.079.069-.02.125.13.125.382 0 .342-.378-.048-.469-.177-.041.015-.048.428-.017.412.032.87.123 1.016.203.147.079.482.144.745.144s.416.054.34.121c-.077.067.44.163 1.15.214.71.051 1.227.149 1.149.217-.078.068-.021.164.126.214.148.049.236.006.197-.095-.048-.126.296-.2 1.087-.234.9-.039 1.043-.075.643-.164-.46-.102-.442-.116.162-.124.371-.006.82.084.996.199.334.218 1.543.292 1.543.094 0-.062 1.285-.09 2.855-.06 1.709.031 2.796.001 2.708-.076-.087-.076.245-.09.81-.036.594.057 1.203.025 1.601-.084.354-.098.595-.195.536-.216-.06-.022-.051-.13.018-.242.093-.151.615-.208 2.037-.223 2.016-.02 2.812.128 2.812.523 0 .132.247.312.549.4.4.115.462.187.226.266-.195.065.099.13.743.163.895.046 1.173-.005 1.727-.318.626-.353 1.9-.62 1.9-.397 0 .057.23.136.514.176.283.04.514.169.514.285 0 .117.23.252.51.3.28.048.482.157.45.243-.064.169 2.05.426 2.437.297.13-.044.458.029.728.16.342.168.725.216 1.26.158.423-.045.827-.032.897.03.142.124.865.096 2.95-.112.762-.076 1.572-.087 1.8-.024.228.062 1.31.19 2.406.282 1.094.093 2.349.266 2.787.384a5.146 5.146 0 0 0 1.68.137c.523-.045.823-.024.735.054-.082.072 0 .137.187.144.185.008.047.064-.306.126-.522.09-.41.114.595.125.682.007 1.463.079 1.737.158.62.18.653.02.047-.229-.413-.17-.398-.186.193-.204 1.285-.038 2.162.041 2.745.248.373.132.86.178 1.305.124.607-.075.64-.064.228.07-.345.113-.394.187-.171.261.174.058-.028.097-.459.088-.422-.008-.714-.062-.65-.12.183-.16-.253-.125-1.487.118-.619.122-1.443.22-1.832.218-.39-.002-.708.067-.708.154 0 .112-.088.11-.308-.01-.423-.228-.807-.21-.636.03.078.109-.038.235-.256.28-.218.045-.336.168-.26.273.226.32-1.66.69-3.096.608-.677-.038-1.086-.041-.908-.007.177.035.246.13.153.212-.094.082-.058.111.08.065.139-.046.591.028 1.007.165.472.155 1.83.315 3.62.427 3.078.191 5.343.58 4.267.732-.397.056-.521.032-.399-.08.097-.088-.035-.066-.296.048-.349.154-1.137.209-2.984.21-1.89 0-2.449.04-2.262.162.137.09.706.2 1.264.244l2.044.162c.566.045.964.14.884.21-.08.07.064.164.32.209.257.044.698.133.981.197.283.064 1.09.146 1.792.182.703.037 1.316.129 1.363.204.108.175 1.09.045 1.09-.143 0-.093.107-.092.321.002.389.172 3.034.176 3.443.007.182-.076.346-.044.438.086.11.153-.102.228-.806.29-.524.045-1.242.112-1.596.148-.501.051-.558.034-.257-.079.46-.172-2.232-.055-3.498.152-.438.072-.97.095-1.18.051a1.099 1.099 0 0 0-.714.135c-.197.129-.745.215-1.358.215-.96 0-1.019.023-.903.352.08.224-.017.393-.263.468-.509.154-.18.428.536.446.524.013.519.022-.08.125-.634.11-.632.112.13.135.618.02.675.044.287.127-.423.09-.373.132.386.335.732.195.779.232.291.235-.34.002-.578.089-.578.211 0 .116-.229.21-.515.21-.587 0-.634.111-.183.432.214.151.94.255 2.255.322 2.042.103 2.73.234 2.463.468-.19.167 1.123.438 2.256.466.728.018.708.028-.231.12l-1.03.099.901.014c.495.007 1.363-.035 1.93-.095.6-.062 1.886-.037 3.086.061 1.132.093 1.917.176 1.744.184-.173.008-.245.11-.16.229.154.219.766.198.689-.023-.023-.067.382-.137.9-.156.706-.026.846.001.557.107-.273.1 0 .118.944.064.862-.05 1.393-.021 1.511.082.125.108.015.13-.343.068-.68-.116-.974.138-.381.33.375.121.297.144-.445.131-.495-.009-2.742.032-4.992.092-2.724.072-4.038.061-3.932-.032.102-.088-.281-.118-1.053-.08-.667.032-2.486.078-4.042.102-4.201.065-3.989.05-3.823.283.082.115.46.208.84.208.382 0 .804.052.938.116.134.064.997.233 1.916.376.92.143 1.73.3 1.801.348.11.076 4.298.383 5.788.424.46.012.448.03-.11.172-.478.122-.648.119-.729-.013-.181-.294-.765-.186-.735.137.035.37 1.039.529 3.438.54.884.004 1.608.066 1.608.136 0 .071-.116.129-.257.129-.142 0-.258.055-.258.123 0 .194 1.379.286 1.756.117.228-.102.4-.105.515-.012.095.078.694.206 1.33.285l1.158.143-1.108-.01c-.66-.006-1.194.064-1.319.174-.154.134-.258.14-.393.023-.139-.122-.273-.121-.547.002-.2.09-.363.117-.363.06 0-.057-.168-.029-.373.064-.206.092-.61.126-.9.077-.349-.06-.529-.029-.531.093 0 .142-.049.144-.206.01-.146-.123-.433-.136-1.025-.044-.453.07-.823.099-.823.063 0-.036-.243.006-.539.091-.672.195-2.078.046-1.506-.16.411-.147-.6-.06-1.916.165-.41.07-1.835.127-3.167.127-1.548 0-2.363.05-2.261.14.086.076-.084.138-.379.138-.296 0-.604.094-.686.21-.097.136-.515.21-1.213.217-.926.007-.987.026-.466.139.51.11 4.325.302 5.766.29.247-.002.568.116.712.262.2.202.46.25 1.094.2l.83-.065-.835.143c-.881.15-1.183.355-.35.237.267-.037.643-.014.836.052.235.08.052.12-.558.122-.599.001-1.03.093-1.266.27-.273.206-.812.292-2.289.367-1.716.087-1.877.119-1.45.287.36.143.387.194.11.205-.475.018 1.011.227 2.886.405.8.077 1.958.294 2.572.484l1.116.345-1.072.001c-2.306.004-2.55.35-.343.489 1.97.124 2.075.414.193.534-.792.051-1.476.18-1.654.311-.22.163-.957.254-2.663.33-2.166.097-2.8.227-2.817.576 0 .077 1.142.282 2.954.529.425.058 1.409.09 2.187.07 1.998-.05 7.708.208 8.553.386.761.16.9.322.386.452-.177.045.083.054.578.021.496-.032 1.132-.005 1.415.06.486.113.482.12-.079.129-.327.006-.522.072-.435.149.137.12-1.044.22-1.763.15-.122-.011-.38.051-.576.139-.195.088-.56.114-.809.058-.79-.177-2.084-.218-2.251-.071-.09.078-.589.137-1.111.131-.794-.008-.865-.031-.435-.14.414-.106.363-.118-.257-.06-1.967.183-2.718.198-2.55.052.107-.095 0-.123-.312-.076-1.51.23-1.762.25-1.395.114.266-.1.044-.124-.772-.086-.63.03-1.203.06-1.274.07-.071.01.277.105.772.211.755.162.796.19.257.177-1.176-.03-1.587.025-1.48.198.134.218-1.474.527-2.427.467-.39-.025-.657.002-.592.059.065.056-.917.13-2.182.163-1.736.044-2.424.12-2.807.308-.414.202-.954.247-2.9.242-1.582-.004-2.263.038-2.011.124.209.072.814.131 1.345.132.53.002.964.065.964.142 0 .197 1.117.172 1.53-.035.277-.14.31-.14.165 0-.232.222-.156.219.998-.042.526-.119.88-.15.788-.07-.108.094.276.151 1.07.16 1.004.012 1.116.035.594.126-.587.101-.595.112-.088.125.414.01.522.081.427.278-.089.184.04.294.413.358.298.051.477.15.397.22-.084.073.19.09.64.042.616-.066.784-.036.784.141 0 .165-.263.233-.965.249l-.965.022.9.053c1.396.081 1.78.188 1.158.32-.41.088-.344.11.322.104.554-.005.836-.076.836-.21 0-.12.152-.17.377-.124.208.043.458.01.555-.076.115-.101.051-.116-.185-.043-.249.077-.281.066-.103-.035.14-.08 1.09-.215 2.107-.299 2.28-.187 2.662-.187 2.067 0-.25.08-.388.203-.305.275.085.075.318.041.538-.078.513-.277 1.314-.293.892-.018-.317.207.566.264 6.79.438 3.966.11 9.132.539 9.132.756 0 .198 2.81.368 4.373.265.9-.059 1.82.028 1.672.158-.088.076-.015.14.178.14.251.003.242.035-.036.13-.206.071-.458.1-.561.066a.402.402 0 0 0-.35.079c-.09.077-1.015.141-2.06.141-1.093 0-1.972.064-2.072.152-.102.089-.514.117-.997.068-.833-.085-2.461.135-2.461.33 0 .06-.307.075-.682.037-.398-.041-.618-.016-.529.062.18.158-.296.167-10.665.217-7.556.037-9.676.13-6.99.309.685.045 1.804.144 2.487.219.682.075 1.573.136 1.978.136s.807.062.893.137c.087.075.412.133.723.129.311-.005 1.06.06 1.665.142.604.083 2.11.172 3.344.196 2.757.055 6.761.359 7.198.545.25.107.198.197-.232.399-.305.143-.662.26-.791.26-.131 0-.044.104.19.231.253.137.793.223 1.324.213.603-.013.862.037.79.151-.072.119-.647.156-1.883.125-1.588-.041-6.676.39-7.38.626-.128.042-1.724.073-3.546.068-1.821-.005-3.368.039-3.436.098-.068.06.942.12 2.243.133 2.159.023 3.514.07 6.889.236.648.032 1.456.114 1.796.182.68.136.637.15-1.16.368-.586.071-.674.121-.386.22.321.11.32.128-.016.131-.343.004-.343.02 0 .14.343.12.343.136 0 .147-.212.007.017.091.508.187l.893.174-.854.093c-.47.05-1.161.052-1.537.002l-.682-.09.643.295c.75.343.388.407-.467.083-.537-.203-.661-.2-1.604.053-.92.246-.964.28-.44.342.32.037.814.112 1.097.167.514.099.514.099 0-.136-.505-.23-.503-.232.129-.135.353.055.753.155.887.223s.482.13.772.138c.452.012.435.03-.116.125l-.643.111.643.023c.62.022.614.03-.193.248-.46.124-.836.302-.836.396 0 .118-.56.173-1.812.18-1.754.008-3.046.254-2.623.499.105.06-.072.037-.394-.054-.47-.132-.659-.125-.964.04-.209.114-1.046.245-1.86.293-2.081.122-2.636.196-2.636.353 0 .075.687.136 1.527.136 1.652 0 2.846.18 2.846.427 0 .086-.23.188-.512.228-.28.04-.455.122-.386.182s-.589.155-1.461.21c-.873.054-1.934.213-2.357.352l-.77.254.75.09c.411.048 1.085.146 1.495.216.41.07 1.075.128 1.479.128.403 0 .733.061.733.136 0 .15-.514.223-2.444.344-.707.044-1.332.154-1.388.244-.056.09-.375.311-.708.491-.8.433-.765.551.255.877.473.15.999.439 1.168.64.267.317.238.402-.216.63-.29.146-.525.224-.525.173 0-.05-.173-.015-.383.08-.211.094-.32.227-.242.295.077.068-.026.123-.229.123s-.502.087-.664.192c-.162.106-.668.24-1.125.297-.538.067-.678.125-.397.164.54.074.506.591-.036.57-.834-.032-2.176.065-1.744.125.25.036.392.118.317.184-.075.065.213.23.64.367.427.136.776.287.776.335 0 .047.264.151.586.23.887.22.839.724-.085.898-1.123.212-.666.394.994.395 2.28.003 3.216.13 3.739.508.642.465.378.945-.734 1.334-.49.172-.893.35-.895.394 0 .083 1.86.36 3.183.473.959.082 1.124.18.516.304a3.67 3.67 0 0 0-.816.276c-.182.097-.703.21-1.158.251l-3.881.342c-4.229.37-4.707.725-1.248.925 1.535.089 4.181.448 3.45.468-.185.005-.265.072-.178.149.09.078-.12.139-.482.139-.353 0-.968.07-1.366.154-.641.137-.668.166-.237.252.537.108-1.737.352-4.86.521-.99.054-2.032.115-2.315.136-.283.022-1.209.075-2.058.12-.849.044-2.147.238-2.885.43s-1.751.386-2.251.43c-.5.044-.909.13-.909.191 0 .062-.394.19-.876.283-.481.095-.827.24-.768.322.068.097-.512.165-1.622.19-.951.022-1.792.087-1.868.144-.076.058-1.702.103-3.612.1-2.896-.004-3.552.034-3.95.228-.264.129-.64.2-.837.16-.196-.041-.357-.005-.357.08 0 .084-.347.153-.772.153-.424 0-.772.056-.772.124 0 .259-1.336.312-1.824.073-.355-.174-.775-.216-1.637-.163-.638.039-1.105.023-1.04-.034.179-.156-1.302-.283-2.187-.188-.424.046-.771.168-.771.27 0 .11-.161.154-.386.108-.24-.05-.386.001-.386.134 0 .238-.874.44-1.295.3-.149-.05-.42-.024-.603.058-.413.185-6.726.236-7.172.057-.47-.187-1.99-.229-1.99-.054 0 .253-.89.166-1.365-.134-.458-.29-.951-.26-.951.058 0 .294-1.203.768-1.752.69-.278-.039-.583-.003-.678.08-.217.19-1.344.199-1.557.012-.087-.076-.374-.139-.637-.139s-.52-.067-.57-.15c-.125-.202-2.418-.307-3.004-.138-.32.093-.564.085-.768-.026-.227-.123-.396-.086-.704.151-.683.527-1.652.998-2.054.998-.21 0-.965-.16-1.676-.355-.743-.203-1.5-.319-1.776-.271-.266.045-.716.004-1-.092-.44-.148-.716-.12-1.837.193-1.35.376-1.932.374-2.502-.009-.25-.168-.392-.18-.63-.05-.17.091-.636.166-1.036.166-.426 0-.793.091-.884.22-.113.158-.34.193-.828.125-1.369-.19-1.83-.207-1.83-.07 0 .081-.666.143-1.544.143-.857 0-1.543.061-1.543.139 0 .076-.296.139-.658.139-.374 0-.59.06-.5.139.087.076.037.139-.113.139s-.273-.089-.273-.197c0-.108-.318-.26-.707-.337-.39-.077-.563-.144-.386-.15.443-.016.408-.29-.036-.29-.198 0-.42.087-.496.193-.134.19-1.537.363-3.198.396-.46.009-.836.063-.836.12 0 .33-3.215.371-3.871.05-.422-.207-2.073-.28-2.394-.106-.098.053-.436.116-.75.14-.316.024-.988.303-1.495.62l-.922.577-1.246-.23c-.685-.126-1.63-.23-2.1-.23-.589 0-.855-.065-.855-.208 0-.289-.33-.261-.699.058-.312.27-1.359.26-1.359-.014 0-.224-1.565.456-1.862.807-.153.182-.44.331-.638.331s-.28.07-.184.154c.302.264-.985-.016-1.689-.367a2.211 2.211 0 0 0-1.35-.247c-.39.041-.707.133-.707.203 0 .229-1.873.731-2.813.755-1.097.027-1.778.14-3.23.538-1.124.307-1.674.316-1.674.026 0-.269-1.332-.474-2.136-.33-.516.094-.867.074-1.281-.073-.572-.202-.874-.176-2.404.207-.407.102-.716.077-1.21-.098-.375-.133-.877-.197-1.161-.149-.294.05-.663-.002-.895-.127-.548-.297-1.37-.267-2.435.09-.883.295-.938.296-2.127.068-1.151-.221-2.19-.196-1.914.045.069.06-.134.117-.452.125-1.91.048-3.59.137-3.7.197-.07.037-.54.007-1.046-.069-.605-.09-.972-.09-1.075 0-.21.184-.28.186-1.248.036-.529-.082-.888-.08-.987.006-.099.087-.263.088-.454.003-.55-.245-2.665-.345-2.908-.138-.6.512-3.254.763-4.85.458-1.258-.24-1.5-.248-1.261-.04.126.11.01.137-.361.084-.317-.045-.675.007-.853.124-.17.11-.46.169-.645.13-.185-.038-.405-.01-.488.064-.084.073-.442.133-.797.133-.355 0-.86.062-1.125.138-.351.102-.582.084-.865-.07-.212-.114-.838-.208-1.391-.208-.554 0-1.539-.086-2.19-.192-1.009-.164-1.202-.164-1.32.002-.105.148-.461.173-1.524.106-.891-.057-1.45-.035-1.56.063-.115.1-.87.122-2.262.064-1.466-.061-2.038-.042-1.917.063.28.245-1.327.355-2.53.173-.809-.122-1.242-.126-1.63-.014-.668.194-1.674.2-1.456.01h-.008z"/>
</svg>
