<svg xmlns="http://www.w3.org/2000/svg" width="80" height="79" viewBox="0 0 80 79">
    <g fill="none" fill-rule="nonzero" style="mix-blend-mode:luminosity">
        <path fill="#535353" d="M40 .319c-14.683 0-26.59 11.85-26.59 26.469 0 11.694 7.618 21.616 18.184 25.116 1.328.245 1.817-.575 1.817-1.274 0-.63-.025-2.716-.037-4.927-7.398 1.6-8.958-3.123-8.958-3.123-1.21-3.06-2.953-3.874-2.953-3.874-2.412-1.642.181-1.609.181-1.609 2.671.187 4.077 2.728 4.077 2.728 2.371 4.047 6.22 2.877 7.738 2.2.24-1.71.928-2.879 1.688-3.54-5.906-.669-12.115-2.939-12.115-13.081 0-2.89 1.04-5.25 2.74-7.105-.276-.667-1.186-3.36.258-7.005 0 0 2.232-.71 7.312 2.714 2.122-.586 4.397-.88 6.657-.89 2.26.01 4.536.304 6.661.89 5.075-3.424 7.305-2.714 7.305-2.714 1.447 3.646.537 6.338.261 7.006 1.705 1.853 2.736 4.214 2.736 7.105 0 10.165-6.22 12.404-12.141 13.058.953.822 1.803 2.433 1.803 4.903 0 3.541-.03 6.391-.03 7.263 0 .703.48 1.53 1.827 1.269 10.56-3.504 18.168-13.422 18.168-25.113C66.591 12.17 54.686.32 40 .32z"/>
        <path fill="#181616" d="M23.481 38.322c-.06.132-.267.17-.456.08-.194-.087-.301-.265-.239-.398.056-.134.265-.172.458-.082.194.087.304.268.238.4zm1.077 1.197c-.127.116-.375.062-.544-.124-.173-.184-.206-.431-.077-.55.13-.117.37-.062.544.123.175.187.209.431.076.55h.001zm1.048 1.523c-.162.113-.43.007-.594-.229-.163-.234-.163-.516.004-.63.165-.113.427-.011.593.222.164.24.164.523-.003.637zm1.436 1.473c-.145.16-.456.117-.683-.102-.232-.213-.297-.516-.15-.676.147-.16.46-.115.688.102.231.212.301.516.146.675zm1.983.855c-.065.207-.364.301-.665.214-.301-.091-.497-.334-.438-.543.063-.209.364-.307.667-.213.3.09.497.33.435.542h.001zm2.175.158c.008.218-.248.4-.564.403-.317.008-.575-.169-.579-.384 0-.22.25-.4.568-.404.316-.007.575.169.575.385zm2.025-.342c.037.212-.181.431-.496.49-.308.056-.593-.075-.633-.287-.038-.218.185-.436.493-.493.315-.055.596.074.636.29z"/>
        <g fill="#535353">
            <path d="M15.534 66.757H8.847a.312.312 0 0 0-.313.311v3.255c0 .172.14.312.313.312h2.608v4.043s-.586.2-2.206.2c-1.91 0-4.58-.695-4.58-6.538 0-5.844 2.78-6.613 5.39-6.613 2.26 0 3.232.395 3.852.586.193.059.375-.134.375-.306l.745-3.145a.29.29 0 0 0-.12-.242c-.252-.18-1.785-1.033-5.661-1.033-4.465 0-9.045 1.89-9.045 10.98s5.244 10.445 9.662 10.445c3.66 0 5.879-1.557 5.879-1.557.09-.05.1-.177.1-.236V67.068a.312.312 0 0 0-.312-.311zm34.157-8.394h-3.766a.313.313 0 0 0-.311.313l.001 7.245h-5.87v-7.245a.31.31 0 0 0-.31-.313h-3.766a.313.313 0 0 0-.311.313v19.617c0 .172.14.312.31.312h3.766a.313.313 0 0 0 .311-.313v-8.39h5.87l-.01 8.39c0 .173.14.313.313.313h3.773a.313.313 0 0 0 .31-.313V58.676a.31.31 0 0 0-.31-.313zm-29.479.446a2.433 2.433 0 0 0-2.427 2.441 2.435 2.435 0 0 0 2.427 2.442 2.435 2.435 0 0 0 2.429-2.442c0-1.35-1.088-2.44-2.428-2.44zm1.848 5.978h-3.754c-.172 0-.326.177-.326.348v12.973c0 .382.239.495.547.495h3.382c.372 0 .462-.182.462-.5V65.1a.31.31 0 0 0-.311-.312v-.001zm42.254.03h-3.738a.313.313 0 0 0-.31.313v9.618s-.95.69-2.297.69c-1.346 0-1.704-.607-1.704-1.92V65.13a.31.31 0 0 0-.31-.314h-3.793a.313.313 0 0 0-.311.314v9.022c0 3.901 2.184 4.855 5.188 4.855 2.465 0 4.453-1.356 4.453-1.356s.094.716.137.8a.33.33 0 0 0 .275.17l2.413-.011a.314.314 0 0 0 .312-.314l-.002-13.168a.314.314 0 0 0-.312-.312h-.001zm10.214-.441c-2.123 0-3.567.942-3.567.942v-6.642a.31.31 0 0 0-.31-.313h-3.776a.313.313 0 0 0-.313.313v19.616a.31.31 0 0 0 .313.313h2.62c.119 0 .207-.06.273-.167.064-.106.159-.904.159-.904s1.544 1.455 4.467 1.455c3.432 0 5.4-1.732 5.4-7.778 0-6.046-3.143-6.836-5.267-6.836zm-1.476 11.052c-1.295-.04-2.175-.625-2.175-.625V68.59s.868-.529 1.932-.625c1.345-.12 2.642.285 2.642 3.48 0 3.37-.584 4.036-2.398 3.98v.002zm-39.805-.074c-.164 0-.586.067-1.019.067-1.387 0-1.858-.642-1.858-1.474v-5.515h2.825a.313.313 0 0 0 .313-.314v-3.021a.31.31 0 0 0-.313-.312H30.37l-.004-3.715c0-.14-.073-.211-.237-.211h-3.85c-.148 0-.229.066-.229.208v3.839s-1.93.463-2.06.5a.311.311 0 0 0-.224.3v2.411a.31.31 0 0 0 .31.313h1.974v5.804c0 4.311 3.037 4.734 5.087 4.734.936 0 2.057-.298 2.242-.367.112-.042.177-.157.177-.282l.002-2.653a.318.318 0 0 0-.312-.312z"/>
        </g>
    </g>
</svg>
