<svg xmlns="http://www.w3.org/2000/svg" width="63" height="80" viewBox="0 0 63 80">
    <g fill="#A62C46" fill-rule="evenodd" style="mix-blend-mode:luminosity">
        <g fill-rule="nonzero">
            <path d="M3.1 65.735v13.63h3.45v-3.55l3.14 3.164h5.293l-4.198-4.231s3.02-.05 3.249-4.45c0-4.04-3.024-4.563-6.516-4.563H3.1zm3.615 3.697H9.69v2.428H6.715v-2.428zM21.646 65.79c-1.889-.011-4.508.166-4.508 3.753v9.473h3.54v-2.318h3.432v2.263h3.559v-9.933c0-3.116-3.435-3.238-5.275-3.238h-.748zm-.913 3.42h3.322v3.735h-3.322v-3.734zM31.216 65.798h3.664v13.04h-3.664zM38.716 65.971v13.04h8.817v-3.462h-5.21v-9.635l-3.607.057zM59.211 65.855v3.52h-5.897v1.269h2.52s4.065-.057 4.065 4.096c0 4.155-1.89 4.386-5.725 4.386h-4.637v-3.174h5.324c1.603 0 1.692-.526 1.692-.984 0-.458-.82-.67-2.486-.67-1.667 0-4.759-.827-4.759-4.057 0-3.231 1.604-4.444 4.809-4.444 3.205.001 5.094.058 5.094.058z"/>
        </g>
        <path d="M54.53 6.234c-6.142-3.055-12.432-3.365-18.873-1.071-5.927 2.111-10.655 5.89-14.17 11.035C15.54 24.907 11.221 34.408 8.8 44.73 7.56 50.014 6.757 55.082 6.973 60.538c.017.443.082 1.05.126 1.05h30.375c-.087 0-.145-.184-.22-.377-1.597-4.111-2.863-8.185-3.737-12.511-1.257-6.212-1.915-12.407-.617-18.677 1.817-8.78 6.783-15.049 15.155-18.332 4.742-1.862 9.242-1.298 13.19 2.193.036.033.11.03.206.047l1.292-1.96c-2.486-2.386-5.218-4.248-8.213-5.737zM6.972 47.082l-5.953-.453-.674 5.807 5.6.678 1.027-6.032zm5.041-17.79l-5.268-2.078-1.704 4.873 5.37 1.734 1.602-4.529zm24.868 27.211c1.8.135 3.602.23 5.587.345-.722-1.51-1.361-2.876-2.033-4.226-.073-.147-.321-.289-.49-.291-1.525-.022-3.053-.014-4.674-.014.364 1.334.682 2.562 1.054 3.775.056.183.355.396.556.411zm-15.938-41.97l-4.002-2.671-3.2 3.603 4.114 2.787 3.088-3.72zm12.748 27.064c-.006.163.14.422.28.487 1.443.653 2.9 1.275 4.485 1.964-.066-1.264-.11-2.32-.185-3.374-.014-.19-.102-.463-.242-.541-1.323-.74-2.665-1.444-4.134-2.229-.08 1.352-.162 2.52-.204 3.693zm-1.186-36.6l-2.74-3.134L25.99 3.84l2.745 3.37 3.769-2.213zm1.718 24.938c-.08.19.028.592.188.739 1.095.995 2.227 1.946 3.485 3.033.289-1.217.56-2.302.791-3.394.041-.195-.016-.516-.15-.624-.98-.796-1.99-1.553-3.038-2.36-.46.922-.906 1.747-1.276 2.606zM40.488 3.35c1.399.04 2.8.021 4.277.021-.148-1.036-.218-1.822-.393-2.582-.053-.225-.392-.527-.62-.546C42.353.128 40.944.084 39.4.01c.206 1.046.362 1.968.584 2.874.048.193.327.462.504.466zm1.704 18.091c.07-.134.09-.38.014-.498-.688-1.083-1.4-2.15-2.14-3.272l-2.396 2.217 3.313 3.7c.444-.782.842-1.456 1.209-2.147zm2.583-7.366c.509.952.97 1.815 1.43 2.679 2.239-1.236 2.454-1.685 1.66-3.466l-3.09.787zm10.711-8.252c.932.579 1.915 1.072 2.915 1.615l.67-1.05-3.731-2.752c-.052.56-.13.952-.11 1.337.016.296.066.731.256.85zm2.474 7.427c-1.89-.223-2.52-.444-3.78-.672V14.3c1.26.11 1.89.215 3.78.326V13.25z"/>
    </g>
</svg>
