<svg xmlns="http://www.w3.org/2000/svg" width="58" height="80" viewBox="0 0 58 80">
    <path fill="#D91404" fill-rule="nonzero" d="M41.313 33.597c-8.404 5.415-16.73 10.782-25.277 16.288l38.189 5.214-12.912-21.502zM57.839 9.634c-1.129 1.693-2.26 3.386-3.386 5.081-3.87 5.822-7.738 11.643-11.604 17.467-.215.325-.494.583-.19 1.082 3.735 6.168 7.44 12.356 11.155 18.536.586.976 1.18 1.948 1.938 2.885l2.252-45.002-.165-.05zM6.849 28.865c.174.166.61.262.813.162 3.583-1.761 7.189-3.483 10.694-5.39 1.142-.62 2.02-1.734 3.005-2.637 3.26-2.99 6.515-5.986 9.77-8.983.2-.184.435-.362.554-.594 1.169-2.285 2.317-4.58 3.507-6.943-1.419-.531-2.763-1.054-4.124-1.528-.185-.065-.475.063-.676.175-3.15 1.76-6.36 3.426-9.41 5.345-1.526.96-2.77 2.375-4.122 3.608a560.556 560.556 0 0 0-6.498 6.003c-.57.536-1.09 1.15-1.532 1.795-1.469 2.137-2.892 4.305-4.382 6.535.834.862 1.59 1.686 2.4 2.452zm13.094-2.922l-5.385 22.75L39.86 32.39l-19.917-6.447zm14.203-12.645l7.297 17.751c4.764-7.155 9.432-14.169 14.207-21.343l-21.504 3.592zM20.242 24.403a142370.8 142370.8 0 0 0 19.52 6.337c-2.446-5.96-4.809-11.711-7.22-17.584l-12.3 11.247zM7.118 33.256L.286 49.587l13.012-.384-6.18-15.947zm6.334 12.16l.162-.036c1.561-6.496 3.146-12.947 4.742-19.697l-10.44 5.425c1.78 4.626 3.677 9.504 5.536 14.307zM53.024 8.652c-2.078-.55-4.154-1.103-6.234-1.65-2.987-.784-5.977-1.561-8.963-2.354-.373-.099-.643-.163-.862.286-1.055 2.162-2.144 4.309-3.216 6.462-.033.067-.027.154-.052.32L53.02 8.79l.004-.136zM40.971 3.735L57.906 8.42 55.108.447 40.996 3.576l-.025.159zm5.127 51.615l-13.894-1.897c-5.77-.788-11.531-1.655-17.316-2.321-2.097-.242-4.25-.02-6.377.017-1.748.03-3.496.096-5.243.151a.693.693 0 0 0-.538.235c14.445 1.336 28.892 2.671 43.337 4.008l.03-.193zM.57 44.602c1.863-4.32 3.715-8.642 5.584-12.957.188-.434.174-.727-.192-1.075-.783-.745-1.508-1.547-2.364-2.435L.191 44.96l.125.06c.087-.139.191-.27.255-.419zm36.69-42.008c3.14-.81 6.325-1.442 9.492-2.15.204-.045.404-.113.606-.17l-.03-.156-13.605 1.83c1.278.559 2.262.976 3.538.646zM7.79 69.218v5.559H4.716v-14.49h4.222c1.968 0 3.425.359 4.37 1.076.945.716 1.418 1.805 1.418 3.265 0 .852-.235 1.61-.705 2.274-.468.664-1.132 1.185-1.992 1.562l4.262 6.312h-3.409l-3.458-5.56H7.789v.002zm0-2.498h.99c.971 0 1.689-.163 2.151-.486.462-.324.693-.832.693-1.526 0-.687-.236-1.176-.709-1.466-.472-.291-1.203-.437-2.194-.437h-.932v3.915zm17.937 8.057l-.406-1.418h-.159c-.324.516-.783.914-1.377 1.194-.595.281-1.273.421-2.032.421-1.302 0-2.283-.348-2.944-1.045-.66-.697-.99-1.7-.99-3.007v-7.225h3.022v6.471c0 .8.143 1.4.427 1.8.284.4.736.599 1.357.599.846 0 1.457-.283 1.833-.847.377-.566.565-1.501.565-2.81v-5.212h3.023v11.08h-2.32v-.001zM37.38 63.488c1.308 0 2.333.511 3.073 1.532.74 1.02 1.11 2.42 1.11 4.197 0 1.83-.383 3.247-1.145 4.25-.763 1.005-1.802 1.507-3.117 1.507-1.302 0-2.322-.473-3.062-1.418h-.208l-.505 1.22h-2.31v-15.42h3.023v3.588c0 .456-.04 1.185-.12 2.19h.12c.706-1.096 1.754-1.646 3.141-1.646zm-.972 2.419c-.746 0-1.29.23-1.634.689-.343.46-.523 1.217-.535 2.275v.326c0 1.19.176 2.042.53 2.558.353.515.913.772 1.68.772.62 0 1.114-.286 1.48-.857.368-.57.551-1.402.551-2.492s-.185-1.908-.555-2.453c-.37-.545-.875-.818-1.517-.818zm5.868-2.21h3.31l2.09 6.233c.179.542.302 1.183.367 1.923h.06c.072-.68.214-1.322.425-1.923l2.052-6.233h3.24l-4.688 12.497c-.429 1.156-1.042 2.021-1.837 2.596-.797.575-1.726.862-2.79.862a6.992 6.992 0 0 1-1.536-.168v-2.398c.364.085.76.128 1.189.128.535 0 1.002-.164 1.402-.49.4-.327.713-.82.936-1.482l.178-.545-4.398-11z" style="mix-blend-mode:luminosity"/>
</svg>
